<svg width="16" height="17" viewBox="0 0 16 17" fill="none" xmlns="http://www.w3.org/2000/svg">
<g clip-path="url(#clip0_12161_10744)">
<path d="M7.99689 0.5C3.58757 0.5 6.04726e-06 4.09376 0 8.50309C7.55907e-06 12.9124 3.58756 16.5 7.99689 16.5C12.4062 16.5 16 12.9124 16 8.50309C16 4.09376 12.4062 0.5 7.99689 0.5ZM12.0531 4.90155C12.24 4.91443 12.4164 4.99246 12.5516 5.12199C12.6279 5.19477 12.6906 5.28193 12.7331 5.37842C12.7756 5.47492 12.7987 5.5788 12.8009 5.68422C12.803 5.78964 12.7844 5.89451 12.7459 5.99269C12.7074 6.09087 12.65 6.18043 12.5767 6.25632L7.18922 11.8548C7.05093 11.9983 6.86411 12.0849 6.6653 12.0979C6.46648 12.1109 6.26997 12.0492 6.11422 11.925L3.49844 9.82344C3.33327 9.6907 3.22751 9.49786 3.20437 9.28723C3.18123 9.07661 3.24259 8.86543 3.37501 8.7C3.44079 8.61757 3.52222 8.54896 3.61462 8.49811C3.70702 8.44726 3.80856 8.41518 3.91341 8.40371C4.01826 8.39225 4.12433 8.40162 4.22554 8.4313C4.32675 8.46098 4.42109 8.51036 4.50314 8.57663L6.54533 10.2188L11.425 5.14534C11.5057 5.06149 11.6037 4.99624 11.7122 4.95415C11.8207 4.91206 11.937 4.89405 12.0531 4.90155Z" fill="#42B061"/>
</g>
<defs>
<clipPath id="clip0_12161_10744">
<rect width="16" height="16" fill="white" transform="translate(0 0.5)"/>
</clipPath>
</defs>
</svg>
