<svg width="20" height="24" viewBox="0 0 20 24" fill="none" xmlns="http://www.w3.org/2000/svg">
<path d="M9.60022 3.53687C4.86388 3.53687 1.01074 7.39 1.01074 12.1263C1.01074 16.8627 4.86388 20.7158 9.60022 20.7158C14.3366 20.7158 18.1897 16.8627 18.1897 12.1263C18.1897 7.39 14.3366 3.53687 9.60022 3.53687ZM9.60022 19.7053C5.42118 19.7053 2.02127 16.3054 2.02127 12.1263C2.02127 7.94731 5.42118 4.54739 9.60022 4.54739C13.7792 4.54739 17.1792 7.94731 17.1792 12.1263C17.1792 16.3054 13.7792 19.7053 9.60022 19.7053Z" fill="#0F0F0F"/>
<path d="M13.2381 11.621H10.1055V8.48842C10.1055 8.20901 9.87909 7.98315 9.60019 7.98315C9.32128 7.98315 9.09493 8.20901 9.09493 8.48842V11.621H5.96229C5.68339 11.621 5.45703 11.8469 5.45703 12.1263C5.45703 12.4057 5.68339 12.6316 5.96229 12.6316H9.09493V15.7642C9.09493 16.0436 9.32128 16.2695 9.60019 16.2695C9.87909 16.2695 10.1055 16.0436 10.1055 15.7642V12.6316H13.2381C13.517 12.6316 13.7433 12.4057 13.7433 12.1263C13.7433 11.8469 13.517 11.621 13.2381 11.621Z" fill="#0F0F0F"/>
</svg>
