<svg width="55" height="51" viewBox="0 0 55 51" fill="none" xmlns="http://www.w3.org/2000/svg">
<path d="M29.315 4.32081C21.5831 4.32081 14.8091 8.42859 11.0588 14.5893C10.5478 15.4288 9.45287 15.6952 8.61332 15.1841C7.77377 14.673 7.50748 13.5782 8.01856 12.7386C12.3877 5.56114 20.2899 0.76152 29.315 0.76152C43.0751 0.76152 54.23 11.9163 54.23 25.6766C54.23 39.4368 43.0751 50.5916 29.315 50.5916C20.2899 50.5916 12.3877 45.792 8.01856 38.6145C7.50748 37.7749 7.77377 36.6801 8.61332 36.169C9.45287 35.658 10.5478 35.9243 11.0588 36.7638C14.8091 42.9245 21.5831 47.0323 29.315 47.0323C41.1094 47.0323 50.6707 37.471 50.6707 25.6766C50.6707 13.8821 41.1094 4.32081 29.315 4.32081Z" fill="#1A1D4A"/>
<path d="M9.73853 18.5578C9.73853 19.5407 8.94178 20.3374 7.95888 20.3374H5.28941C4.30654 20.3374 3.50977 19.5407 3.50977 18.5578C3.50977 17.5749 4.30654 16.7781 5.28941 16.7781H7.95888C8.94178 16.7781 9.73853 17.5749 9.73853 18.5578Z" fill="white"/>
<path d="M7.9594 27.4566C8.9423 27.4566 9.73905 26.6598 9.73905 25.6769C9.73905 24.694 8.9423 23.8973 7.9594 23.8973H2.62047C1.63759 23.8973 0.84082 24.694 0.84082 25.6769C0.84082 26.6598 1.63759 27.4566 2.62047 27.4566H7.9594Z" fill="white"/>
<path d="M9.73853 32.7951C9.73853 33.778 8.94178 34.5747 7.95888 34.5747H5.28941C4.30654 34.5747 3.50977 33.778 3.50977 32.7951C3.50977 31.8122 4.30654 31.0154 5.28941 31.0154H7.95888C8.94178 31.0154 9.73853 31.8122 9.73853 32.7951Z" fill="white"/>
<path fill-rule="evenodd" clip-rule="evenodd" d="M48.0015 25.6765C48.0015 35.9967 39.6353 44.3628 29.3152 44.3628C18.995 44.3628 10.6289 35.9967 10.6289 25.6765C10.6289 15.3563 18.995 6.99023 29.3152 6.99023C39.6353 6.99023 48.0015 15.3563 48.0015 25.6765ZM29.3152 12.3292C30.2981 12.3292 31.0948 13.1259 31.0948 14.1088V15.051H35.5439C36.5268 15.051 37.3236 15.8478 37.3236 16.8306C37.3236 17.8135 36.5268 18.6103 35.5439 18.6103H27.585C26.0548 18.6103 24.8661 19.822 24.8661 21.2536C24.8661 22.6851 26.0548 23.8969 27.585 23.8969H31.0454C34.4842 23.8969 37.3236 26.6455 37.3236 30.0995C37.3236 33.5368 34.5114 36.2756 31.0948 36.3019V37.2442C31.0948 38.2271 30.2981 39.0239 29.3152 39.0239C28.3323 39.0239 27.5355 38.2271 27.5355 37.2442V36.3021H23.0864C22.1035 36.3021 21.3068 35.5052 21.3068 34.5224C21.3068 33.5395 22.1035 32.7428 23.0864 32.7428H31.0454C32.5756 32.7428 33.7643 31.531 33.7643 30.0995C33.7643 28.6679 32.5756 27.4562 31.0454 27.4562H27.585C24.1462 27.4562 21.3068 24.7075 21.3068 21.2536C21.3068 17.8163 24.119 15.0774 27.5355 15.0511V14.1088C27.5355 13.1259 28.3323 12.3292 29.3152 12.3292Z" fill="#FDCD00"/>
</svg>
