<svg width="26" height="31" viewBox="0 0 26 31" fill="none" xmlns="http://www.w3.org/2000/svg">
<path d="M21.089 16.4241C21.0473 12.6018 24.2163 10.7393 24.3692 10.6559C22.5762 8.04283 19.7964 7.68145 18.8234 7.65365C16.4883 7.40347 14.2228 9.04358 13.0413 9.04358C11.8321 9.04358 9.99741 7.66755 8.02371 7.70925C5.48015 7.75095 3.10338 9.22426 1.81076 11.5037C-0.871796 16.16 1.12969 22.9984 3.70105 26.7651C4.99368 28.6137 6.4948 30.6708 8.46849 30.5874C10.4005 30.504 11.1232 29.3643 13.4444 29.3643C15.7517 29.3643 16.4188 30.5874 18.4342 30.5457C20.5052 30.5179 21.8117 28.6971 23.0488 26.8346C24.536 24.7219 25.1337 22.637 25.1615 22.5397C25.092 22.5119 21.1307 20.9969 21.089 16.4241Z" fill="white"/>
<path d="M17.294 5.17969C18.3365 3.88706 19.0454 2.12186 18.8369 0.328857C17.3357 0.398354 15.4594 1.3713 14.3752 2.63613C13.4162 3.74807 12.5683 5.58277 12.7907 7.30627C14.4725 7.43137 16.2099 6.44452 17.294 5.17969Z" fill="white"/>
</svg>
