<svg width="48" height="48" viewBox="0 0 48 48" fill="none" xmlns="http://www.w3.org/2000/svg">
<circle cx="24" cy="24" r="20" fill="#CFDDFB"/>
<path d="M35.7686 23.3592C36.0771 23.7303 36.0771 24.2694 35.7686 24.6405L30.7686 30.6405C30.5703 30.8778 30.2861 30.9998 29.999 30.9998C29.7734 30.9998 29.5469 30.9237 29.3594 30.7684C28.9355 30.4149 28.8779 29.784 29.2314 29.3592L32.8648 24.9998H12C11.4473 24.9998 11 24.5526 11 23.9998C11 23.4471 11.4473 22.9998 12 22.9998H32.8648L29.2314 18.6405C28.8779 18.2157 28.9355 17.5848 29.3594 17.2313C29.7861 16.8787 30.4141 16.9354 30.7686 17.3592L35.7686 23.3592Z" fill="#1A1D4A"/>
</svg>
