<svg width="48" height="48" viewBox="0 0 48 48" fill="none" xmlns="http://www.w3.org/2000/svg">
<circle cx="20" cy="20" r="20" transform="matrix(-1 0 0 1 44 4)" fill="#CFDDFB"/>
<path d="M12.2314 23.3592C11.9229 23.7303 11.9229 24.2694 12.2314 24.6405L17.2314 30.6405C17.4297 30.8778 17.7139 30.9998 18.001 30.9998C18.2266 30.9998 18.4531 30.9237 18.6406 30.7684C19.0645 30.4149 19.1221 29.784 18.7686 29.3592L15.1352 24.9998H36C36.5527 24.9998 37 24.5526 37 23.9998C37 23.4471 36.5527 22.9998 36 22.9998H15.1352L18.7686 18.6405C19.1221 18.2157 19.0645 17.5848 18.6406 17.2313C18.2139 16.8787 17.5859 16.9354 17.2314 17.3592L12.2314 23.3592Z" fill="#1A1D4A"/>
</svg>
