<svg width="396" height="316" viewBox="0 0 396 316" fill="none" xmlns="http://www.w3.org/2000/svg">
<g clip-path="url(#clip0_12143_9428)">
<rect width="396" height="316" rx="40" fill="#6B7CF3"/>
<mask id="mask0_12143_9428" style="mask-type:alpha" maskUnits="userSpaceOnUse" x="-140" y="-182" width="729" height="533">
<path d="M227.189 19.7825L234.263 24.3328L239.25 12.5942L272.849 34.208L276.384 25.8897L235.711 -0.274162L227.189 19.7825Z" fill="#272948" fill-opacity="0.24"/>
<path d="M273.541 36.8626L239.943 15.2489L234.955 26.9874L225.023 20.5984L235.02 -2.92826L278.55 25.0745L273.541 36.8626ZM238.559 9.94022L272.157 31.5539L274.217 26.7057L236.404 2.38042L229.356 18.9672L233.571 21.6786L238.559 9.94022Z" fill="#272948" fill-opacity="0.24"/>
<path d="M216.977 194.584L224.051 199.134L229.038 187.395L262.637 209.009L266.172 200.691L225.5 174.527L216.977 194.584Z" fill="#272948" fill-opacity="0.24"/>
<path d="M263.329 211.664L229.731 190.05L224.743 201.789L214.811 195.4L224.808 171.873L268.338 199.876L263.329 211.664ZM228.347 184.741L261.945 206.355L264.006 201.507L226.192 177.182L219.144 193.768L223.359 196.48L228.347 184.741Z" fill="#272948" fill-opacity="0.24"/>
<path d="M222.94 106.105L230.014 110.655L235.001 98.9166L268.6 120.53L272.135 112.212L231.462 86.0482L222.94 106.105Z" fill="#272948" fill-opacity="0.24"/>
<path d="M269.292 123.185L235.694 101.571L230.706 113.31L220.774 106.921L230.771 83.3941L274.301 111.397L269.292 123.185ZM234.31 96.2626L267.908 117.876L269.968 113.028L232.155 88.7028L225.107 105.29L229.322 108.001L234.31 96.2626Z" fill="#272948" fill-opacity="0.24"/>
<path d="M212.727 280.906L219.801 285.456L224.788 273.718L258.387 295.332L261.922 287.013L221.25 260.849L212.727 280.906Z" fill="#272948" fill-opacity="0.24"/>
<path d="M259.079 297.986L225.481 276.373L220.493 288.111L210.561 281.722L220.558 258.195L264.088 286.198L259.079 297.986ZM224.097 271.064L257.695 292.678L259.756 287.829L221.942 263.504L214.894 280.091L219.109 282.802L224.097 271.064Z" fill="#272948" fill-opacity="0.24"/>
<path d="M54.8727 23.906L61.9461 28.4562L66.934 16.7176L100.533 38.3315L104.067 30.0131L63.3951 3.84925L54.8727 23.906Z" fill="#272948" fill-opacity="0.24"/>
<path d="M101.225 40.986L67.6263 19.3723L62.6383 31.1108L52.7063 24.7218L62.7034 1.19515L106.234 29.1979L101.225 40.986ZM66.2422 14.0636L99.8409 35.6773L101.901 30.8291L64.0875 6.50383L57.0395 23.0906L61.2543 25.802L66.2422 14.0636Z" fill="#272948" fill-opacity="0.24"/>
<path d="M44.6617 198.707L51.7352 203.257L56.7231 191.519L90.3216 213.133L93.8563 204.814L53.1841 178.651L44.6617 198.707Z" fill="#272948" fill-opacity="0.24"/>
<path d="M91.0141 215.787L57.4153 194.174L52.4274 205.912L42.4954 199.523L52.4925 175.996L96.0229 203.999L91.0141 215.787ZM56.0312 188.865L89.63 210.479L91.6901 205.63L53.8766 181.305L46.8286 197.892L51.0434 200.603L56.0312 188.865Z" fill="#272948" fill-opacity="0.24"/>
<path d="M50.6246 110.227L57.6981 114.777L62.6859 103.039L96.2845 124.653L99.8192 116.334L59.147 90.1704L50.6246 110.227Z" fill="#272948" fill-opacity="0.24"/>
<path d="M96.977 127.307L63.3782 105.693L58.3903 117.432L48.4583 111.043L58.4554 87.5163L101.986 115.519L96.977 127.307ZM61.9941 100.385L95.5929 121.998L97.653 117.15L59.8395 92.825L52.7915 109.412L57.0063 112.123L61.9941 100.385Z" fill="#272948" fill-opacity="0.24"/>
<path d="M40.4127 285.03L47.4862 289.58L52.474 277.841L86.0726 299.455L89.6073 291.137L48.9351 264.973L40.4127 285.03Z" fill="#272948" fill-opacity="0.24"/>
<path d="M86.765 302.11L53.1663 280.496L48.1784 292.235L38.2464 285.845L48.2434 262.319L91.7739 290.322L86.765 302.11ZM51.7822 275.187L85.381 296.801L87.4411 291.953L49.6276 267.627L42.5795 284.214L46.7944 286.926L51.7822 275.187Z" fill="#272948" fill-opacity="0.24"/>
<path d="M389.317 191.088L396.39 195.638L401.378 183.899L434.977 205.513L438.512 197.195L397.839 171.031L389.317 191.088Z" fill="#272948" fill-opacity="0.24"/>
<path d="M435.669 208.168L402.071 186.554L397.083 198.292L387.151 191.903L397.148 168.377L440.678 196.38L435.669 208.168ZM400.687 181.245L434.285 202.859L436.345 198.011L398.532 173.685L391.484 190.272L395.699 192.984L400.687 181.245Z" fill="#272948" fill-opacity="0.24"/>
<path d="M395.28 102.606L402.353 107.157L407.341 95.4179L440.94 117.032L444.475 108.713L403.802 82.5496L395.28 102.606Z" fill="#272948" fill-opacity="0.24"/>
<path d="M441.632 119.686L408.033 98.0726L403.046 109.811L393.114 103.422L403.111 79.8955L446.641 107.898L441.632 119.686ZM406.649 92.764L440.248 114.378L442.308 109.529L404.495 85.2042L397.447 101.791L401.662 104.502L406.649 92.764Z" fill="#272948" fill-opacity="0.24"/>
<path d="M385.068 277.409L392.141 281.959L397.129 270.22L430.728 291.834L434.263 283.516L393.59 257.352L385.068 277.409Z" fill="#272948" fill-opacity="0.24"/>
<path d="M431.42 294.489L397.822 272.875L392.834 284.614L382.902 278.225L392.899 254.698L436.429 282.701L431.42 294.489ZM396.437 267.566L430.036 289.18L432.096 284.332L394.283 260.007L387.235 276.593L391.45 279.305L396.437 267.566Z" fill="#272948" fill-opacity="0.24"/>
<path d="M-31.2963 25.6534L-24.2228 30.2036L-19.235 18.4651L14.3636 40.0789L17.8983 31.7606L-22.7739 5.59669L-31.2963 25.6534Z" fill="#272948" fill-opacity="0.24"/>
<path d="M15.0561 42.7334L-18.5427 21.1197L-23.5306 32.8583L-33.4626 26.4692L-23.4655 2.94259L20.0649 30.9453L15.0561 42.7334ZM-19.9268 15.8111L13.672 37.4248L15.7321 32.5765L-22.0814 8.25127L-29.1294 24.8381L-24.9146 27.5494L-19.9268 15.8111Z" fill="#272948" fill-opacity="0.24"/>
<path d="M-41.5092 200.456L-34.4357 205.006L-29.4478 193.268L4.15071 214.881L7.68544 206.563L-32.9868 180.399L-41.5092 200.456Z" fill="#272948" fill-opacity="0.24"/>
<path d="M4.84316 217.536L-28.7556 195.922L-33.7435 207.661L-43.6755 201.272L-33.6784 177.745L9.85198 205.748L4.84316 217.536ZM-30.1397 190.614L3.45908 212.227L5.51924 207.379L-32.2943 183.054L-39.3423 199.641L-35.1275 202.352L-30.1397 190.614Z" fill="#272948" fill-opacity="0.24"/>
<path d="M-35.5463 111.976L-28.4728 116.526L-23.485 104.787L10.1136 126.401L13.6483 118.083L-27.0239 91.9191L-35.5463 111.976Z" fill="#272948" fill-opacity="0.24"/>
<path d="M10.8061 129.056L-22.7927 107.442L-27.7806 119.181L-37.7126 112.792L-27.7155 89.265L15.8149 117.268L10.8061 129.056ZM-24.1768 102.133L9.42197 123.747L11.4821 118.899L-26.3314 94.5737L-33.3794 111.16L-29.1646 113.872L-24.1768 102.133Z" fill="#272948" fill-opacity="0.24"/>
<path d="M-45.7582 286.777L-38.6847 291.327L-33.6969 279.589L-0.0983106 301.203L3.43642 292.884L-37.2358 266.72L-45.7582 286.777Z" fill="#272948" fill-opacity="0.24"/>
<path d="M0.594138 303.857L-33.0046 282.243L-37.9925 293.982L-47.9245 287.593L-37.9275 264.066L5.60296 292.069L0.594138 303.857ZM-34.3887 276.935L-0.78994 298.548L1.27021 293.7L-36.5433 269.375L-43.5914 285.962L-39.3765 288.673L-34.3887 276.935Z" fill="#272948" fill-opacity="0.24"/>
<path d="M313.359 18.0325L320.432 22.5828L325.42 10.8442L359.019 32.458L362.554 24.1397L321.881 -2.02416L313.359 18.0325Z" fill="#272948" fill-opacity="0.24"/>
<path d="M359.711 35.1126L326.113 13.4989L321.125 25.2374L311.193 18.8484L321.19 -4.67826L364.72 23.3245L359.711 35.1126ZM324.729 8.19022L358.327 29.8039L360.387 24.9557L322.574 0.63042L315.526 17.2172L319.741 19.9286L324.729 8.19022Z" fill="#272948" fill-opacity="0.24"/>
<path d="M303.147 192.835L310.221 197.385L315.208 185.647L348.807 207.261L352.342 198.942L311.669 172.778L303.147 192.835Z" fill="#272948" fill-opacity="0.24"/>
<path d="M349.499 209.915L315.901 188.301L310.913 200.04L300.981 193.651L310.978 170.124L354.508 198.127L349.499 209.915ZM314.517 182.993L348.115 204.606L350.175 199.758L312.362 175.433L305.314 192.02L309.529 194.731L314.517 182.993Z" fill="#272948" fill-opacity="0.24"/>
<path d="M309.109 104.356L316.182 108.907L321.17 97.1679L354.769 118.782L358.304 110.463L317.631 84.2996L309.109 104.356Z" fill="#272948" fill-opacity="0.24"/>
<path d="M355.461 121.436L321.863 99.8226L316.875 111.561L306.943 105.172L316.94 81.6455L360.47 109.648L355.461 121.436ZM320.479 94.514L354.077 116.128L356.137 111.279L318.324 86.9542L311.276 103.541L315.491 106.252L320.479 94.514Z" fill="#272948" fill-opacity="0.24"/>
<path d="M298.898 279.156L305.972 283.706L310.959 271.968L344.558 293.582L348.093 285.263L307.42 259.099L298.898 279.156Z" fill="#272948" fill-opacity="0.24"/>
<path d="M345.25 296.236L311.652 274.623L306.664 286.361L296.732 279.972L306.729 256.445L350.259 284.448L345.25 296.236ZM310.268 269.314L343.866 290.928L345.926 286.079L308.113 261.754L301.065 278.341L305.28 281.052L310.268 269.314Z" fill="#272948" fill-opacity="0.24"/>
<path d="M141.044 22.1585L148.117 26.7088L153.105 14.9702L186.703 36.584L190.238 28.2657L149.566 2.10181L141.044 22.1585Z" fill="#272948" fill-opacity="0.24"/>
<path d="M187.396 39.2386L153.797 17.6249L148.809 29.3634L138.877 22.9744L148.874 -0.552287L192.405 27.4505L187.396 39.2386ZM152.413 12.3162L186.012 33.9299L188.072 29.0817L150.258 4.7564L143.21 21.3432L147.425 24.0545L152.413 12.3162Z" fill="#272948" fill-opacity="0.24"/>
<path d="M130.832 196.96L137.905 201.51L142.893 189.771L176.492 211.385L180.026 203.067L139.354 176.903L130.832 196.96Z" fill="#272948" fill-opacity="0.24"/>
<path d="M177.184 214.04L143.585 192.426L138.597 204.165L128.665 197.776L138.662 174.249L182.193 202.252L177.184 214.04ZM142.201 187.117L175.8 208.731L177.86 203.883L140.047 179.558L132.998 196.144L137.213 198.856L142.201 187.117Z" fill="#272948" fill-opacity="0.24"/>
<path d="M136.795 108.48L143.868 113.03L148.856 101.291L182.454 122.905L185.989 114.587L145.317 88.4231L136.795 108.48Z" fill="#272948" fill-opacity="0.24"/>
<path d="M183.147 125.56L149.548 103.946L144.56 115.685L134.628 109.296L144.625 85.769L188.156 113.772L183.147 125.56ZM148.164 98.6375L181.763 120.251L183.823 115.403L146.009 91.0777L138.961 107.664L143.176 110.376L148.164 98.6375Z" fill="#272948" fill-opacity="0.24"/>
<path d="M126.583 283.281L133.656 287.831L138.644 276.092L172.243 297.706L175.777 289.388L135.105 263.224L126.583 283.281Z" fill="#272948" fill-opacity="0.24"/>
<path d="M172.935 300.361L139.336 278.747L134.348 290.486L124.416 284.097L134.413 260.57L177.944 288.573L172.935 300.361ZM137.952 273.438L171.551 295.052L173.611 290.204L135.798 265.879L128.749 282.465L132.964 285.177L137.952 273.438Z" fill="#272948" fill-opacity="0.24"/>
<path d="M270.274 18.9075L277.348 23.4578L282.335 11.7192L315.934 33.333L319.469 25.0147L278.796 -1.14916L270.274 18.9075Z" fill="#272948" fill-opacity="0.24"/>
<path d="M316.626 35.9876L283.028 14.3739L278.04 26.1124L268.108 19.7234L278.105 -3.80326L321.635 24.1995L316.626 35.9876ZM281.644 9.06522L315.242 30.6789L317.302 25.8307L279.489 1.50542L272.441 18.0922L276.656 20.8036L281.644 9.06522Z" fill="#272948" fill-opacity="0.24"/>
<path d="M260.062 193.71L267.136 198.26L272.123 186.522L305.722 208.136L309.257 199.817L268.585 173.653L260.062 193.71Z" fill="#272948" fill-opacity="0.24"/>
<path d="M306.414 210.79L272.816 189.176L267.828 200.915L257.896 194.526L267.893 170.999L311.423 199.002L306.414 210.79ZM271.432 183.868L305.03 205.481L307.091 200.633L269.277 176.308L262.229 192.895L266.444 195.606L271.432 183.868Z" fill="#272948" fill-opacity="0.24"/>
<path d="M266.025 105.23L273.098 109.78L278.086 98.0417L311.685 119.656L315.22 111.337L274.547 85.1733L266.025 105.23Z" fill="#272948" fill-opacity="0.24"/>
<path d="M312.377 122.31L278.779 100.696L273.791 112.435L263.859 106.046L273.856 82.5192L317.386 110.522L312.377 122.31ZM277.395 95.3877L310.993 117.001L313.053 112.153L275.24 87.8279L268.192 104.415L272.407 107.126L277.395 95.3877Z" fill="#272948" fill-opacity="0.24"/>
<path d="M255.813 280.031L262.887 284.581L267.874 272.843L301.473 294.457L305.008 286.138L264.335 259.974L255.813 280.031Z" fill="#272948" fill-opacity="0.24"/>
<path d="M302.165 297.111L268.567 275.498L263.579 287.236L253.647 280.847L263.644 257.32L307.174 285.323L302.165 297.111ZM267.183 270.189L300.781 291.803L302.842 286.954L265.028 262.629L257.98 279.216L262.195 281.927L267.183 270.189Z" fill="#272948" fill-opacity="0.24"/>
<path d="M97.9586 23.031L105.032 27.5812L110.02 15.8426L143.618 37.4565L147.153 29.1381L106.481 2.97425L97.9586 23.031Z" fill="#272948" fill-opacity="0.24"/>
<path d="M144.311 40.111L110.712 18.4973L105.724 30.2358L95.7923 23.8468L105.789 0.320149L149.32 28.3229L144.311 40.111ZM109.328 13.1886L142.927 34.8023L144.987 29.9541L107.173 5.62883L100.125 22.2156L104.34 24.927L109.328 13.1886Z" fill="#272948" fill-opacity="0.24"/>
<path d="M87.7467 197.834L94.8202 202.384L99.808 190.645L133.407 212.259L136.941 203.941L96.2691 177.777L87.7467 197.834Z" fill="#272948" fill-opacity="0.24"/>
<path d="M134.099 214.914L100.5 193.3L95.5123 205.038L85.5804 198.649L95.5774 175.123L139.108 203.126L134.099 214.914ZM99.1162 187.991L132.715 209.605L134.775 204.757L96.9616 180.431L89.9135 197.018L94.1283 199.73L99.1162 187.991Z" fill="#272948" fill-opacity="0.24"/>
<path d="M93.7086 109.353L100.782 113.904L105.77 102.165L139.368 123.779L142.903 115.461L102.231 89.2968L93.7086 109.353Z" fill="#272948" fill-opacity="0.24"/>
<path d="M140.061 126.434L106.462 104.82L101.474 116.558L91.5423 110.169L101.539 86.6427L145.07 114.645L140.061 126.434ZM105.078 99.5111L138.677 121.125L140.737 116.277L102.923 91.9513L95.8754 108.538L100.09 111.249L105.078 99.5111Z" fill="#272948" fill-opacity="0.24"/>
<path d="M83.4977 284.155L90.5711 288.705L95.559 276.966L129.158 298.58L132.692 290.262L92.0201 264.098L83.4977 284.155Z" fill="#272948" fill-opacity="0.24"/>
<path d="M129.85 301.235L96.2513 279.621L91.2633 291.36L81.3313 284.97L91.3284 261.444L134.859 289.447L129.85 301.235ZM94.8672 274.312L128.466 295.926L130.526 291.078L92.7125 266.752L85.6645 283.339L89.8793 286.051L94.8672 274.312Z" fill="#272948" fill-opacity="0.24"/>
<path d="M11.7877 24.781L18.8612 29.3312L23.849 17.5926L57.4476 39.2065L60.9823 30.8881L20.3101 4.72425L11.7877 24.781Z" fill="#272948" fill-opacity="0.24"/>
<path d="M58.14 41.861L24.5413 20.2473L19.5534 31.9858L9.62137 25.5968L19.6184 2.07015L63.1489 30.0729L58.14 41.861ZM23.1572 14.9386L56.756 36.5523L58.8161 31.7041L21.0026 7.37883L13.9545 23.9656L18.1694 26.677L23.1572 14.9386Z" fill="#272948" fill-opacity="0.24"/>
<path d="M1.57678 199.582L8.65024 204.132L13.6381 192.394L47.2367 214.008L50.7714 205.689L10.0992 179.526L1.57678 199.582Z" fill="#272948" fill-opacity="0.24"/>
<path d="M47.9291 216.662L14.3304 195.049L9.34242 206.787L-0.589564 200.398L9.40751 176.871L52.9379 204.874L47.9291 216.662ZM12.9463 189.74L46.545 211.354L48.6052 206.505L10.7916 182.18L3.7436 198.767L7.95842 201.478L12.9463 189.74Z" fill="#272948" fill-opacity="0.24"/>
<path d="M7.53967 111.102L14.6131 115.652L19.601 103.914L53.1995 125.528L56.7343 117.209L16.0621 91.0454L7.53967 111.102Z" fill="#272948" fill-opacity="0.24"/>
<path d="M53.892 128.182L20.2932 106.568L15.3053 118.307L5.37333 111.918L15.3704 88.3913L58.9008 116.394L53.892 128.182ZM18.9092 101.26L52.5079 122.873L54.5681 118.025L16.7545 93.7L9.70649 110.287L13.9213 112.998L18.9092 101.26Z" fill="#272948" fill-opacity="0.24"/>
<path d="M-2.67224 285.903L4.40122 290.454L9.38907 278.715L42.9876 300.329L46.5224 292.011L5.85014 265.847L-2.67224 285.903Z" fill="#272948" fill-opacity="0.24"/>
<path d="M43.6801 302.983L10.0813 281.37L5.0934 293.108L-4.83859 286.719L5.15848 263.193L48.6889 291.195L43.6801 302.983ZM8.69726 276.061L42.296 297.675L44.3562 292.827L6.54262 268.501L-0.505422 285.088L3.7094 287.799L8.69726 276.061Z" fill="#272948" fill-opacity="0.24"/>
<path d="M356.444 17.1599L363.517 21.7101L368.505 9.97153L402.104 31.5854L405.639 23.267L364.966 -2.89684L356.444 17.1599Z" fill="#272948" fill-opacity="0.24"/>
<path d="M402.796 34.2399L369.198 12.6262L364.21 24.3648L354.278 17.9757L364.275 -5.55094L407.805 22.4518L402.796 34.2399ZM367.813 7.31754L401.412 28.9312L403.472 24.083L365.659 -0.242261L358.611 16.3445L362.826 19.0559L367.813 7.31754Z" fill="#272948" fill-opacity="0.24"/>
<path d="M346.232 191.961L353.306 196.512L358.293 184.773L391.892 206.387L395.427 198.068L354.754 171.905L346.232 191.961Z" fill="#272948" fill-opacity="0.24"/>
<path d="M392.584 209.041L358.986 187.428L353.998 199.166L344.066 192.777L354.063 169.25L397.593 197.253L392.584 209.041ZM357.602 182.119L391.2 203.733L393.26 198.884L355.447 174.559L348.399 191.146L352.614 193.857L357.602 182.119Z" fill="#272948" fill-opacity="0.24"/>
<path d="M352.195 103.482L359.268 108.032L364.256 96.2932L397.855 117.907L401.39 109.589L360.717 83.4248L352.195 103.482Z" fill="#272948" fill-opacity="0.24"/>
<path d="M398.547 120.562L364.949 98.9479L359.961 110.686L350.029 104.297L360.026 80.7707L403.556 108.773L398.547 120.562ZM363.564 93.6392L397.163 115.253L399.223 110.405L361.41 86.0794L354.362 102.666L358.577 105.378L363.564 93.6392Z" fill="#272948" fill-opacity="0.24"/>
<path d="M341.983 278.284L349.056 282.834L354.044 271.095L387.643 292.709L391.178 284.391L350.505 258.227L341.983 278.284Z" fill="#272948" fill-opacity="0.24"/>
<path d="M388.335 295.364L354.737 273.75L349.749 285.488L339.817 279.099L349.814 255.573L393.344 283.575L388.335 295.364ZM353.353 268.441L386.951 290.055L389.011 285.207L351.198 260.881L344.15 277.468L348.365 280.18L353.353 268.441Z" fill="#272948" fill-opacity="0.24"/>
<path d="M184.129 21.2833L191.202 25.8335L196.19 14.0949L229.788 35.7088L233.323 27.3904L192.651 1.22657L184.129 21.2833Z" fill="#272948" fill-opacity="0.24"/>
<path d="M230.481 38.3633L196.882 16.7496L191.894 28.4882L181.962 22.0991L191.959 -1.42753L235.49 26.5752L230.481 38.3633ZM195.498 11.441L229.097 33.0546L231.157 28.2064L193.343 3.88115L186.295 20.468L190.51 23.1793L195.498 11.441Z" fill="#272948" fill-opacity="0.24"/>
<path d="M173.917 196.085L180.99 200.635L185.978 188.896L219.576 210.51L223.111 202.192L182.439 176.028L173.917 196.085Z" fill="#272948" fill-opacity="0.24"/>
<path d="M220.269 213.165L186.67 191.551L181.682 203.29L171.75 196.901L181.747 173.374L225.278 201.377L220.269 213.165ZM185.286 186.242L218.885 207.856L220.945 203.008L183.131 178.683L176.083 195.269L180.298 197.981L185.286 186.242Z" fill="#272948" fill-opacity="0.24"/>
<path d="M179.88 107.605L186.953 112.155L191.941 100.416L225.539 122.03L229.074 113.712L188.402 87.5481L179.88 107.605Z" fill="#272948" fill-opacity="0.24"/>
<path d="M226.232 124.685L192.633 103.071L187.645 114.81L177.713 108.421L187.71 84.894L231.241 112.897L226.232 124.685ZM191.249 97.7625L224.848 119.376L226.908 114.528L189.094 90.2027L182.046 106.789L186.261 109.501L191.249 97.7625Z" fill="#272948" fill-opacity="0.24"/>
<path d="M169.668 282.406L176.741 286.956L181.729 275.218L215.327 296.831L218.862 288.513L178.19 262.349L169.668 282.406Z" fill="#272948" fill-opacity="0.24"/>
<path d="M216.02 299.486L182.421 277.872L177.433 289.611L167.501 283.222L177.498 259.695L221.029 287.698L216.02 299.486ZM181.037 272.564L214.636 294.177L216.696 289.329L178.882 265.004L171.834 281.591L176.049 284.302L181.037 272.564Z" fill="#272948" fill-opacity="0.24"/>
<path d="M222.107 64.6417L229.181 69.1919L234.168 57.4533L267.767 79.0672L271.302 70.7488L230.629 44.585L222.107 64.6417Z" fill="#272948" fill-opacity="0.24"/>
<path d="M268.459 81.7217L234.861 60.108L229.873 71.8466L219.941 65.4575L229.938 41.9309L273.468 69.9336L268.459 81.7217ZM233.477 54.7994L267.075 76.413L269.135 71.5648L231.322 47.2396L224.274 63.8264L228.489 66.5377L233.477 54.7994Z" fill="#272948" fill-opacity="0.24"/>
<path d="M211.895 239.443L218.969 243.993L223.956 232.254L257.555 253.868L261.09 245.55L220.418 219.386L211.895 239.443Z" fill="#272948" fill-opacity="0.24"/>
<path d="M258.247 256.523L224.649 234.909L219.661 246.648L209.729 240.259L219.726 216.732L263.256 244.735L258.247 256.523ZM223.265 229.6L256.863 251.214L258.924 246.366L221.11 222.041L214.062 238.628L218.277 241.339L223.265 229.6Z" fill="#272948" fill-opacity="0.24"/>
<path d="M217.858 150.963L224.931 155.513L229.919 143.774L263.518 165.388L267.053 157.07L226.38 130.906L217.858 150.963Z" fill="#272948" fill-opacity="0.24"/>
<path d="M264.21 168.043L230.612 146.429L225.624 158.167L215.692 151.778L225.689 128.252L269.219 156.255L264.21 168.043ZM229.228 141.12L262.826 162.734L264.886 157.886L227.073 133.56L220.025 150.147L224.24 152.859L229.228 141.12Z" fill="#272948" fill-opacity="0.24"/>
<path d="M207.646 325.764L214.72 330.314L219.707 318.576L253.306 340.189L256.841 331.871L216.168 305.707L207.646 325.764Z" fill="#272948" fill-opacity="0.24"/>
<path d="M253.998 342.844L220.4 321.23L215.412 332.969L205.48 326.58L215.477 303.053L259.007 331.056L253.998 342.844ZM219.016 315.922L252.614 337.535L254.675 332.687L216.861 308.362L209.813 324.949L214.028 327.66L219.016 315.922Z" fill="#272948" fill-opacity="0.24"/>
<path d="M49.7916 68.7639L56.8651 73.3141L61.8529 61.5755L95.4515 83.1894L98.9862 74.871L58.314 48.7072L49.7916 68.7639Z" fill="#272948" fill-opacity="0.24"/>
<path d="M96.1439 85.8439L62.5452 64.2302L57.5573 75.9688L47.6253 69.5797L57.6224 46.0531L101.153 74.0558L96.1439 85.8439ZM61.1611 58.9215L94.7599 80.5352L96.82 75.687L59.0065 51.3617L51.9584 67.9485L56.1733 70.6599L61.1611 58.9215Z" fill="#272948" fill-opacity="0.24"/>
<path d="M39.5797 243.566L46.6532 248.117L51.641 236.378L85.2396 257.992L88.7743 249.674L48.1021 223.51L39.5797 243.566Z" fill="#272948" fill-opacity="0.24"/>
<path d="M85.932 260.646L52.3333 239.033L47.3453 250.771L37.4134 244.382L47.4104 220.856L90.9408 248.858L85.932 260.646ZM50.9492 233.724L84.548 255.338L86.6081 250.49L48.7946 226.164L41.7465 242.751L45.9614 245.462L50.9492 233.724Z" fill="#272948" fill-opacity="0.24"/>
<path d="M54.0524 -17.5574L61.1258 -13.0072L66.1137 -24.7458L99.7122 -3.13192L103.247 -11.4503L62.5747 -37.6141L54.0524 -17.5574Z" fill="#272948" fill-opacity="0.24"/>
<path d="M100.405 -0.477379L66.8059 -22.0911L61.818 -10.3525L51.886 -16.7416L61.8831 -40.2682L105.414 -12.2655L100.405 -0.477379ZM65.4219 -27.3997L99.0206 -5.78605L101.081 -10.6343L63.2672 -34.9595L56.2192 -18.3727L60.434 -15.6614L65.4219 -27.3997Z" fill="#272948" fill-opacity="0.24"/>
<path d="M45.5426 155.086L52.6161 159.637L57.6039 147.898L91.2025 169.512L94.7372 161.193L54.065 135.03L45.5426 155.086Z" fill="#272948" fill-opacity="0.24"/>
<path d="M91.8949 172.166L58.2962 150.553L53.3082 162.291L43.3763 155.902L53.3733 132.375L96.9037 160.378L91.8949 172.166ZM56.9121 145.244L90.5108 166.858L92.571 162.009L54.7575 137.684L47.7094 154.271L51.9242 156.982L56.9121 145.244Z" fill="#272948" fill-opacity="0.24"/>
<path d="M35.3307 329.888L42.4041 334.438L47.392 322.699L80.9906 344.313L84.5253 335.995L43.8531 309.831L35.3307 329.888Z" fill="#272948" fill-opacity="0.24"/>
<path d="M81.683 346.968L48.0843 325.354L43.0963 337.092L33.1643 330.703L43.1614 307.177L86.6918 335.179L81.683 346.968ZM46.7002 320.045L80.2989 341.659L82.3591 336.811L44.5455 312.485L37.4975 329.072L41.7123 331.784L46.7002 320.045Z" fill="#272948" fill-opacity="0.24"/>
<path d="M394.448 61.143L401.521 65.6933L406.509 53.9547L440.108 75.5685L443.642 67.2502L402.97 41.0863L394.448 61.143Z" fill="#272948" fill-opacity="0.24"/>
<path d="M440.8 78.2231L407.201 56.6094L402.214 68.3479L392.282 61.9588L402.279 38.4322L445.809 66.435L440.8 78.2231ZM405.817 51.3007L439.416 72.9144L441.476 68.0662L403.663 43.7409L396.615 60.3277L400.83 63.039L405.817 51.3007Z" fill="#272948" fill-opacity="0.24"/>
<path d="M384.236 235.945L391.309 240.496L396.297 228.757L429.896 250.371L433.431 242.053L392.758 215.889L384.236 235.945Z" fill="#272948" fill-opacity="0.24"/>
<path d="M430.588 253.025L396.99 231.412L392.002 243.15L382.07 236.761L392.067 213.235L435.597 241.237L430.588 253.025ZM395.605 226.103L429.204 247.717L431.264 242.869L393.451 218.543L386.403 235.13L390.618 237.841L395.605 226.103Z" fill="#272948" fill-opacity="0.24"/>
<path d="M390.198 147.465L397.271 152.016L402.259 140.277L435.858 161.891L439.392 153.573L398.72 127.409L390.198 147.465Z" fill="#272948" fill-opacity="0.24"/>
<path d="M436.55 164.545L402.951 142.932L397.964 154.67L388.032 148.281L398.029 124.755L441.559 152.757L436.55 164.545ZM401.567 137.623L435.166 159.237L437.226 154.389L399.413 130.063L392.365 146.65L396.58 149.361L401.567 137.623Z" fill="#272948" fill-opacity="0.24"/>
<path d="M379.986 322.267L387.059 326.817L392.047 315.078L425.646 336.692L429.181 328.374L388.508 302.21L379.986 322.267Z" fill="#272948" fill-opacity="0.24"/>
<path d="M426.338 339.347L392.74 317.733L387.752 329.472L377.82 323.083L387.817 299.556L431.347 327.559L426.338 339.347ZM391.355 312.424L424.954 334.038L427.014 329.19L389.201 304.865L382.153 321.451L386.368 324.163L391.355 312.424Z" fill="#272948" fill-opacity="0.24"/>
<path d="M-36.3783 70.5125L-29.3048 75.0628L-24.317 63.3242L9.28157 84.938L12.8163 76.6197L-27.8559 50.4558L-36.3783 70.5125Z" fill="#272948" fill-opacity="0.24"/>
<path d="M9.97402 87.5926L-23.6247 65.9789L-28.6127 77.7174L-38.5446 71.3284L-28.5476 47.8017L14.9828 75.8045L9.97402 87.5926ZM-25.0088 60.6702L8.58994 82.2839L10.6501 77.4357L-27.1634 53.1104L-34.2115 69.6972L-29.9967 72.4086L-25.0088 60.6702Z" fill="#272948" fill-opacity="0.24"/>
<path d="M-46.5902 245.314L-39.5168 249.864L-34.5289 238.126L-0.930342 259.739L2.60438 251.421L-38.0678 225.257L-46.5902 245.314Z" fill="#272948" fill-opacity="0.24"/>
<path d="M-0.237893 262.394L-33.8366 240.78L-38.8246 252.519L-48.7566 246.13L-38.7595 222.603L4.77092 250.606L-0.237893 262.394ZM-35.2207 235.472L-1.62197 257.085L0.438181 252.237L-37.3753 227.912L-44.4234 244.499L-40.2086 247.21L-35.2207 235.472Z" fill="#272948" fill-opacity="0.24"/>
<path d="M-32.1176 -15.8096L-25.0441 -11.2594L-20.0562 -22.998L13.5423 -1.38412L17.077 -9.70245L-23.5952 -35.8663L-32.1176 -15.8096Z" fill="#272948" fill-opacity="0.24"/>
<path d="M14.2348 1.27042L-19.364 -20.3433L-24.3519 -8.60473L-34.2839 -14.9938L-24.2868 -38.5204L19.2436 -10.5177L14.2348 1.27042ZM-20.7481 -25.6519L12.8507 -4.03825L14.9108 -8.88647L-22.9027 -33.2117L-29.9507 -16.6249L-25.7359 -13.9136L-20.7481 -25.6519Z" fill="#272948" fill-opacity="0.24"/>
<path d="M-40.6273 156.835L-33.5539 161.385L-28.566 149.647L5.03255 171.261L8.56728 162.942L-32.1049 136.778L-40.6273 156.835Z" fill="#272948" fill-opacity="0.24"/>
<path d="M5.725 173.915L-27.8737 152.301L-32.8617 164.04L-42.7937 157.651L-32.7966 134.124L10.7338 162.127L5.725 173.915ZM-29.2578 146.993L4.34092 168.606L6.40107 163.758L-31.4125 139.433L-38.4605 156.02L-34.2457 158.731L-29.2578 146.993Z" fill="#272948" fill-opacity="0.24"/>
<path d="M-50.8392 331.635L-43.7658 336.185L-38.7779 324.447L-5.17937 346.06L-1.64464 337.742L-42.3169 311.578L-50.8392 331.635Z" fill="#272948" fill-opacity="0.24"/>
<path d="M-4.48692 348.715L-38.0857 327.101L-43.0736 338.84L-53.0056 332.451L-43.0085 308.924L0.521901 336.927L-4.48692 348.715ZM-39.4697 321.793L-5.87099 343.406L-3.81084 338.558L-41.6244 314.233L-48.6724 330.82L-44.4576 333.531L-39.4697 321.793Z" fill="#272948" fill-opacity="0.24"/>
<path d="M308.277 62.8917L315.35 67.4419L320.338 55.7033L353.937 77.3172L357.472 68.9988L316.799 42.835L308.277 62.8917Z" fill="#272948" fill-opacity="0.24"/>
<path d="M354.629 79.9717L321.031 58.358L316.043 70.0966L306.111 63.7075L316.108 40.1809L359.638 68.1836L354.629 79.9717ZM319.646 53.0494L353.245 74.663L355.305 69.8148L317.492 45.4896L310.444 62.0764L314.659 64.7877L319.646 53.0494Z" fill="#272948" fill-opacity="0.24"/>
<path d="M298.065 237.693L305.139 242.243L310.126 230.505L343.725 252.118L347.26 243.8L306.587 217.636L298.065 237.693Z" fill="#272948" fill-opacity="0.24"/>
<path d="M344.417 254.773L310.819 233.159L305.831 244.898L295.899 238.509L305.896 214.982L349.426 242.985L344.417 254.773ZM309.435 227.851L343.033 249.464L345.093 244.616L307.28 220.291L300.232 236.878L304.447 239.589L309.435 227.851Z" fill="#272948" fill-opacity="0.24"/>
<path d="M304.028 149.214L311.101 153.764L316.089 142.026L349.688 163.64L353.223 155.321L312.55 129.157L304.028 149.214Z" fill="#272948" fill-opacity="0.24"/>
<path d="M350.38 166.294L316.782 144.681L311.794 156.419L301.862 150.03L311.859 126.503L355.389 154.506L350.38 166.294ZM315.397 139.372L348.996 160.986L351.056 156.137L313.243 131.812L306.195 148.399L310.41 151.11L315.397 139.372Z" fill="#272948" fill-opacity="0.24"/>
<path d="M293.816 324.014L300.889 328.564L305.877 316.826L339.476 338.439L343.011 330.121L302.338 303.957L293.816 324.014Z" fill="#272948" fill-opacity="0.24"/>
<path d="M340.168 341.094L306.57 319.48L301.582 331.219L291.65 324.83L301.647 301.303L345.177 329.306L340.168 341.094ZM305.186 314.172L338.784 335.785L340.844 330.937L303.031 306.612L295.983 323.199L300.198 325.91L305.186 314.172Z" fill="#272948" fill-opacity="0.24"/>
<path d="M135.962 67.0164L143.035 71.5667L148.023 59.8281L181.621 81.4419L185.156 73.1236L144.484 46.9597L135.962 67.0164Z" fill="#272948" fill-opacity="0.24"/>
<path d="M182.314 84.0965L148.715 62.4828L143.727 74.2213L133.795 67.8323L143.792 44.3056L187.323 72.3084L182.314 84.0965ZM147.331 57.1741L180.93 78.7878L182.99 73.9396L145.176 49.6143L138.128 66.2011L142.343 68.9125L147.331 57.1741Z" fill="#272948" fill-opacity="0.24"/>
<path d="M125.75 241.818L132.823 246.368L137.811 234.629L171.41 256.243L174.944 247.925L134.272 221.761L125.75 241.818Z" fill="#272948" fill-opacity="0.24"/>
<path d="M172.102 258.898L138.503 237.284L133.515 249.023L123.583 242.634L133.58 219.107L177.111 247.11L172.102 258.898ZM137.119 231.975L170.718 253.589L172.778 248.741L134.964 224.416L127.916 241.002L132.131 243.714L137.119 231.975Z" fill="#272948" fill-opacity="0.24"/>
<path d="M131.713 153.338L138.786 157.888L143.774 146.149L177.372 167.763L180.907 159.445L140.235 133.281L131.713 153.338Z" fill="#272948" fill-opacity="0.24"/>
<path d="M178.065 170.418L144.466 148.804L139.478 160.542L129.546 154.153L139.543 130.627L183.074 158.63L178.065 170.418ZM143.082 143.495L176.681 165.109L178.741 160.261L140.927 135.935L133.879 152.522L138.094 155.234L143.082 143.495Z" fill="#272948" fill-opacity="0.24"/>
<path d="M121.501 328.14L128.574 332.69L133.562 320.951L167.16 342.565L170.695 334.247L130.023 308.083L121.501 328.14Z" fill="#272948" fill-opacity="0.24"/>
<path d="M167.853 345.22L134.254 323.606L129.266 335.345L119.334 328.956L129.331 305.429L172.862 333.432L167.853 345.22ZM132.87 318.297L166.469 339.911L168.529 335.063L130.715 310.738L123.667 327.324L127.882 330.036L132.87 318.297Z" fill="#272948" fill-opacity="0.24"/>
<path d="M265.192 63.7667L272.265 68.3169L277.253 56.5783L310.852 78.1922L314.387 69.8738L273.714 43.71L265.192 63.7667Z" fill="#272948" fill-opacity="0.24"/>
<path d="M311.544 80.8467L277.946 59.233L272.958 70.9716L263.026 64.5825L273.023 41.0559L316.553 69.0586L311.544 80.8467ZM276.562 53.9244L310.16 75.538L312.22 70.6898L274.407 46.3646L267.359 62.9514L271.574 65.6627L276.562 53.9244Z" fill="#272948" fill-opacity="0.24"/>
<path d="M254.981 238.568L262.055 243.118L267.042 231.38L300.641 252.993L304.176 244.675L263.503 218.511L254.981 238.568Z" fill="#272948" fill-opacity="0.24"/>
<path d="M301.333 255.648L267.735 234.034L262.747 245.773L252.815 239.384L262.812 215.857L306.342 243.86L301.333 255.648ZM266.351 228.726L299.949 250.339L302.009 245.491L264.196 221.166L257.148 237.753L261.363 240.464L266.351 228.726Z" fill="#272948" fill-opacity="0.24"/>
<path d="M260.943 150.088L268.016 154.638L273.004 142.9L306.603 164.513L310.138 156.195L269.465 130.031L260.943 150.088Z" fill="#272948" fill-opacity="0.24"/>
<path d="M307.295 167.168L273.697 145.554L268.709 157.293L258.777 150.904L268.774 127.377L312.304 155.38L307.295 167.168ZM272.312 140.246L305.911 161.859L307.971 157.011L270.158 132.686L263.11 149.273L267.325 151.984L272.312 140.246Z" fill="#272948" fill-opacity="0.24"/>
<path d="M250.732 324.889L257.806 329.439L262.793 317.701L296.392 339.314L299.927 330.996L259.254 304.832L250.732 324.889Z" fill="#272948" fill-opacity="0.24"/>
<path d="M297.084 341.969L263.486 320.355L258.498 332.094L248.566 325.705L258.563 302.178L302.093 330.181L297.084 341.969ZM262.102 315.047L295.7 336.66L297.76 331.812L259.947 307.487L252.899 324.074L257.114 326.785L262.102 315.047Z" fill="#272948" fill-opacity="0.24"/>
<path d="M92.8766 67.8901L99.95 72.4403L104.938 60.7018L138.536 82.3156L142.071 73.9973L101.399 47.8334L92.8766 67.8901Z" fill="#272948" fill-opacity="0.24"/>
<path d="M139.229 84.9701L105.63 63.3564L100.642 75.095L90.7102 68.7059L100.707 45.1793L144.238 73.182L139.229 84.9701ZM104.246 58.0478L137.845 79.6615L139.905 74.8132L102.091 50.488L95.0434 67.0748L99.2582 69.7861L104.246 58.0478Z" fill="#272948" fill-opacity="0.24"/>
<path d="M82.6647 242.691L89.7381 247.241L94.726 235.503L128.325 257.117L131.859 248.798L91.1871 222.635L82.6647 242.691Z" fill="#272948" fill-opacity="0.24"/>
<path d="M129.017 259.771L95.4182 238.158L90.4303 249.896L80.4983 243.507L90.4954 219.98L134.026 247.983L129.017 259.771ZM94.0342 232.849L127.633 254.463L129.693 249.614L91.8795 225.289L84.8315 241.876L89.0463 244.587L94.0342 232.849Z" fill="#272948" fill-opacity="0.24"/>
<path d="M88.6276 154.211L95.701 158.762L100.689 147.023L134.287 168.637L137.822 160.318L97.1499 134.155L88.6276 154.211Z" fill="#272948" fill-opacity="0.24"/>
<path d="M134.98 171.291L101.381 149.678L96.3932 161.416L86.4612 155.027L96.4583 131.5L139.989 159.503L134.98 171.291ZM99.9971 144.369L133.596 165.983L135.656 161.134L97.8424 136.809L90.7944 153.396L95.0092 156.107L99.9971 144.369Z" fill="#272948" fill-opacity="0.24"/>
<path d="M78.4156 329.013L85.4891 333.563L90.477 321.824L124.076 343.438L127.61 335.12L86.938 308.956L78.4156 329.013Z" fill="#272948" fill-opacity="0.24"/>
<path d="M124.768 346.093L91.1692 324.479L86.1813 336.217L76.2493 329.828L86.2464 306.302L129.777 334.304L124.768 346.093ZM89.7852 319.17L123.384 340.784L125.444 335.936L87.6305 311.61L80.5825 328.197L84.7973 330.909L89.7852 319.17Z" fill="#272948" fill-opacity="0.24"/>
<path d="M6.70666 69.6389L13.7801 74.1891L18.768 62.4505L52.3665 84.0644L55.9013 75.746L15.229 49.5822L6.70666 69.6389Z" fill="#272948" fill-opacity="0.24"/>
<path d="M53.059 86.7189L19.4602 65.1052L14.4723 76.8438L4.54032 70.4547L14.5374 46.9281L58.0678 74.9308L53.059 86.7189ZM18.0762 59.7965L51.6749 81.4102L53.7351 76.562L15.9215 52.2367L8.87348 68.8235L13.0883 71.5349L18.0762 59.7965Z" fill="#272948" fill-opacity="0.24"/>
<path d="M-3.50525 244.441L3.56821 248.991L8.55606 237.253L42.1546 258.867L45.6893 250.548L5.01713 224.385L-3.50525 244.441Z" fill="#272948" fill-opacity="0.24"/>
<path d="M42.8471 261.521L9.24832 239.908L4.26039 251.646L-5.6716 245.257L4.32548 221.73L47.8559 249.733L42.8471 261.521ZM7.86425 234.599L41.463 256.213L43.5231 251.364L5.70961 227.039L-1.33843 243.626L2.87639 246.337L7.86425 234.599Z" fill="#272948" fill-opacity="0.24"/>
<path d="M10.9674 -16.6823L18.0409 -12.132L23.0287 -23.8706L56.6273 -2.2568L60.162 -10.5751L19.4898 -36.739L10.9674 -16.6823Z" fill="#272948" fill-opacity="0.24"/>
<path d="M57.3197 0.397743L23.721 -21.216L18.733 -9.47741L8.80106 -15.8665L18.7981 -39.3931L62.3285 -11.3904L57.3197 0.397743ZM22.3369 -26.5246L55.9356 -4.91093L57.9958 -9.75915L20.1823 -34.0844L13.1342 -17.4976L17.349 -14.7863L22.3369 -26.5246Z" fill="#272948" fill-opacity="0.24"/>
<path d="M2.45764 155.96L9.5311 160.51L14.519 148.772L48.1175 170.386L51.6522 162.067L10.98 135.903L2.45764 155.96Z" fill="#272948" fill-opacity="0.24"/>
<path d="M48.81 173.04L15.2112 151.426L10.2233 163.165L0.291296 156.776L10.2884 133.249L53.8188 161.252L48.81 173.04ZM13.8271 146.118L47.4259 167.731L49.486 162.883L11.6725 138.558L4.62446 155.145L8.83928 157.856L13.8271 146.118Z" fill="#272948" fill-opacity="0.24"/>
<path d="M-7.75427 330.763L-0.680814 335.313L4.30704 323.574L37.9056 345.188L41.4403 336.87L0.768108 310.706L-7.75427 330.763Z" fill="#272948" fill-opacity="0.24"/>
<path d="M38.598 347.843L4.9993 326.229L0.0113643 337.967L-9.92062 331.578L0.0764518 308.052L43.6069 336.054L38.598 347.843ZM3.61523 320.92L37.214 342.534L39.2741 337.686L1.46059 313.36L-5.58745 329.947L-1.37263 332.659L3.61523 320.92Z" fill="#272948" fill-opacity="0.24"/>
<path d="M351.362 62.0179L358.435 66.5681L363.423 54.8296L397.022 76.4434L400.557 68.1251L359.884 41.9612L351.362 62.0179Z" fill="#272948" fill-opacity="0.24"/>
<path d="M397.714 79.0979L364.116 57.4842L359.128 69.2228L349.196 62.8337L359.193 39.3071L402.723 67.3098L397.714 79.0979ZM362.731 52.1756L396.33 73.7893L398.39 68.941L360.577 44.6158L353.529 61.2026L357.744 63.9139L362.731 52.1756Z" fill="#272948" fill-opacity="0.24"/>
<path d="M341.151 236.82L348.224 241.371L353.212 229.632L386.811 251.246L390.346 242.928L349.673 216.764L341.151 236.82Z" fill="#272948" fill-opacity="0.24"/>
<path d="M387.503 253.9L353.905 232.287L348.917 244.025L338.985 237.636L348.982 214.11L392.512 242.112L387.503 253.9ZM352.521 226.978L386.119 248.592L388.179 243.744L350.366 219.418L343.318 236.005L347.533 238.716L352.521 226.978Z" fill="#272948" fill-opacity="0.24"/>
<path d="M347.114 148.34L354.187 152.891L359.175 141.152L392.774 162.766L396.308 154.448L355.636 128.284L347.114 148.34Z" fill="#272948" fill-opacity="0.24"/>
<path d="M393.466 165.42L359.867 143.807L354.88 155.545L344.948 149.156L354.945 125.63L398.475 153.632L393.466 165.42ZM358.483 138.498L392.082 160.112L394.142 155.264L356.329 130.938L349.281 147.525L353.496 150.236L358.483 138.498Z" fill="#272948" fill-opacity="0.24"/>
<path d="M336.902 323.142L343.975 327.692L348.963 315.953L382.562 337.567L386.097 329.249L345.424 303.085L336.902 323.142Z" fill="#272948" fill-opacity="0.24"/>
<path d="M383.254 340.222L349.656 318.608L344.668 330.347L334.736 323.958L344.733 300.431L388.263 328.434L383.254 340.222ZM348.271 313.299L381.87 334.913L383.93 330.065L346.117 305.74L339.069 322.326L343.284 325.038L348.271 313.299Z" fill="#272948" fill-opacity="0.24"/>
<path d="M179.047 66.1414L186.12 70.6917L191.108 58.9531L224.706 80.5669L228.241 72.2486L187.569 46.0847L179.047 66.1414Z" fill="#272948" fill-opacity="0.24"/>
<path d="M225.399 83.2215L191.8 61.6078L186.812 73.3463L176.88 66.9573L186.877 43.4306L230.408 71.4334L225.399 83.2215ZM190.416 56.2991L224.015 77.9128L226.075 73.0646L188.261 48.7393L181.213 65.3261L185.428 68.0375L190.416 56.2991Z" fill="#272948" fill-opacity="0.24"/>
<path d="M168.835 240.943L175.908 245.493L180.896 233.754L214.494 255.368L218.029 247.05L177.357 220.886L168.835 240.943Z" fill="#272948" fill-opacity="0.24"/>
<path d="M215.187 258.023L181.588 236.409L176.6 248.148L166.668 241.759L176.665 218.232L220.196 246.235L215.187 258.023ZM180.204 231.1L213.803 252.714L215.863 247.866L178.049 223.541L171.001 240.127L175.216 242.839L180.204 231.1Z" fill="#272948" fill-opacity="0.24"/>
<path d="M174.797 152.463L181.871 157.013L186.859 145.274L220.457 166.888L223.992 158.57L183.32 132.406L174.797 152.463Z" fill="#272948" fill-opacity="0.24"/>
<path d="M221.15 169.543L187.551 147.929L182.563 159.667L172.631 153.278L182.628 129.752L226.159 157.755L221.15 169.543ZM186.167 142.62L219.766 164.234L221.826 159.386L184.012 135.06L176.964 151.647L181.179 154.359L186.167 142.62Z" fill="#272948" fill-opacity="0.24"/>
<path d="M164.587 327.265L171.66 331.815L176.648 320.077L210.246 341.691L213.781 333.372L173.109 307.208L164.587 327.265Z" fill="#272948" fill-opacity="0.24"/>
<path d="M210.939 344.345L177.34 322.731L172.352 334.47L162.42 328.081L172.417 304.554L215.948 332.557L210.939 344.345ZM175.956 317.423L209.555 339.036L211.615 334.188L173.801 309.863L166.753 326.45L170.968 329.161L175.956 317.423Z" fill="#272948" fill-opacity="0.24"/>
</mask>
<g mask="url(#mask0_12143_9428)">
<rect x="-99.5107" y="-0.776001" width="864.466" height="310.434" rx="29" fill="#272948" fill-opacity="0.24"/>
</g>
<g clip-path="url(#clip1_12143_9428)">
<path d="M284.69 184.597H110.95C107.127 184.597 104 181.47 104 177.647V135.95C104 132.127 107.127 129 110.95 129H284.69C288.512 129 291.64 132.127 291.64 135.95V177.647C291.64 181.47 288.512 184.597 284.69 184.597Z" fill="black"/>
<path d="M284.69 130.112C287.915 130.112 290.528 132.725 290.528 135.95V177.647C290.528 180.872 287.915 183.485 284.69 183.485H110.95C107.725 183.485 105.112 180.872 105.112 177.647V135.95C105.112 132.725 107.725 130.112 110.95 130.112H284.69ZM284.69 129H110.95C107.127 129 104 132.127 104 135.95V177.647C104 181.47 107.127 184.597 110.95 184.597H284.69C288.512 184.597 291.64 181.47 291.64 177.647V135.95C291.64 132.127 288.512 129 284.69 129Z" fill="#A6A6A6"/>
<path d="M149.089 157.424C149.047 153.602 152.216 151.739 152.369 151.656C150.576 149.043 147.796 148.681 146.823 148.654C144.488 148.403 142.223 150.044 141.041 150.044C139.832 150.044 137.997 148.668 136.024 148.709C133.48 148.751 131.103 150.224 129.811 152.504C127.128 157.16 129.13 163.998 131.701 167.765C132.994 169.614 134.495 171.671 136.468 171.587C138.4 171.504 139.123 170.364 141.444 170.364C143.752 170.364 144.419 171.587 146.434 171.546C148.505 171.518 149.812 169.697 151.049 167.835C152.536 165.722 153.134 163.637 153.161 163.54C153.092 163.512 149.131 161.997 149.089 157.424Z" fill="white"/>
<path d="M145.294 146.18C146.336 144.887 147.045 143.122 146.837 141.329C145.336 141.398 143.459 142.371 142.375 143.636C141.416 144.748 140.568 146.583 140.791 148.306C142.473 148.431 144.21 147.445 145.294 146.18Z" fill="white"/>
<path d="M173.454 166.918H166.88L165.295 171.588H162.516L168.742 154.325H171.634L177.86 171.588H175.025L173.454 166.918ZM167.561 164.777H172.773L170.202 157.202H170.132L167.561 164.777Z" fill="white"/>
<path d="M191.329 165.291C191.329 169.197 189.23 171.713 186.075 171.713C184.282 171.713 182.864 170.907 182.114 169.517H182.058V175.743H179.473V159.009H181.975V161.108H182.016C182.739 159.759 184.268 158.884 186.019 158.884C189.216 158.87 191.329 161.399 191.329 165.291ZM188.674 165.291C188.674 162.748 187.354 161.066 185.352 161.066C183.378 161.066 182.044 162.776 182.044 165.291C182.044 167.821 183.378 169.531 185.352 169.531C187.354 169.531 188.674 167.863 188.674 165.291Z" fill="white"/>
<path d="M205.172 165.291C205.172 169.197 203.074 171.712 199.919 171.712C198.126 171.712 196.708 170.906 195.957 169.516H195.902V175.743H193.316V159.009H195.818V161.107H195.86C196.583 159.759 198.112 158.883 199.863 158.883C203.074 158.87 205.172 161.399 205.172 165.291ZM202.518 165.291C202.518 162.747 201.197 161.066 199.196 161.066C197.222 161.066 195.888 162.775 195.888 165.291C195.888 167.821 197.222 169.53 199.196 169.53C201.211 169.53 202.518 167.862 202.518 165.291Z" fill="white"/>
<path d="M214.332 166.779C214.527 168.488 216.181 169.614 218.46 169.614C220.643 169.614 222.199 168.488 222.199 166.945C222.199 165.611 221.254 164.805 219.016 164.249L216.779 163.707C213.609 162.942 212.136 161.455 212.136 159.051C212.136 156.076 214.735 154.033 218.419 154.033C222.06 154.033 224.562 156.076 224.645 159.051H222.032C221.88 157.327 220.448 156.285 218.377 156.285C216.306 156.285 214.874 157.341 214.874 158.87C214.874 160.093 215.778 160.802 218.002 161.358L219.906 161.831C223.45 162.665 224.923 164.096 224.923 166.612C224.923 169.837 222.352 171.866 218.266 171.866C214.443 171.866 211.858 169.892 211.691 166.765L214.332 166.779Z" fill="white"/>
<path d="M230.497 156.02V158.995H232.888V161.038H230.497V167.974C230.497 169.058 230.97 169.558 232.026 169.558C232.29 169.558 232.707 169.517 232.874 169.503V171.532C232.582 171.601 232.012 171.657 231.442 171.657C228.899 171.657 227.898 170.698 227.898 168.266V161.052H226.063V159.009H227.898V156.034L230.497 156.02Z" fill="white"/>
<path d="M234.277 165.291C234.277 161.33 236.612 158.842 240.24 158.842C243.882 158.842 246.203 161.33 246.203 165.291C246.203 169.266 243.896 171.74 240.24 171.74C236.585 171.74 234.277 169.266 234.277 165.291ZM243.59 165.291C243.59 162.581 242.339 160.968 240.254 160.968C238.169 160.968 236.918 162.581 236.918 165.291C236.918 168.015 238.155 169.614 240.254 169.614C242.353 169.614 243.59 168.029 243.59 165.291Z" fill="white"/>
<path d="M248.344 159.009H250.804V161.149H250.86C251.249 159.732 252.402 158.87 253.89 158.87C254.265 158.87 254.571 158.926 254.779 158.967V161.386C254.571 161.302 254.126 161.233 253.625 161.233C251.958 161.233 250.929 162.359 250.929 164.124V171.588H248.344V159.009Z" fill="white"/>
<path d="M266.69 167.89C266.342 170.17 264.118 171.74 261.269 171.74C257.613 171.74 255.334 169.294 255.334 165.347C255.334 161.399 257.613 158.842 261.158 158.842C264.633 158.842 266.829 161.232 266.829 165.055V165.944H257.947V166.097C257.947 168.251 259.295 169.655 261.338 169.655C262.77 169.655 263.896 168.974 264.243 167.89H266.69ZM257.961 164.137H264.257C264.202 162.205 262.965 160.94 261.172 160.94C259.379 160.94 258.086 162.233 257.961 164.137Z" fill="white"/>
<path d="M167.228 141.343C169.688 141.343 171.133 142.858 171.133 145.457C171.133 148.112 169.702 149.627 167.228 149.627H164.226V141.343H167.228ZM165.532 148.459H167.089C168.826 148.459 169.827 147.375 169.827 145.471C169.827 143.594 168.812 142.51 167.089 142.51H165.532V148.459Z" fill="white"/>
<path d="M172.593 146.499C172.593 144.484 173.719 143.247 175.539 143.247C177.36 143.247 178.486 144.47 178.486 146.499C178.486 148.529 177.36 149.752 175.539 149.752C173.719 149.752 172.593 148.529 172.593 146.499ZM177.221 146.499C177.221 145.137 176.61 144.345 175.539 144.345C174.469 144.345 173.858 145.137 173.858 146.499C173.858 147.862 174.455 148.654 175.539 148.654C176.61 148.654 177.221 147.862 177.221 146.499Z" fill="white"/>
<path d="M186.339 149.627H185.061L183.768 145.012H183.671L182.378 149.627H181.113L179.39 143.372H180.641L181.766 148.153H181.864L183.156 143.372H184.338L185.63 148.153H185.728L186.84 143.372H188.077L186.339 149.627Z" fill="white"/>
<path d="M189.508 143.372H190.703V144.373H190.8C191.106 143.678 191.732 143.261 192.663 143.261C194.053 143.261 194.831 144.095 194.831 145.582V149.64H193.594V145.902C193.594 144.901 193.163 144.4 192.246 144.4C191.329 144.4 190.745 145.012 190.745 145.985V149.64H189.508V143.372Z" fill="white"/>
<path d="M196.792 140.926H198.029V149.627H196.792V140.926Z" fill="white"/>
<path d="M199.752 146.499C199.752 144.484 200.878 143.247 202.699 143.247C204.519 143.247 205.645 144.47 205.645 146.499C205.645 148.529 204.519 149.752 202.699 149.752C200.864 149.752 199.752 148.529 199.752 146.499ZM204.38 146.499C204.38 145.137 203.769 144.345 202.699 144.345C201.628 144.345 201.017 145.137 201.017 146.499C201.017 147.862 201.614 148.654 202.699 148.654C203.769 148.654 204.38 147.862 204.38 146.499Z" fill="white"/>
<path d="M206.952 147.861C206.952 146.736 207.786 146.082 209.273 145.999L210.969 145.902V145.36C210.969 144.692 210.538 144.331 209.69 144.331C208.995 144.331 208.523 144.581 208.384 145.026H207.188C207.314 143.956 208.328 143.261 209.746 143.261C211.317 143.261 212.206 144.039 212.206 145.36V149.64H211.011V148.765H210.913C210.538 149.39 209.857 149.752 209.037 149.752C207.828 149.738 206.952 149.001 206.952 147.861ZM210.969 147.319V146.791L209.44 146.888C208.578 146.944 208.189 147.236 208.189 147.792C208.189 148.362 208.676 148.681 209.343 148.681C210.288 148.695 210.969 148.098 210.969 147.319Z" fill="white"/>
<path d="M213.832 146.499C213.832 144.526 214.847 143.275 216.431 143.275C217.293 143.275 218.016 143.678 218.349 144.373H218.447V140.926H219.684V149.627H218.502V148.64H218.391C218.016 149.321 217.293 149.738 216.431 149.738C214.833 149.738 213.832 148.487 213.832 146.499ZM215.097 146.499C215.097 147.834 215.722 148.626 216.765 148.626C217.807 148.626 218.447 147.82 218.447 146.499C218.447 145.193 217.793 144.373 216.765 144.373C215.736 144.373 215.097 145.179 215.097 146.499Z" fill="white"/>
<path d="M224.784 146.499C224.784 144.484 225.91 143.247 227.731 143.247C229.552 143.247 230.677 144.47 230.677 146.499C230.677 148.529 229.552 149.752 227.731 149.752C225.896 149.752 224.784 148.529 224.784 146.499ZM229.413 146.499C229.413 145.137 228.801 144.345 227.731 144.345C226.661 144.345 226.049 145.137 226.049 146.499C226.049 147.862 226.647 148.654 227.731 148.654C228.801 148.654 229.413 147.862 229.413 146.499Z" fill="white"/>
<path d="M232.346 143.372H233.541V144.373H233.638C233.944 143.678 234.57 143.261 235.501 143.261C236.891 143.261 237.669 144.095 237.669 145.582V149.64H236.432V145.902C236.432 144.901 236.001 144.4 235.084 144.4C234.167 144.4 233.583 145.012 233.583 145.985V149.64H232.346V143.372Z" fill="white"/>
<path d="M244.632 141.815V143.4H245.994V144.442H244.632V147.667C244.632 148.32 244.896 148.612 245.521 148.612C245.716 148.612 245.813 148.598 245.994 148.584V149.613C245.799 149.641 245.563 149.682 245.327 149.682C243.951 149.682 243.409 149.196 243.409 147.987V144.456H242.422V143.414H243.409V141.815H244.632Z" fill="white"/>
<path d="M247.677 140.926H248.9V144.373H248.997C249.303 143.678 249.956 143.247 250.901 143.247C252.236 143.247 253.056 144.095 253.056 145.582V149.627H251.819V145.888C251.819 144.887 251.36 144.387 250.484 144.387C249.47 144.387 248.914 145.026 248.914 145.971V149.627H247.677V140.926Z" fill="white"/>
<path d="M260.269 147.945C259.991 149.071 258.991 149.752 257.559 149.752C255.766 149.752 254.668 148.529 254.668 146.527C254.668 144.526 255.794 143.261 257.559 143.261C259.296 143.261 260.353 144.456 260.353 146.416V146.847H255.933V146.916C255.974 148.014 256.614 148.709 257.601 148.709C258.351 148.709 258.866 148.445 259.088 147.945H260.269ZM255.919 145.929H259.074C259.046 144.943 258.449 144.303 257.531 144.303C256.628 144.303 255.988 144.943 255.919 145.929Z" fill="white"/>
</g>
<g clip-path="url(#clip2_12143_9428)">
<path d="M286 209H111C107.134 209 104 212.134 104 216V258C104 261.866 107.134 265 111 265H286C289.866 265 293 261.866 293 258V216C293 212.134 289.866 209 286 209Z" fill="black"/>
<path d="M286 210.12C289.248 210.12 291.88 212.752 291.88 216V258C291.88 261.248 289.248 263.88 286 263.88H111C107.752 263.88 105.12 261.248 105.12 258V216C105.12 212.752 107.752 210.12 111 210.12H286ZM286 209H111C107.15 209 104 212.15 104 216V258C104 261.85 107.15 265 111 265H286C289.85 265 293 261.85 293 258V216C293 212.15 289.85 209 286 209Z" fill="#A6A6A6"/>
<path d="M168.372 226.85C167.91 227.018 167.014 227.284 165.95 227.284C164.76 227.284 163.766 226.976 162.996 226.234C162.31 225.576 161.89 224.526 161.89 223.294C161.89 220.942 163.514 219.206 166.174 219.206C167.084 219.206 167.798 219.402 168.148 219.57L167.896 220.396C167.476 220.214 166.944 220.06 166.146 220.06C164.228 220.06 162.968 221.25 162.968 223.238C162.968 225.226 164.172 226.43 166.02 226.43C166.692 226.43 167.14 226.332 167.378 226.22V223.868H165.768V223.042H168.372V226.836V226.85Z" fill="white" stroke="white" stroke-width="0.282927" stroke-miterlimit="10"/>
<path d="M174.252 223.49H171.172V226.346H174.602V227.2H170.164V219.29H174.434V220.144H171.186V222.636H174.266V223.476L174.252 223.49Z" fill="white" stroke="white" stroke-width="0.282927" stroke-miterlimit="10"/>
<path d="M177.864 220.158H175.456V219.29H181.308V220.158H178.886V227.2H177.85V220.158H177.864Z" fill="white" stroke="white" stroke-width="0.282927" stroke-miterlimit="10"/>
<path d="M186.166 219.29V227.2H185.144V219.29H186.166Z" fill="white" stroke="white" stroke-width="0.282927" stroke-miterlimit="10"/>
<path d="M189.679 220.158H187.271V219.29H193.123V220.158H190.701V227.2H189.665V220.158H189.679Z" fill="white" stroke="white" stroke-width="0.282927" stroke-miterlimit="10"/>
<path d="M203.722 223.168C203.722 225.884 202.07 227.326 200.054 227.326C198.038 227.326 196.498 225.702 196.498 223.322C196.498 220.816 198.052 219.164 200.166 219.164C202.28 219.164 203.722 220.816 203.722 223.168ZM197.59 223.294C197.59 224.988 198.5 226.5 200.11 226.5C201.72 226.5 202.644 225.016 202.644 223.21C202.644 221.642 201.818 219.99 200.124 219.99C198.43 219.99 197.59 221.544 197.59 223.28V223.294Z" fill="white" stroke="white" stroke-width="0.282927" stroke-miterlimit="10"/>
<path d="M205.29 227.2V219.29H206.41L208.944 223.294C209.532 224.218 209.994 225.058 210.358 225.856H210.386C210.288 224.792 210.274 223.826 210.274 222.594V219.29H211.24V227.2H210.204L207.698 223.182C207.152 222.3 206.62 221.404 206.214 220.55H206.172C206.228 221.558 206.256 222.51 206.256 223.826V227.2H205.29Z" fill="white" stroke="white" stroke-width="0.282927" stroke-miterlimit="10"/>
<path d="M199.396 239.45C196.106 239.45 193.418 241.956 193.418 245.4C193.418 248.844 196.106 251.35 199.396 251.35C202.686 251.35 205.374 248.83 205.374 245.4C205.374 241.97 202.686 239.45 199.396 239.45ZM199.396 249.012C197.59 249.012 196.036 247.528 196.036 245.4C196.036 243.272 197.59 241.788 199.396 241.788C201.202 241.788 202.756 243.258 202.756 245.4C202.756 247.542 201.202 249.012 199.396 249.012ZM186.362 239.45C183.072 239.45 180.384 241.956 180.384 245.4C180.384 248.844 183.072 251.35 186.362 251.35C189.652 251.35 192.34 248.83 192.34 245.4C192.34 241.97 189.652 239.45 186.362 239.45ZM186.362 249.012C184.556 249.012 183.002 247.528 183.002 245.4C183.002 243.272 184.556 241.788 186.362 241.788C188.168 241.788 189.722 243.258 189.722 245.4C189.722 247.542 188.168 249.012 186.362 249.012ZM170.85 241.27V243.79H176.898C176.716 245.204 176.24 246.254 175.526 246.968C174.644 247.85 173.272 248.816 170.864 248.816C167.14 248.816 164.228 245.82 164.228 242.096C164.228 238.372 167.14 235.376 170.864 235.376C172.866 235.376 174.336 236.16 175.414 237.182L177.192 235.404C175.68 233.962 173.678 232.856 170.85 232.856C165.754 232.856 161.47 237 161.47 242.11C161.47 247.22 165.754 251.364 170.85 251.364C173.608 251.364 175.68 250.468 177.304 248.774C178.97 247.108 179.488 244.756 179.488 242.866C179.488 242.278 179.446 241.732 179.348 241.284H170.85V241.27ZM234.284 243.23C233.794 241.9 232.282 239.436 229.188 239.436C226.094 239.436 223.574 241.844 223.574 245.386C223.574 248.718 226.094 251.336 229.482 251.336C232.212 251.336 233.794 249.67 234.438 248.704L232.408 247.346C231.736 248.34 230.812 248.998 229.482 248.998C228.152 248.998 227.2 248.396 226.598 247.192L234.564 243.902L234.298 243.23H234.284ZM226.164 245.218C226.094 242.922 227.942 241.746 229.272 241.746C230.308 241.746 231.19 242.264 231.484 243.006L226.164 245.218ZM219.696 250.986H222.314V233.486H219.696V250.986ZM215.412 240.766H215.328C214.74 240.066 213.62 239.436 212.192 239.436C209.21 239.436 206.48 242.054 206.48 245.414C206.48 248.774 209.21 251.35 212.192 251.35C213.606 251.35 214.74 250.72 215.328 249.992H215.412V250.846C215.412 253.128 214.194 254.346 212.234 254.346C210.638 254.346 209.644 253.198 209.238 252.232L206.956 253.184C207.614 254.766 209.35 256.698 212.234 256.698C215.3 256.698 217.89 254.892 217.89 250.496V239.8H215.412V240.766ZM212.416 248.998C210.61 248.998 209.098 247.486 209.098 245.414C209.098 243.342 210.61 241.788 212.416 241.788C214.222 241.788 215.594 243.328 215.594 245.414C215.594 247.5 214.194 248.998 212.416 248.998ZM246.548 233.486H240.29V250.986H242.908V244.35H246.562C249.46 244.35 252.302 242.25 252.302 238.918C252.302 235.586 249.46 233.486 246.562 233.486H246.548ZM246.618 241.928H242.908V235.922H246.618C248.578 235.922 249.684 237.546 249.684 238.918C249.684 240.29 248.578 241.914 246.618 241.914V241.928ZM262.76 239.408C260.87 239.408 258.91 240.248 258.098 242.082L260.422 243.048C260.912 242.082 261.836 241.76 262.802 241.76C264.146 241.76 265.532 242.572 265.546 244.014V244.196C265.07 243.93 264.062 243.524 262.816 243.524C260.31 243.524 257.776 244.896 257.776 247.458C257.776 249.796 259.82 251.308 262.116 251.308C263.866 251.308 264.846 250.524 265.448 249.6H265.532V250.944H268.052V244.238C268.052 241.13 265.728 239.394 262.732 239.394L262.76 239.408ZM262.438 248.998C261.584 248.998 260.394 248.564 260.394 247.514C260.394 246.17 261.878 245.652 263.166 245.652C264.314 245.652 264.86 245.904 265.546 246.24C265.35 247.864 263.95 249.012 262.438 249.012V248.998ZM277.25 239.786L274.254 247.374H274.17L271.062 239.786H268.248L272.91 250.398L270.25 256.292H272.98L280.162 239.786H277.264H277.25ZM253.716 250.986H256.334V233.486H253.716V250.986Z" fill="white"/>
<path d="M133.009 236.188L118.099 252.008C118.561 253.73 120.129 254.99 121.991 254.99C122.733 254.99 123.433 254.794 124.035 254.43L124.077 254.402L140.849 244.728L132.995 236.174L133.009 236.188Z" fill="#EA4335"/>
<path d="M148.086 233.5H148.072L140.834 229.286L132.672 236.552L140.862 244.742L148.072 240.584C149.332 239.898 150.186 238.568 150.186 237.042C150.186 235.516 149.346 234.186 148.086 233.514V233.5Z" fill="#FBBC04"/>
<path d="M118.098 221.992C118.014 222.328 117.958 222.664 117.958 223.028V250.986C117.958 251.35 118 251.686 118.098 252.022L133.512 236.608L118.098 221.992Z" fill="#4285F4"/>
<path d="M133.121 237L140.835 229.286L124.077 219.57C123.475 219.206 122.761 218.996 121.991 218.996C120.129 218.996 118.561 220.27 118.099 221.978L133.121 236.986V237Z" fill="#34A853"/>
</g>
<path d="M68.8889 61H58.7129V44.992H62.1209V58H68.8889V61ZM76.3936 61.288C72.8656 61.288 70.2016 58.912 70.2016 55.192C70.2016 51.832 72.6736 49.12 76.2016 49.12C79.6576 49.12 82.0096 51.712 82.0096 55.504V56.176H73.3936C73.5856 57.64 74.7616 58.864 76.7296 58.864C77.7136 58.864 79.0816 58.432 79.8256 57.712L81.1696 59.68C80.0176 60.736 78.1936 61.288 76.3936 61.288ZM79.0576 54.112C78.9856 53.008 78.2176 51.544 76.2016 51.544C74.3056 51.544 73.4896 52.96 73.3456 54.112H79.0576ZM88.0992 61.288C85.9632 61.288 84.8112 60.184 84.8112 58.12V52.072H82.8912V49.408H84.8112V46.24H87.8832V49.408H90.2352V52.072H87.8832V57.304C87.8832 58.024 88.2672 58.576 88.9392 58.576C89.3952 58.576 89.8272 58.408 89.9952 58.24L90.6432 60.544C90.1872 60.952 89.3712 61.288 88.0992 61.288ZM222.256 61H219.208V53.944C219.208 52.336 218.368 51.832 217.048 51.832C215.872 51.832 214.936 52.504 214.408 53.2V61H211.36V44.992H214.408V50.92C215.152 50.032 216.592 49.12 218.488 49.12C221.032 49.12 222.256 50.512 222.256 52.768V61ZM235.29 61H232.242V59.8C231.45 60.736 230.082 61.288 228.57 61.288C226.722 61.288 224.538 60.04 224.538 57.448C224.538 54.736 226.722 53.704 228.57 53.704C230.106 53.704 231.474 54.208 232.242 55.12V53.56C232.242 52.384 231.234 51.616 229.698 51.616C228.45 51.616 227.298 52.072 226.314 52.984L225.162 50.944C226.578 49.696 228.402 49.12 230.226 49.12C232.866 49.12 235.29 50.176 235.29 53.512V61ZM229.794 59.224C230.778 59.224 231.738 58.888 232.242 58.216V56.776C231.738 56.104 230.778 55.768 229.794 55.768C228.594 55.768 227.61 56.392 227.61 57.52C227.61 58.6 228.594 59.224 229.794 59.224ZM249.185 61H246.137V53.992C246.137 52.384 245.297 51.832 244.001 51.832C242.801 51.832 241.865 52.504 241.361 53.2V61H238.313V49.408H241.361V50.92C242.105 50.032 243.521 49.12 245.417 49.12C247.961 49.12 249.185 50.56 249.185 52.816V61ZM263.251 61H260.179V59.512C259.267 60.664 257.995 61.288 256.603 61.288C253.675 61.288 251.467 59.08 251.467 55.216C251.467 51.424 253.651 49.12 256.603 49.12C257.971 49.12 259.267 49.72 260.179 50.896V44.992H263.251V61ZM257.539 58.576C258.571 58.576 259.675 58.024 260.179 57.256V53.152C259.675 52.384 258.571 51.832 257.539 51.832C255.811 51.832 254.611 53.2 254.611 55.216C254.611 57.208 255.811 58.576 257.539 58.576ZM269.322 61H266.274V44.992H269.322V61ZM277.792 61.288C274.264 61.288 271.6 58.912 271.6 55.192C271.6 51.832 274.072 49.12 277.6 49.12C281.056 49.12 283.408 51.712 283.408 55.504V56.176H274.792C274.984 57.64 276.16 58.864 278.128 58.864C279.112 58.864 280.48 58.432 281.224 57.712L282.568 59.68C281.416 60.736 279.592 61.288 277.792 61.288ZM280.456 54.112C280.384 53.008 279.616 51.544 277.6 51.544C275.704 51.544 274.888 52.96 274.744 54.112H280.456ZM291.342 65.536L291.798 62.8C292.062 62.92 292.47 62.992 292.758 62.992C293.55 62.992 294.078 62.776 294.366 62.152L294.798 61.168L290.094 49.408H293.358L296.382 57.472L299.406 49.408H302.694L297.246 62.896C296.382 65.08 294.846 65.656 292.854 65.704C292.494 65.704 291.726 65.632 291.342 65.536ZM309.431 61.288C305.615 61.288 303.311 58.504 303.311 55.192C303.311 51.904 305.615 49.12 309.431 49.12C313.271 49.12 315.575 51.904 315.575 55.192C315.575 58.504 313.271 61.288 309.431 61.288ZM309.431 58.576C311.327 58.576 312.407 57.016 312.407 55.192C312.407 53.392 311.327 51.832 309.431 51.832C307.535 51.832 306.479 53.392 306.479 55.192C306.479 57.016 307.535 58.576 309.431 58.576ZM328.708 61H325.66V59.536C324.868 60.424 323.476 61.288 321.58 61.288C319.036 61.288 317.836 59.896 317.836 57.64V49.408H320.884V56.44C320.884 58.048 321.724 58.576 323.02 58.576C324.196 58.576 325.132 57.928 325.66 57.256V49.408H328.708V61ZM334.783 61H331.735V49.408H334.783V50.992C335.599 49.96 337.039 49.12 338.479 49.12V52.096C338.263 52.048 337.975 52.024 337.639 52.024C336.631 52.024 335.287 52.6 334.783 53.344V61ZM43.5998 95H40.5278V86.072H38.6078V83.408H40.5278V82.784C40.5278 80.312 42.1118 78.752 44.4398 78.752C45.5438 78.752 46.7198 79.04 47.4638 79.832L46.3118 81.632C45.9998 81.32 45.5918 81.152 45.0398 81.152C44.1998 81.152 43.5998 81.704 43.5998 82.784V83.408H45.9518V86.072H43.5998V95ZM53.0833 95.288C49.2673 95.288 46.9633 92.504 46.9633 89.192C46.9633 85.904 49.2673 83.12 53.0833 83.12C56.9233 83.12 59.2273 85.904 59.2273 89.192C59.2273 92.504 56.9233 95.288 53.0833 95.288ZM53.0833 92.576C54.9793 92.576 56.0593 91.016 56.0593 89.192C56.0593 87.392 54.9793 85.832 53.0833 85.832C51.1873 85.832 50.1313 87.392 50.1313 89.192C50.1313 91.016 51.1873 92.576 53.0833 92.576ZM64.5366 95H61.4886V83.408H64.5366V84.992C65.3526 83.96 66.7926 83.12 68.2326 83.12V86.096C68.0166 86.048 67.7286 86.024 67.3926 86.024C66.3846 86.024 65.0406 86.6 64.5366 87.344V95ZM75.585 95.288C72.057 95.288 69.393 92.912 69.393 89.192C69.393 85.832 71.865 83.12 75.393 83.12C78.849 83.12 81.201 85.712 81.201 89.504V90.176H72.585C72.777 91.64 73.953 92.864 75.921 92.864C76.905 92.864 78.273 92.432 79.017 91.712L80.361 93.68C79.209 94.736 77.385 95.288 75.585 95.288ZM78.249 88.112C78.177 87.008 77.409 85.544 75.393 85.544C73.497 85.544 72.681 86.96 72.537 88.112H78.249ZM84.9146 82.16C83.9306 82.16 83.0906 81.344 83.0906 80.336C83.0906 79.328 83.9306 78.536 84.9146 78.536C85.9226 78.536 86.7386 79.328 86.7386 80.336C86.7386 81.344 85.9226 82.16 84.9146 82.16ZM86.4506 95H83.4026V83.408H86.4506V95ZM94.2249 99.704C92.2329 99.704 90.6969 99.248 89.2329 97.976L90.6009 95.768C91.5369 96.8 92.7609 97.208 94.2249 97.208C95.6889 97.208 97.4169 96.56 97.4169 94.28V93.104C96.5049 94.256 95.2569 94.928 93.8409 94.928C90.9369 94.928 88.7289 92.888 88.7289 89.024C88.7289 85.232 90.9129 83.12 93.8409 83.12C95.2329 83.12 96.4809 83.72 97.4169 84.896V83.408H100.489V94.208C100.489 98.624 97.0809 99.704 94.2249 99.704ZM94.8009 92.216C95.8089 92.216 96.9129 91.64 97.4169 90.896V87.152C96.9129 86.384 95.8089 85.832 94.8009 85.832C93.0729 85.832 91.8729 87.032 91.8729 89.024C91.8729 91.016 93.0729 92.216 94.8009 92.216ZM114.384 95H111.336V87.992C111.336 86.384 110.496 85.832 109.2 85.832C108 85.832 107.064 86.504 106.56 87.2V95H103.512V83.408H106.56V84.92C107.304 84.032 108.72 83.12 110.616 83.12C113.16 83.12 114.384 84.56 114.384 86.816V95ZM128.999 95.288C125.471 95.288 122.807 92.912 122.807 89.192C122.807 85.832 125.279 83.12 128.807 83.12C132.263 83.12 134.615 85.712 134.615 89.504V90.176H125.999C126.191 91.64 127.367 92.864 129.335 92.864C130.319 92.864 131.687 92.432 132.431 91.712L133.775 93.68C132.623 94.736 130.799 95.288 128.999 95.288ZM131.663 88.112C131.591 87.008 130.823 85.544 128.807 85.544C126.911 85.544 126.095 86.96 125.951 88.112H131.663ZM147.401 95H143.993L141.353 91.088L138.689 95H135.305L139.409 89.048L135.545 83.408H138.953L141.353 86.984L143.729 83.408H147.137L143.249 89.048L147.401 95ZM153.49 95.288C149.914 95.288 147.346 92.768 147.346 89.192C147.346 85.64 149.914 83.12 153.49 83.12C155.866 83.12 157.306 84.152 158.074 85.208L156.082 87.08C155.53 86.264 154.69 85.832 153.634 85.832C151.786 85.832 150.49 87.176 150.49 89.192C150.49 91.208 151.786 92.576 153.634 92.576C154.69 92.576 155.53 92.096 156.082 91.328L158.074 93.176C157.306 94.256 155.866 95.288 153.49 95.288ZM170.963 95H167.915V87.944C167.915 86.336 167.075 85.832 165.755 85.832C164.579 85.832 163.643 86.504 163.115 87.2V95H160.067V78.992H163.115V84.92C163.859 84.032 165.299 83.12 167.195 83.12C169.739 83.12 170.963 84.512 170.963 86.768V95ZM183.997 95H180.949V93.8C180.157 94.736 178.789 95.288 177.277 95.288C175.429 95.288 173.245 94.04 173.245 91.448C173.245 88.736 175.429 87.704 177.277 87.704C178.813 87.704 180.181 88.208 180.949 89.12V87.56C180.949 86.384 179.941 85.616 178.405 85.616C177.157 85.616 176.005 86.072 175.021 86.984L173.869 84.944C175.285 83.696 177.109 83.12 178.933 83.12C181.573 83.12 183.997 84.176 183.997 87.512V95ZM178.501 93.224C179.485 93.224 180.445 92.888 180.949 92.216V90.776C180.445 90.104 179.485 89.768 178.501 89.768C177.301 89.768 176.317 90.392 176.317 91.52C176.317 92.6 177.301 93.224 178.501 93.224ZM197.892 95H194.844V87.992C194.844 86.384 194.004 85.832 192.708 85.832C191.508 85.832 190.572 86.504 190.068 87.2V95H187.02V83.408H190.068V84.92C190.812 84.032 192.228 83.12 194.124 83.12C196.668 83.12 197.892 84.56 197.892 86.816V95ZM205.67 99.704C203.678 99.704 202.142 99.248 200.678 97.976L202.046 95.768C202.982 96.8 204.206 97.208 205.67 97.208C207.134 97.208 208.862 96.56 208.862 94.28V93.104C207.95 94.256 206.702 94.928 205.286 94.928C202.382 94.928 200.174 92.888 200.174 89.024C200.174 85.232 202.358 83.12 205.286 83.12C206.678 83.12 207.926 83.72 208.862 84.896V83.408H211.934V94.208C211.934 98.624 208.526 99.704 205.67 99.704ZM206.246 92.216C207.254 92.216 208.358 91.64 208.862 90.896V87.152C208.358 86.384 207.254 85.832 206.246 85.832C204.518 85.832 203.318 87.032 203.318 89.024C203.318 91.016 204.518 92.216 206.246 92.216ZM220.405 95.288C216.877 95.288 214.213 92.912 214.213 89.192C214.213 85.832 216.685 83.12 220.213 83.12C223.669 83.12 226.021 85.712 226.021 89.504V90.176H217.405C217.597 91.64 218.773 92.864 220.741 92.864C221.725 92.864 223.093 92.432 223.837 91.712L225.181 93.68C224.029 94.736 222.205 95.288 220.405 95.288ZM223.069 88.112C222.997 87.008 222.229 85.544 220.213 85.544C218.317 85.544 217.501 86.96 217.357 88.112H223.069ZM231.777 93.824C231.777 95.624 230.769 97.232 229.305 98.288L227.985 97.208C228.753 96.8 229.641 95.792 229.833 94.952C229.761 94.976 229.545 95.024 229.377 95.024C228.465 95.024 227.745 94.328 227.745 93.296C227.745 92.24 228.609 91.376 229.617 91.376C230.745 91.376 231.777 92.264 231.777 93.824ZM244.586 95.288C242.57 95.288 240.626 94.616 239.402 93.488L240.722 91.352C241.562 92.144 243.29 92.936 244.73 92.936C246.05 92.936 246.674 92.408 246.674 91.688C246.674 89.768 239.786 91.328 239.786 86.768C239.786 84.824 241.49 83.12 244.538 83.12C246.506 83.12 248.066 83.792 249.218 84.704L247.994 86.792C247.298 86.048 245.978 85.448 244.562 85.448C243.458 85.448 242.738 85.952 242.738 86.6C242.738 88.328 249.602 86.888 249.602 91.568C249.602 93.68 247.802 95.288 244.586 95.288ZM257.296 95.288C253.768 95.288 251.104 92.912 251.104 89.192C251.104 85.832 253.576 83.12 257.104 83.12C260.56 83.12 262.912 85.712 262.912 89.504V90.176H254.296C254.488 91.64 255.664 92.864 257.632 92.864C258.616 92.864 259.984 92.432 260.728 91.712L262.072 93.68C260.92 94.736 259.096 95.288 257.296 95.288ZM259.96 88.112C259.888 87.008 259.12 85.544 257.104 85.544C255.208 85.544 254.392 86.96 254.248 88.112H259.96ZM275.122 95H272.074V93.8C271.282 94.736 269.914 95.288 268.402 95.288C266.554 95.288 264.37 94.04 264.37 91.448C264.37 88.736 266.554 87.704 268.402 87.704C269.938 87.704 271.306 88.208 272.074 89.12V87.56C272.074 86.384 271.066 85.616 269.53 85.616C268.282 85.616 267.13 86.072 266.146 86.984L264.994 84.944C266.41 83.696 268.234 83.12 270.058 83.12C272.698 83.12 275.122 84.176 275.122 87.512V95ZM269.626 93.224C270.61 93.224 271.57 92.888 272.074 92.216V90.776C271.57 90.104 270.61 89.768 269.626 89.768C268.426 89.768 267.442 90.392 267.442 91.52C267.442 92.6 268.426 93.224 269.626 93.224ZM295.593 95H292.521V87.68C292.521 86.6 292.041 85.832 290.793 85.832C289.713 85.832 288.825 86.552 288.393 87.176V95H285.321V87.68C285.321 86.6 284.841 85.832 283.593 85.832C282.537 85.832 281.649 86.552 281.193 87.2V95H278.145V83.408H281.193V84.92C281.673 84.224 283.209 83.12 284.985 83.12C286.689 83.12 287.769 83.912 288.201 85.232C288.873 84.176 290.409 83.12 292.185 83.12C294.321 83.12 295.593 84.248 295.593 86.624V95ZM301.63 95H298.582V78.992H301.63V95ZM310.101 95.288C306.573 95.288 303.909 92.912 303.909 89.192C303.909 85.832 306.381 83.12 309.909 83.12C313.365 83.12 315.717 85.712 315.717 89.504V90.176H307.101C307.293 91.64 308.469 92.864 310.437 92.864C311.421 92.864 312.789 92.432 313.533 91.712L314.877 93.68C313.725 94.736 311.901 95.288 310.101 95.288ZM312.765 88.112C312.693 87.008 311.925 85.544 309.909 85.544C308.013 85.544 307.197 86.96 307.053 88.112H312.765ZM322.094 95.288C320.078 95.288 318.134 94.616 316.91 93.488L318.23 91.352C319.07 92.144 320.798 92.936 322.238 92.936C323.558 92.936 324.182 92.408 324.182 91.688C324.182 89.768 317.294 91.328 317.294 86.768C317.294 84.824 318.998 83.12 322.046 83.12C324.014 83.12 325.574 83.792 326.726 84.704L325.502 86.792C324.806 86.048 323.486 85.448 322.07 85.448C320.966 85.448 320.246 85.952 320.246 86.6C320.246 88.328 327.11 86.888 327.11 91.568C327.11 93.68 325.31 95.288 322.094 95.288ZM333.532 95.288C331.516 95.288 329.572 94.616 328.348 93.488L329.668 91.352C330.508 92.144 332.236 92.936 333.676 92.936C334.996 92.936 335.62 92.408 335.62 91.688C335.62 89.768 328.732 91.328 328.732 86.768C328.732 84.824 330.436 83.12 333.484 83.12C335.452 83.12 337.012 83.792 338.164 84.704L336.94 86.792C336.244 86.048 334.924 85.448 333.508 85.448C332.404 85.448 331.684 85.952 331.684 86.6C331.684 88.328 338.548 86.888 338.548 91.568C338.548 93.68 336.748 95.288 333.532 95.288ZM343.841 95H340.793V78.992H343.841V95ZM346.456 99.536L346.912 96.8C347.176 96.92 347.584 96.992 347.872 96.992C348.664 96.992 349.192 96.776 349.48 96.152L349.912 95.168L345.208 83.408H348.472L351.496 91.472L354.52 83.408H357.808L352.36 96.896C351.496 99.08 349.96 99.656 347.968 99.704C347.608 99.704 346.84 99.632 346.456 99.536Z" fill="#1A1D4A"/>
<path d="M106.117 61.288C101.293 61.288 97.7652 57.832 97.7652 53.008C97.7652 48.184 101.293 44.728 106.117 44.728C110.965 44.728 114.493 48.184 114.493 53.008C114.493 57.832 110.965 61.288 106.117 61.288ZM106.117 58.264C109.069 58.264 110.989 55.984 110.989 53.008C110.989 50.008 109.069 47.752 106.117 47.752C103.165 47.752 101.269 50.008 101.269 53.008C101.269 55.984 103.165 58.264 106.117 58.264ZM127.685 61H124.637V53.992C124.637 52.384 123.797 51.832 122.501 51.832C121.301 51.832 120.365 52.504 119.861 53.2V61H116.813V49.408H119.861V50.92C120.605 50.032 122.021 49.12 123.917 49.12C126.461 49.12 127.685 50.56 127.685 52.816V61ZM136.159 61.288C132.631 61.288 129.967 58.912 129.967 55.192C129.967 51.832 132.439 49.12 135.967 49.12C139.423 49.12 141.775 51.712 141.775 55.504V56.176H133.159C133.351 57.64 134.527 58.864 136.495 58.864C137.479 58.864 138.847 58.432 139.591 57.712L140.935 59.68C139.783 60.736 137.959 61.288 136.159 61.288ZM138.823 54.112C138.751 53.008 137.983 51.544 135.967 51.544C134.071 51.544 133.255 52.96 133.111 54.112H138.823ZM150.601 61.288C149.233 61.288 147.961 60.712 147.025 59.512V65.416H143.977V49.408H147.025V50.872C147.913 49.744 149.185 49.12 150.601 49.12C153.577 49.12 155.737 51.328 155.737 55.192C155.737 59.056 153.577 61.288 150.601 61.288ZM149.641 58.576C151.393 58.576 152.569 57.208 152.569 55.192C152.569 53.2 151.393 51.832 149.641 51.832C148.657 51.832 147.529 52.408 147.025 53.152V57.256C147.529 57.976 148.657 58.576 149.641 58.576ZM168.841 61H165.793V59.536C165.001 60.424 163.609 61.288 161.713 61.288C159.169 61.288 157.969 59.896 157.969 57.64V49.408H161.017V56.44C161.017 58.048 161.857 58.576 163.153 58.576C164.329 58.576 165.265 57.928 165.793 57.256V49.408H168.841V61ZM174.915 61H171.867V49.408H174.915V50.992C175.731 49.96 177.171 49.12 178.611 49.12V52.096C178.395 52.048 178.107 52.024 177.771 52.024C176.763 52.024 175.419 52.6 174.915 53.344V61ZM184.692 61.288C182.676 61.288 180.732 60.616 179.508 59.488L180.828 57.352C181.668 58.144 183.396 58.936 184.836 58.936C186.156 58.936 186.78 58.408 186.78 57.688C186.78 55.768 179.892 57.328 179.892 52.768C179.892 50.824 181.596 49.12 184.644 49.12C186.612 49.12 188.172 49.792 189.324 50.704L188.1 52.792C187.404 52.048 186.084 51.448 184.668 51.448C183.564 51.448 182.844 51.952 182.844 52.6C182.844 54.328 189.708 52.888 189.708 57.568C189.708 59.68 187.908 61.288 184.692 61.288ZM197.401 61.288C193.873 61.288 191.209 58.912 191.209 55.192C191.209 51.832 193.681 49.12 197.209 49.12C200.665 49.12 203.017 51.712 203.017 55.504V56.176H194.401C194.593 57.64 195.769 58.864 197.737 58.864C198.721 58.864 200.089 58.432 200.833 57.712L202.177 59.68C201.025 60.736 199.201 61.288 197.401 61.288ZM200.065 54.112C199.993 53.008 199.225 51.544 197.209 51.544C195.313 51.544 194.497 52.96 194.353 54.112H200.065Z" fill="white"/>
</g>
<defs>
<clipPath id="clip0_12143_9428">
<rect width="396" height="316" rx="40" fill="white"/>
</clipPath>
<clipPath id="clip1_12143_9428">
<rect width="187.64" height="56" fill="white" transform="translate(104 129)"/>
</clipPath>
<clipPath id="clip2_12143_9428">
<rect width="189" height="56" fill="white" transform="translate(104 209)"/>
</clipPath>
</defs>
</svg>
