<svg width="26" height="32" viewBox="0 0 26 32" fill="none" xmlns="http://www.w3.org/2000/svg">
<path d="M16.2049 17.5367H4.73612C3.96812 17.5367 3.32812 16.8967 3.32812 16.1287C3.32812 15.3607 3.96812 14.7207 4.73612 14.7207H16.2305C16.9985 14.7207 17.6385 15.3607 17.6385 16.1287C17.6129 16.8967 16.9985 17.5367 16.2049 17.5367Z" fill="white"/>
<path d="M11.2385 25.5748H4.73613C3.96813 25.5748 3.32812 24.9348 3.32812 24.1668C3.32812 23.3988 3.96813 22.7588 4.73613 22.7588H11.2385C12.0065 22.7588 12.6465 23.3988 12.6465 24.1668C12.6465 24.9604 12.0065 25.5748 11.2385 25.5748Z" fill="white"/>
<path d="M20.6849 9.47225H4.73613C3.96813 9.47225 3.32812 8.83225 3.32812 8.06425C3.32812 7.29625 3.96813 6.65625 4.73613 6.65625H20.7105C21.4785 6.65625 22.1185 7.29625 22.1185 8.06425C22.0929 8.83225 21.4785 9.47225 20.6849 9.47225Z" fill="white"/>
</svg>
