<svg width="179" height="38" viewBox="0 0 179 38" fill="none" xmlns="http://www.w3.org/2000/svg">
<path d="M12.9065 33.4987L17.3201 34.957L19.4476 29.3033L40.412 36.2302L41.9196 32.2238L16.5417 23.8385L12.9065 33.4987Z" fill="#684DFF"/>
<path d="M40.9891 37.3607L20.0248 30.4336L17.8973 36.0874L11.7 34.0398L15.9642 22.7083L43.1256 31.6829L40.9891 37.3607ZM18.8701 28.1729L39.8344 35.1L40.7132 32.7648L17.1189 24.9688L14.1126 32.9578L16.7426 33.8268L18.8701 28.1729Z" fill="#684DFF"/>
<path d="M7.06151 22.1596L11.4751 23.6179L13.6026 17.964L34.5669 24.8911L36.0747 20.8846L10.6967 12.4993L7.06151 22.1596Z" fill="#684DFF"/>
<path d="M35.1445 26.0214L14.1801 19.0945L12.0525 24.7483L5.85535 22.7007L10.1196 11.3691L37.281 20.3438L35.1445 26.0214ZM13.0254 16.8339L33.9898 23.7609L34.8686 21.4257L11.2743 13.6297L8.26799 21.6187L10.8979 22.4876L13.0254 16.8339Z" fill="#684DFF"/>
<path d="M1.20617 10.7905L5.61975 12.2489L7.74729 6.59505L28.7117 13.5221L30.2193 9.51559L4.84144 1.13024L1.20617 10.7905Z" fill="#684DFF"/>
<path d="M29.2892 14.6524L8.32474 7.72542L6.19719 13.3792L0 11.3315L4.26421 0L31.4256 8.97461L29.2892 14.6524ZM7.17005 5.46472L28.1345 12.3917L29.0132 10.0566L5.41894 2.26053L2.41264 10.2495L5.04254 11.1185L7.17005 5.46472Z" fill="#684DFF"/>
<path d="M57.2888 26.8992C55.2996 26.8992 53.5844 26.4936 52.1431 25.6825C50.7045 24.8743 49.5479 23.6915 48.814 22.2782C48.0357 20.8199 47.6466 19.1242 47.6467 17.1911C47.6467 15.2582 48.0358 13.5625 48.814 12.104C49.548 10.6908 50.7046 9.50798 52.1431 8.6997C53.5843 7.88865 55.2995 7.48306 57.2888 7.48291C59.278 7.48291 60.9932 7.8885 62.4344 8.6997C63.8728 9.50809 65.0295 10.6908 65.7636 12.104C66.5417 13.5625 66.9308 15.2581 66.9309 17.1911C66.9309 19.1242 66.5418 20.8199 65.7636 22.2782C65.0296 23.6914 63.8729 24.8742 62.4344 25.6825C60.9931 26.4937 59.2779 26.8993 57.2888 26.8992ZM57.2888 23.5855C58.5504 23.6029 59.6002 23.3483 60.4384 22.8218C61.2762 22.2955 61.9047 21.5491 62.3239 20.5824C62.7429 19.6161 62.9524 18.4856 62.9525 17.191C62.9525 15.8966 62.743 14.7748 62.3239 13.8256C61.9477 12.9266 61.2905 12.1551 60.4384 11.6121C59.6002 11.0858 58.5504 10.814 57.2888 10.7966C56.027 10.7794 54.9771 11.034 54.1392 11.5603C53.3011 12.0868 52.6726 12.8332 52.2536 13.7997C51.8345 14.7662 51.625 15.8967 51.6251 17.191C51.6251 18.4855 51.8346 19.6073 52.2536 20.5565C52.6296 21.4557 53.2869 22.2273 54.1392 22.77C54.9771 23.2965 56.0269 23.5683 57.2888 23.5855V23.5855Z" fill="#0F0F0F"/>
<path d="M68.9753 26.5112V12.5314H72.3183V17.1654H72.788V26.5112L68.9753 26.5112ZM79.17 26.5112V19.9096C79.17 19.5905 79.1516 19.1827 79.1147 18.6864C79.0744 18.1754 78.9582 17.6722 78.7694 17.1913C78.5825 16.6995 78.2552 16.2653 77.8231 15.9357C77.3856 15.5992 76.7663 15.4309 75.9652 15.4309C75.6146 15.4347 75.2661 15.4826 74.9291 15.5733C74.5425 15.6779 74.1875 15.8663 73.8931 16.1234C73.5706 16.3953 73.3058 16.7944 73.0988 17.3208C72.8916 17.8472 72.788 18.5462 72.788 19.4177L70.633 18.4599C70.6255 17.3874 70.8708 16.3266 71.3513 15.3532C71.8212 14.3965 72.5708 13.5841 73.5132 13.0103C74.4754 12.4149 75.6887 12.1172 77.1532 12.1172C78.3226 12.1172 79.2757 12.3027 80.0126 12.6738C80.7007 13.0048 81.2914 13.4893 81.7324 14.0847C82.1291 14.6278 82.4256 15.2294 82.6096 15.8645C82.7725 16.4169 82.8789 16.9825 82.9274 17.5538C82.964 18.063 82.9824 18.4341 82.9826 18.667V26.5112H79.17Z" fill="#0F0F0F"/>
<path d="M92.5417 26.8995C91.0129 26.8995 89.666 26.591 88.5011 25.974C87.3564 25.3761 86.4099 24.4936 85.766 23.424C85.1075 22.3411 84.7783 21.1006 84.7783 19.7025C84.7783 18.1751 85.1006 16.8461 85.7453 15.7157C86.3535 14.6212 87.2772 13.7085 88.4114 13.0815C89.5441 12.4559 90.8472 12.1431 92.3206 12.1431C93.8861 12.1431 95.2169 12.4882 96.3128 13.1786C97.4087 13.8691 98.2191 14.84 98.7441 16.0911C99.269 17.3424 99.4532 18.8137 99.2967 20.505H95.5807V19.2106C95.5807 17.7868 95.339 16.762 94.8555 16.1364C94.372 15.5107 93.5823 15.1979 92.4864 15.1979C91.2063 15.1979 90.2646 15.5625 89.6615 16.2917C89.0582 17.021 88.7566 18.0976 88.7567 19.5213C88.7567 20.8244 89.0583 21.8319 89.6615 22.5438C90.2646 23.2557 91.1509 23.6117 92.3206 23.6117C93.0573 23.6117 93.6882 23.4606 94.2132 23.1586C94.7464 22.8476 95.1657 22.3916 95.4149 21.8513L99.1723 22.8609C98.6493 24.0947 97.7171 25.1384 96.5131 25.8382C95.3245 26.5397 93.9464 26.9079 92.5417 26.8995ZM87.5963 20.505V17.8903H97.487V20.505H87.5963Z" fill="#0F0F0F"/>
<path d="M106.548 26.511V7.87134H114.947C115.141 7.87134 115.401 7.87782 115.728 7.89076C116.022 7.90054 116.315 7.92863 116.605 7.97487C117.793 8.14762 118.767 8.51438 119.527 9.07514C120.279 9.62657 120.858 10.3576 121.205 11.1915C121.575 12.0981 121.758 13.0623 121.744 14.0328C121.758 15.0039 121.573 15.9685 121.198 16.874C120.847 17.7075 120.266 18.4382 119.513 18.9905C118.753 19.5515 117.784 19.9183 116.605 20.0907C116.347 20.1253 116.052 20.1512 115.721 20.1684C115.389 20.1858 115.131 20.1944 114.947 20.1943H110.306V26.5111L106.548 26.511ZM110.306 16.9064H114.781C114.975 16.9064 115.187 16.8977 115.417 16.8805C115.632 16.8658 115.845 16.8311 116.052 16.7769C116.506 16.6773 116.916 16.4491 117.227 16.1233C117.497 15.8271 117.693 15.4775 117.8 15.1007C118.012 14.4026 118.012 13.663 117.8 12.9649C117.693 12.588 117.497 12.2385 117.227 11.9423C116.916 11.6165 116.506 11.3883 116.052 11.2886C115.845 11.2345 115.632 11.1998 115.417 11.185C115.187 11.1678 114.975 11.1592 114.781 11.1591H110.306L110.306 16.9064Z" fill="#0F0F0F"/>
<path d="M129.369 26.9255C128.199 26.9255 127.246 26.74 126.509 26.3689C125.821 26.0381 125.23 25.5535 124.79 24.958C124.393 24.415 124.096 23.8133 123.912 23.1781C123.749 22.6258 123.643 22.0602 123.595 21.4889C123.558 20.9799 123.539 20.6088 123.539 20.3757V12.5315H127.352V19.1331C127.352 19.4525 127.37 19.8602 127.407 20.3563C127.447 20.8674 127.564 21.3706 127.753 21.8514C127.939 22.3432 128.267 22.7776 128.699 23.107C129.136 23.4436 129.755 23.6118 130.557 23.6119C130.907 23.6081 131.256 23.5602 131.593 23.4694C131.979 23.3649 132.334 23.1764 132.629 22.9193C132.951 22.6475 133.216 22.2462 133.423 21.7155C133.63 21.1848 133.734 20.4879 133.734 19.625L135.889 20.5829C135.896 21.6553 135.651 22.7161 135.171 23.6895C134.701 24.6462 133.951 25.4585 133.009 26.0324C132.046 26.6278 130.833 26.9255 129.369 26.9255ZM134.204 26.5114V21.8773H133.734V12.5315H137.519V26.5114L134.204 26.5114Z" fill="#0F0F0F"/>
<path d="M140.696 26.5117V12.5319H144.011V15.9492L143.652 15.5091C143.839 15.0359 144.1 14.591 144.425 14.1888C144.749 13.791 145.152 13.4568 145.613 13.205C145.98 12.9948 146.375 12.8316 146.787 12.7196C147.215 12.6025 147.655 12.5287 148.1 12.4996C148.551 12.4694 149.004 12.4802 149.454 12.5319V15.8198C148.985 15.6941 148.495 15.6523 148.01 15.6968C147.496 15.7276 146.992 15.8483 146.525 16.0528C146.1 16.2284 145.72 16.4857 145.408 16.8079C145.096 17.1301 144.86 17.5101 144.715 17.9232C144.552 18.3888 144.473 18.8765 144.481 19.3665V26.5117H140.696Z" fill="#0F0F0F"/>
<path d="M156.664 26.8995C154.786 26.8995 153.268 26.5004 152.113 25.7022C150.957 24.904 150.255 23.7757 150.006 22.3172L153.846 21.7736C153.977 22.391 154.349 22.9404 154.889 23.314C155.428 23.6851 156.112 23.8706 156.941 23.8706C157.622 23.8706 158.147 23.7476 158.515 23.5016C158.693 23.3878 158.836 23.2337 158.933 23.0538C159.03 22.8738 159.076 22.6739 159.068 22.4726C159.08 22.2329 159.002 21.9969 158.847 21.806C158.699 21.6377 158.37 21.4715 157.859 21.3076C157.348 21.1436 156.554 20.9279 155.476 20.6604C154.261 20.3671 153.289 20.0391 152.562 19.6766C151.834 19.3142 151.309 18.8806 150.987 18.3757C150.664 17.8709 150.503 17.2604 150.503 16.5441C150.503 15.6467 150.747 14.8679 151.235 14.2077C151.754 13.5244 152.471 12.9944 153.301 12.6803C154.189 12.3222 155.237 12.1432 156.443 12.1431C157.613 12.1431 158.649 12.3113 159.551 12.6479C160.398 12.9476 161.151 13.4416 161.741 14.0847C162.301 14.7114 162.658 15.4749 162.77 16.2852L158.93 16.9325C158.907 16.6921 158.832 16.4588 158.708 16.2471C158.584 16.0355 158.415 15.8501 158.211 15.7027C157.797 15.4007 157.235 15.2238 156.526 15.172C155.835 15.1289 155.281 15.2152 154.862 15.4309C154.442 15.6467 154.233 15.9574 154.233 16.3629C154.23 16.4763 154.253 16.589 154.299 16.6937C154.346 16.7985 154.415 16.893 154.502 16.9713C154.682 17.1353 155.055 17.3035 155.621 17.4761C156.188 17.6488 157.051 17.8732 158.211 18.1492C159.344 18.4255 160.254 18.7469 160.94 19.1135C161.626 19.4804 162.125 19.9205 162.439 20.4339C162.751 20.9474 162.908 21.5666 162.908 22.2913C162.908 23.7239 162.356 24.8501 161.251 25.6698C160.145 26.4898 158.617 26.8997 156.664 26.8995Z" fill="#0F0F0F"/>
<path d="M172.191 26.8995C170.662 26.8995 169.315 26.591 168.151 25.974C167.006 25.3761 166.059 24.4936 165.415 23.424C164.757 22.3411 164.428 21.1006 164.428 19.7025C164.428 18.1751 164.75 16.8461 165.395 15.7157C166.003 14.6212 166.927 13.7085 168.061 13.0815C169.194 12.4559 170.497 12.1431 171.97 12.1431C173.536 12.1431 174.866 12.4882 175.962 13.1786C177.058 13.8691 177.869 14.84 178.394 16.0911C178.918 17.3424 179.103 18.8137 178.946 20.505H175.23V19.2106C175.23 17.7868 174.988 16.762 174.505 16.1364C174.021 15.5107 173.232 15.1979 172.136 15.1979C170.856 15.1979 169.914 15.5625 169.311 16.2917C168.708 17.021 168.406 18.0976 168.406 19.5213C168.406 20.8244 168.708 21.8319 169.311 22.5438C169.914 23.2557 170.8 23.6117 171.97 23.6117C172.707 23.6117 173.338 23.4606 173.863 23.1586C174.396 22.8476 174.815 22.3915 175.064 21.8513L178.822 22.8609C178.299 24.0947 177.367 25.1384 176.163 25.8381C174.974 26.5396 173.596 26.9079 172.191 26.8995ZM167.246 20.505V17.8903H177.136V20.505H167.246Z" fill="#0F0F0F"/>
</svg>
