<svg width="80" height="100" viewBox="0 0 80 100" fill="none" xmlns="http://www.w3.org/2000/svg">
<path d="M45.8625 81.0214C44.8282 80.3396 43.9795 79.4115 43.3926 78.3206C42.8057 77.2297 42.499 76.0101 42.5 74.7714V48.5089H37.5V81.0214H27.5V48.5089H6.25V78.5214C6.24982 79.178 6.37903 79.8283 6.63024 80.435C6.88145 81.0417 7.24974 81.593 7.71407 82.0573C8.1784 82.5216 8.72966 82.8899 9.33637 83.1411C9.94308 83.3923 10.5933 83.5215 11.25 83.5214H53.75C54.9691 83.5197 56.1462 83.0755 57.0625 82.2714H50C48.5269 82.2774 47.0858 81.842 45.8625 81.0214Z" fill="#464DF0"/>
<path d="M72.5 39.7713H68.6375C68.3308 38.0349 67.4223 36.4619 66.0713 35.3287C64.7204 34.1954 63.0134 33.5742 61.25 33.5742C59.4867 33.5742 57.7797 34.1954 56.4288 35.3287C55.0778 36.4619 54.1693 38.0349 53.8626 39.7713H50C48.6759 39.7704 47.4056 40.2952 46.4682 41.2304C45.5308 42.1656 45.003 43.4347 45.0008 44.7588H42.5011C42.5174 42.7761 43.3131 40.8794 44.7162 39.4784C46.1194 38.0774 48.0173 37.2847 50.0001 37.2714L51.9751 37.2714C52.7986 35.2546 54.2567 33.5609 56.1287 32.4468C58.0007 31.3326 60.1846 30.8586 62.3501 31.0963C62.0926 30.0047 61.473 29.0324 60.5923 28.3378C59.7116 27.6432 58.6217 27.2673 57.5001 27.2713H49.0481C54.2538 22.2138 49.4107 16.4418 43.8463 16.0211C39.4235 15.6917 35.0639 19.2381 32.4987 24.9318C29.9257 19.2395 25.5454 15.6989 21.1536 16.021C15.5864 16.4422 10.7475 22.2173 15.9519 27.2713H7.5C6.84334 27.2712 6.19308 27.4004 5.58637 27.6516C4.97965 27.9028 4.42838 28.2711 3.96405 28.7354C3.49972 29.1997 3.13143 29.751 2.88023 30.3577C2.62902 30.9644 2.49982 31.6147 2.5 32.2714V39.7714C2.49902 40.8797 2.86708 41.9567 3.54609 42.8327C4.22511 43.7086 5.17645 44.3335 6.25 44.6088V44.7589C6.43149 44.7572 7.34461 44.7571 7.5 44.7714H45V74.7713C45.0018 76.0969 45.5291 77.3676 46.4664 78.3049C47.4037 79.2422 48.6745 79.7696 50 79.7713H72.5C73.8255 79.7696 75.0963 79.2422 76.0336 78.3049C76.9709 77.3676 77.4982 76.0969 77.5 74.7713V44.7714C77.5002 44.1147 77.371 43.4644 77.1198 42.8577C76.8686 42.251 76.5003 41.6997 76.0359 41.2354C75.5716 40.7711 75.0203 40.4028 74.4136 40.1516C73.8069 39.9004 73.1567 39.7712 72.5 39.7713ZM43.6536 18.5137C45.6775 18.67 48.5962 20.2093 48.7537 22.3589C48.8945 24.2768 46.8553 26.6969 43.5941 27.2713H34.2384C36.2743 21.8484 40.0866 18.2519 43.6536 18.5137ZM16.2463 22.3589C16.4038 20.2093 19.3225 18.67 21.3464 18.5137C24.9568 18.2463 28.7341 21.8493 30.7628 27.2713H21.406C18.1447 26.6969 16.1055 24.2768 16.2463 22.3589ZM37.5 42.2713H27.5V29.7713H37.5V42.2713ZM66.25 42.2713H68.75V46.0213C68.75 46.3529 68.6183 46.6708 68.3839 46.9052C68.1495 47.1396 67.8315 47.2713 67.5 47.2713C67.1685 47.2713 66.8505 47.1396 66.6161 46.9052C66.3817 46.6708 66.25 46.3529 66.25 46.0213V42.2713ZM61.25 36.0213C62.3583 36.0203 63.4354 36.3884 64.3113 37.0674C65.1873 37.7464 65.8122 38.6978 66.0875 39.7713H56.4125C56.6878 38.6978 57.3127 37.7464 58.1887 37.0674C59.0646 36.3884 60.1417 36.0203 61.25 36.0213ZM53.75 42.2713H56.25V46.0213C56.25 46.3529 56.1183 46.6708 55.8839 46.9052C55.6495 47.1396 55.3315 47.2713 55 47.2713C54.6685 47.2713 54.3505 47.1396 54.1161 46.9052C53.8817 46.6708 53.75 46.3529 53.75 46.0213V42.2713ZM75 74.7713H53.75C53.4185 74.7713 53.1005 74.6396 52.8661 74.4052C52.6317 74.1708 52.5 73.8529 52.5 73.5213C52.5 73.1898 52.6317 72.8719 52.8661 72.6375C53.1005 72.403 53.4185 72.2713 53.75 72.2713H75V74.7713Z" fill="#FFCC00"/>
</svg>
