<svg width="34" height="37" viewBox="0 0 34 37" fill="none" xmlns="http://www.w3.org/2000/svg">
<path d="M16.0086 18.188L1.09863 34.0079C1.56063 35.7299 3.12863 36.9899 4.99063 36.9899C5.73263 36.9899 6.43263 36.794 7.03463 36.43L7.07663 36.402L23.8486 26.728L15.9946 18.174L16.0086 18.188Z" fill="#EA4335"/>
<path d="M31.0859 15.5003H31.0719L23.8339 11.2863L15.6719 18.5523L23.8619 26.7423L31.0719 22.5843C32.3319 21.8983 33.1859 20.5683 33.1859 19.0423C33.1859 17.5163 32.3459 16.1863 31.0859 15.5143V15.5003Z" fill="#FBBC04"/>
<path d="M1.09801 3.99231C1.01401 4.32831 0.958008 4.66431 0.958008 5.02831V32.9863C0.958008 33.3503 1.00001 33.6863 1.09801 34.0223L16.512 18.6083L1.09801 3.99231Z" fill="#4285F4"/>
<path d="M16.1206 19.0002L23.8346 11.2862L7.07663 1.57022C6.47463 1.20622 5.76063 0.996216 4.99063 0.996216C3.12863 0.996216 1.56063 2.27022 1.09863 3.97822L16.1206 18.9862V19.0002Z" fill="#34A853"/>
</svg>
