<svg width="47" height="38" viewBox="0 0 47 38" fill="none" xmlns="http://www.w3.org/2000/svg">
<path d="M44.7404 1.92519C44.6437 1.74598 44.468 1.60262 44.2571 1.53093C44.1428 1.48792 32.8946 -2.36867 23.6412 5.17247C21.8749 6.61332 20.1701 8.31223 18.6059 10.1043L16.4705 9.70289C13.2454 9.09358 9.92371 9.86777 7.57741 11.7746L1.7512 16.5344C0.204572 17.796 1.19758 19.9393 3.35055 20.0755L11.5582 20.6132C11.1979 21.3945 10.8904 22.1615 10.7146 22.6705C10.5564 23.1221 10.5828 23.5881 10.7498 24.0182C9.26464 24.3479 7.91134 24.9501 7.14681 25.5737C5.45959 26.9429 3.9569 32.9428 3.67569 34.1328C3.55267 34.7062 4.17659 35.1435 4.77415 35.0288C6.2329 34.7922 13.5882 33.5664 15.2666 32.1973C16.0663 31.545 16.7869 30.4267 17.1823 29.2582C17.7447 29.4016 18.3159 29.4016 18.8344 29.2798H18.8432C19.4671 29.1364 20.381 28.8998 21.3564 28.5916L22.0155 35.2869C22.1825 37.0431 24.8188 37.846 26.3566 36.5915L32.1916 31.8317C34.5291 29.9249 35.487 27.2081 34.7312 24.5773L34.2391 22.8354C36.4361 21.5594 38.5187 20.1687 40.285 18.7279C49.5296 11.1939 44.7931 2.01838 44.7404 1.92519ZM3.08692 17.6168L8.91313 12.857C10.8025 11.3158 13.4739 10.6993 16.0487 11.1939L17.4635 11.4591C15.3633 14.0326 13.5882 16.7279 12.3052 19.1222L3.49994 18.5487C2.92874 18.5057 2.68269 17.9394 3.08692 17.6168ZM13.9397 31.122C13.1224 31.7887 9.07131 32.7134 5.8023 33.3012C6.5141 30.6274 7.64771 27.33 8.47375 26.6633C9.18555 26.0755 10.574 25.5665 11.9273 25.3658L15.5302 28.3049C15.5214 28.3335 15.5214 28.3622 15.5127 28.398C15.249 29.4518 14.6075 30.5772 13.9397 31.122ZM17.3141 27.588L12.7973 23.9035C12.5336 23.6884 12.4282 23.3658 12.5249 23.0791C12.6039 22.8569 12.7533 22.4411 12.9467 21.9752L19.678 27.4662C19.2738 27.5808 18.7377 27.717 18.3247 27.8102C17.9732 27.8963 17.5865 27.8102 17.3141 27.588ZM32.8946 24.9357C33.4922 27.0504 32.7365 29.2224 30.8559 30.7564L25.0209 35.5163C24.6167 35.846 23.9312 35.6381 23.8785 35.1793L23.1755 27.9966C26.1106 26.9572 29.4147 25.502 32.5695 23.7888L32.8946 24.9357ZM21.6025 26.8712L13.6673 20.3981C15.9081 15.9322 20.1877 10.1473 24.9594 6.2549C30.4077 1.8105 37.5697 1.14384 43.1498 2.82124C43.8089 4.3266 46.4276 11.5595 38.9405 17.667C34.1688 21.5594 27.0772 25.0504 21.6025 26.8712Z" fill="#E2E4FF" stroke="#E2E4FF"/>
<path d="M28.3903 7.50707C25.8997 9.53798 25.8997 12.8285 28.3903 14.8665C30.8809 16.8974 34.9163 16.8974 37.4156 14.8665C39.9062 12.8356 39.9062 9.53798 37.4156 7.50707C34.9163 5.47616 30.8809 5.47616 28.3903 7.50707ZM36.1052 13.7979C34.3348 15.2415 31.471 15.2415 29.7007 13.7979C27.9304 12.3544 27.9304 10.0192 29.7007 8.5756C31.471 7.13202 34.3348 7.13202 36.1052 8.5756C37.8668 10.0192 37.8668 12.3614 36.1052 13.7979Z" fill="#E2E4FF" stroke="#E2E4FF"/>
</svg>
