<svg width="42" height="47" viewBox="0 0 42 47" fill="none" xmlns="http://www.w3.org/2000/svg">
<path d="M21.9886 46.5254C23.6427 45.4724 25.3018 44.4243 26.956 43.3713C27.7047 42.8962 28.4633 42.426 29.1925 41.9166C30.925 40.7068 32.5498 39.3306 33.9935 37.7828C36.8516 34.7119 39.0245 31.0728 40.3997 27.1105C41.5204 23.873 42 20.4593 42 17.0406V10.5216C42 9.64489 41.3883 8.88083 40.5612 8.63104C39.9641 8.44982 39.3719 8.2637 38.7994 8.02371C38.956 8.08738 39.1126 8.15595 39.2692 8.21962C38.2463 7.78372 37.2871 7.22537 36.4062 6.54947L36.8026 6.85803C35.9315 6.18213 35.1485 5.40338 34.4731 4.53157L34.7814 4.92829C34.106 4.04668 33.5432 3.08181 33.1077 2.05817C33.1713 2.2149 33.2398 2.37163 33.3034 2.52836C33.1566 2.17572 33.0196 1.81328 32.9021 1.45084C32.6378 0.623111 31.8989 0.010884 31.0131 0.010884H13.4486C12.6411 0.010884 11.8287 -0.013605 11.0212 0.010884H10.9869C10.0962 0.010884 9.36215 0.623111 9.09788 1.45084C8.98042 1.81818 8.84829 2.17572 8.69658 2.52836C8.7602 2.37163 8.82871 2.2149 8.89233 2.05817C8.45677 3.08181 7.89396 4.04179 7.2186 4.92829L7.52692 4.53157C6.85155 5.40338 6.06852 6.18213 5.19739 6.85803L5.5938 6.54947C4.71289 7.22537 3.74878 7.78372 2.73083 8.21962C2.88744 8.15595 3.04405 8.08738 3.20065 8.02371C2.62317 8.2637 2.03589 8.44982 1.43883 8.63104C0.611746 8.88083 0 9.64489 0 10.5216V16.4284C0 17.4667 0 18.505 0.0734095 19.5434C0.230016 21.6543 0.587276 23.7604 1.17945 25.793C2.354 29.8288 4.38989 33.5462 7.09135 36.7543C9.19087 39.2473 11.721 41.2652 14.4617 43.0039L19.8793 46.4422C19.9233 46.4716 19.9723 46.501 20.0163 46.5303C20.8825 47.0789 22.2137 46.7409 22.6933 45.8251C23.2023 44.8553 22.9135 43.7337 21.9886 43.146C21.1077 42.5876 20.2268 42.0292 19.3507 41.4709C18.2251 40.7558 17.1044 40.0456 15.9788 39.3306C15.1909 38.831 14.4225 38.2971 13.6786 37.729L14.075 38.0375C12.2251 36.6025 10.5612 34.9372 9.12724 33.0858L9.43556 33.4826C7.97716 31.5871 6.76346 29.5104 5.82871 27.3064C5.89233 27.4631 5.96085 27.6199 6.02447 27.7766C5.07015 25.5089 4.41925 23.1286 4.09135 20.6895C4.11582 20.8609 4.14029 21.0372 4.15987 21.2086C3.94943 19.6217 3.91517 18.0348 3.91517 16.4431V10.5412C3.43556 11.173 2.95595 11.7999 2.47635 12.4317C4.16476 11.9224 5.79935 11.2465 7.23328 10.213C8.93149 8.98858 10.3801 7.48005 11.4568 5.67766C12.0489 4.6883 12.5237 3.61078 12.876 2.51367C12.2447 2.99365 11.6183 3.47364 10.9869 3.95363H28.5514C29.3589 3.95363 30.1713 3.97322 30.9788 3.95363H31.0131C30.3817 3.47364 29.7553 2.99365 29.124 2.51367C30.3524 6.34866 33.1419 9.68407 36.8026 11.4081C37.6835 11.8244 38.5889 12.1477 39.5237 12.4317C39.044 11.7999 38.5644 11.173 38.0848 10.5412V17.4863C38.0848 18.7303 38.0016 19.9744 37.8401 21.2086C37.8646 21.0372 37.8891 20.8609 37.9086 20.6895C37.5759 23.1237 36.925 25.5089 35.9755 27.7766C36.0392 27.6199 36.1077 27.4631 36.1713 27.3064C35.2365 29.5104 34.0228 31.5871 32.5644 33.4826L32.8728 33.0858C31.4388 34.9372 29.7749 36.6025 27.925 38.0375L28.3214 37.729C27.2251 38.5763 26.0604 39.3061 24.8956 40.0505C23.6036 40.8734 22.3116 41.6913 21.0196 42.5141C20.6868 42.7247 20.3491 42.9402 20.0163 43.1508C19.5905 43.4202 19.2529 43.8267 19.1158 44.3214C18.9886 44.7916 19.0473 45.4136 19.3116 45.83C19.8695 46.692 21.0636 47.1132 21.9886 46.5254Z" fill="#F0F1FF"/>
<path d="M11.1547 23.3492L16.1151 28.4196L16.8203 29.1404C17.5593 29.8958 18.8151 29.8958 19.5541 29.1404L23.3843 25.2253L29.446 19.0292L30.8419 17.6024C31.5568 16.8717 31.6099 15.5288 30.8419 14.808C30.0691 14.0823 28.8713 14.028 28.1081 14.808L24.2779 18.7231L18.2162 24.9192L16.8203 26.346H19.5541L14.5937 21.2756L13.8885 20.5548C13.1736 19.8241 11.8599 19.7698 11.1547 20.5548C10.4447 21.3447 10.3915 22.5642 11.1547 23.3492Z" fill="#F0F1FF"/>
</svg>
