<svg id="Layer_1" data-name="Layer 1" xmlns="http://www.w3.org/2000/svg" viewBox="0 0 3000 3000"><defs><style>.cls-1{fill:#6b7cf3;}</style></defs><title>OnePurse icon-01</title><polygon class="cls-1" points="1123.078 2264.9 1334.713 2339.525 1436.73 2050.211 2441.993 2404.677 2514.285 2199.661 1297.392 1770.564 1123.078 2264.9"/><path class="cls-1" d="M2469.6737,2462.5226,1464.4162,2108.05l-102.0176,289.3152-297.1661-104.78,204.4739-579.86,1302.4147,459.251Zm-1060.6257-470.16,1005.2582,354.4731,42.1374-119.4955-1131.3664-398.939-144.155,408.8141,126.11,44.4705Z"/><polygon class="cls-1" points="842.818 1684.67 1054.453 1759.295 1156.47 1469.975 2161.728 1824.448 2234.025 1619.426 1017.127 1190.334 842.818 1684.67"/><path class="cls-1" d="M2189.4146,1882.2855,1184.1521,1527.8164l-102.0192,289.32L784.9717,1712.3557l204.4733-579.86L2291.86,1591.7463ZM1128.784,1412.1382l1005.2621,354.4691,42.1371-119.4948-1131.3684-398.94L900.66,1656.9862l126.1059,44.4666Z"/><polygon class="cls-1" points="562.048 1102.874 773.683 1177.504 875.701 888.184 1880.963 1242.656 1953.256 1037.634 736.363 608.537 562.048 1102.874"/><path class="cls-1" d="M1908.6459,1300.4992,903.3837,946.0282,801.3662,1235.3428,504.205,1130.5622l204.4733-579.86L2011.093,1009.9528ZM848.0152,830.3434l1005.2622,354.4691,42.1371-119.4948L764.0481,666.3774l-144.155,408.8147L745.999,1119.658Z"/></svg>