<svg width="179" height="39" viewBox="0 0 179 39" fill="none" xmlns="http://www.w3.org/2000/svg">
<rect width="179" height="39" fill="#373131"/>
<g clip-path="url(#clip0_0_1)">
<rect width="1728" height="5615" transform="translate(-92 -50)" fill="#F5F5F5"/>
<rect x="-92" y="-50" width="1728" height="1086" fill="#1A1D4A"/>
<path d="M12.9065 34.1809L17.3201 35.6392L19.4476 29.9854L40.412 36.9124L41.9196 32.906L16.5417 24.5206L12.9065 34.1809Z" fill="#684DFF"/>
<path d="M40.9891 38.0428L20.0248 31.1158L17.8973 36.7695L11.7 34.722L15.9642 23.3904L43.1256 32.365L40.9891 38.0428ZM18.8701 28.8551L39.8344 35.7821L40.7132 33.447L17.1189 25.6509L14.1126 33.6399L16.7426 34.509L18.8701 28.8551Z" fill="#684DFF"/>
<path d="M7.06151 22.8417L11.4751 24.3001L13.6026 18.6462L34.5669 25.5733L36.0747 21.5667L10.6967 13.1815L7.06151 22.8417Z" fill="#684DFF"/>
<path d="M35.1445 26.7036L14.1801 19.7766L12.0525 25.4305L5.85535 23.3828L10.1196 12.0513L37.281 21.0259L35.1445 26.7036ZM13.0254 17.5161L33.9898 24.443L34.8686 22.1079L11.2743 14.3119L8.26799 22.3008L10.8979 23.1698L13.0254 17.5161Z" fill="#684DFF"/>
<path d="M1.20617 11.4727L5.61975 12.9311L7.74729 7.27724L28.7117 14.2043L30.2193 10.1978L4.84144 1.81243L1.20617 11.4727Z" fill="#684DFF"/>
<path d="M29.2892 15.3346L8.32474 8.40761L6.19719 14.0613L0 12.0137L4.26421 0.68219L31.4256 9.6568L29.2892 15.3346ZM7.17005 6.14691L28.1345 13.0739L29.0132 10.7387L5.41894 2.94272L2.41264 10.9317L5.04254 11.8007L7.17005 6.14691Z" fill="#684DFF"/>
<path d="M57.2888 27.5815C55.2996 27.5815 53.5844 27.1759 52.1431 26.3647C50.7045 25.5565 49.5479 24.3737 48.814 22.9604C48.0357 21.5022 47.6466 19.8065 47.6467 17.8733C47.6467 15.9404 48.0358 14.2447 48.814 12.7863C49.548 11.373 50.7046 10.1902 52.1431 9.38195C53.5843 8.5709 55.2995 8.16531 57.2888 8.16516C59.278 8.16516 60.9932 8.57075 62.4344 9.38195C63.8728 10.1903 65.0295 11.3731 65.7636 12.7863C66.5417 14.2447 66.9308 15.9404 66.9309 17.8733C66.9309 19.8065 66.5418 21.5022 65.7636 22.9604C65.0296 24.3737 63.8729 25.5564 62.4344 26.3647C60.9931 27.176 59.2779 27.5816 57.2888 27.5815ZM57.2888 24.2678C58.5504 24.2852 59.6002 24.0306 60.4384 23.504C61.2762 22.9778 61.9047 22.2313 62.3239 21.2647C62.7429 20.2983 62.9524 19.1679 62.9525 17.8733C62.9525 16.5789 62.743 15.457 62.3239 14.5078C61.9477 13.6088 61.2905 12.8373 60.4384 12.2943C59.6002 11.768 58.5504 11.4962 57.2888 11.4788C56.027 11.4616 54.9771 11.7162 54.1392 12.2426C53.3011 12.769 52.6726 13.5155 52.2536 14.4819C51.8345 15.4485 51.625 16.5789 51.6251 17.8733C51.6251 19.1677 51.8346 20.2896 52.2536 21.2388C52.6296 22.1379 53.2869 22.9095 54.1392 23.4523C54.9771 23.9787 56.0269 24.2506 57.2888 24.2678V24.2678Z" fill="white"/>
<path d="M68.9753 27.1933V13.2135H72.3183V17.8476H72.788V27.1933L68.9753 27.1933ZM79.17 27.1933V20.5918C79.17 20.2726 79.1516 19.8649 79.1147 19.3686C79.0744 18.8576 78.9582 18.3543 78.7694 17.8735C78.5825 17.3817 78.2552 16.9474 77.8231 16.6179C77.3856 16.2813 76.7663 16.1131 75.9652 16.113C75.6146 16.1169 75.2661 16.1648 74.9291 16.2555C74.5425 16.36 74.1875 16.5485 73.8931 16.8056C73.5706 17.0774 73.3058 17.4765 73.0988 18.0029C72.8916 18.5294 72.788 19.2284 72.788 20.0999L70.633 19.142C70.6255 18.0696 70.8708 17.0088 71.3513 16.0354C71.8212 15.0787 72.5708 14.2663 73.5132 13.6925C74.4754 13.097 75.6887 12.7993 77.1532 12.7993C78.3226 12.7993 79.2757 12.9849 80.0126 13.356C80.7007 13.6869 81.2914 14.1715 81.7324 14.7669C82.1291 15.31 82.4256 15.9116 82.6096 16.5467C82.7725 17.0991 82.8789 17.6647 82.9274 18.2359C82.964 18.7452 82.9824 19.1163 82.9826 19.3491V27.1933H79.17Z" fill="white"/>
<path d="M92.5417 27.5817C91.0129 27.5817 89.666 27.2732 88.5011 26.6562C87.3564 26.0583 86.4099 25.1759 85.766 24.1062C85.1075 23.0233 84.7783 21.7828 84.7783 20.3847C84.7783 18.8573 85.1006 17.5284 85.7453 16.3979C86.3535 15.3034 87.2772 14.3908 88.4114 13.7637C89.5441 13.1382 90.8472 12.8254 92.3206 12.8253C93.8861 12.8253 95.2169 13.1705 96.3128 13.8608C97.4087 14.5513 98.2191 15.5222 98.7441 16.7733C99.269 18.0246 99.4532 19.4959 99.2967 21.1873H95.5807V19.8928C95.5807 18.469 95.339 17.4443 94.8555 16.8186C94.372 16.1929 93.5823 15.8801 92.4864 15.8801C91.2063 15.8801 90.2646 16.2447 89.6615 16.9739C89.0582 17.7033 88.7566 18.7798 88.7567 20.2035C88.7567 21.5066 89.0583 22.5141 89.6615 23.226C90.2646 23.9379 91.1509 24.2939 92.3206 24.2939C93.0573 24.2939 93.6882 24.1429 94.2132 23.8408C94.7464 23.5299 95.1657 23.0738 95.4149 22.5335L99.1723 23.5432C98.6493 24.777 97.7171 25.8206 96.5131 26.5204C95.3245 27.2219 93.9464 27.5902 92.5417 27.5817ZM87.5963 21.1873V18.5725H97.487V21.1873H87.5963Z" fill="white"/>
<path d="M106.548 27.1932V8.5535H114.947C115.141 8.5535 115.401 8.55997 115.728 8.57292C116.022 8.5827 116.315 8.61079 116.605 8.65703C117.793 8.82978 118.767 9.19654 119.527 9.7573C120.279 10.3087 120.858 11.0398 121.205 11.8737C121.575 12.7802 121.758 13.7444 121.744 14.7149C121.758 15.6861 121.573 16.6507 121.198 17.5562C120.847 18.3897 120.266 19.1203 119.513 19.6726C118.753 20.2337 117.784 20.6004 116.605 20.7729C116.347 20.8075 116.052 20.8334 115.721 20.8505C115.389 20.8679 115.131 20.8766 114.947 20.8764H110.306V27.1932L106.548 27.1932ZM110.306 17.5885H114.781C114.975 17.5885 115.187 17.5799 115.417 17.5626C115.632 17.5479 115.845 17.5132 116.052 17.4591C116.506 17.3595 116.916 17.1312 117.227 16.8054C117.497 16.5092 117.693 16.1597 117.8 15.7828C118.012 15.0847 118.012 14.3451 117.8 13.647C117.693 13.2702 117.497 12.9206 117.227 12.6244C116.916 12.2987 116.506 12.0704 116.052 11.9707C115.845 11.9167 115.632 11.882 115.417 11.8672C115.187 11.85 114.975 11.8413 114.781 11.8413H110.306L110.306 17.5885Z" fill="white"/>
<path d="M129.369 27.6077C128.199 27.6077 127.246 27.4221 126.509 27.0511C125.821 26.7202 125.23 26.2357 124.79 25.6401C124.393 25.0972 124.096 24.4955 123.912 23.8603C123.749 23.308 123.643 22.7423 123.595 22.171C123.558 21.662 123.539 21.2909 123.539 21.0579V13.2136H127.352V19.8153C127.352 20.1346 127.37 20.5423 127.407 21.0385C127.447 21.5495 127.564 22.0527 127.753 22.5336C127.939 23.0254 128.267 23.4597 128.699 23.7891C129.136 24.1257 129.755 24.294 130.557 24.294C130.907 24.2903 131.256 24.2423 131.593 24.1516C131.979 24.047 132.334 23.8585 132.629 23.6014C132.951 23.3296 133.216 22.9283 133.423 22.3976C133.63 21.8669 133.734 21.1701 133.734 20.3072L135.889 21.265C135.896 22.3375 135.651 23.3982 135.171 24.3716C134.701 25.3283 133.951 26.1407 133.009 26.7145C132.046 27.31 130.833 27.6077 129.369 27.6077ZM134.204 27.1935V22.5594H133.734V13.2137H137.519V27.1935L134.204 27.1935Z" fill="white"/>
<path d="M140.696 27.194V13.2142H144.011V16.6315L143.652 16.1914C143.839 15.7182 144.1 15.2733 144.425 14.8711C144.749 14.4733 145.152 14.139 145.613 13.8873C145.98 13.6771 146.375 13.5139 146.787 13.4019C147.215 13.2847 147.655 13.211 148.1 13.1818C148.551 13.1517 149.004 13.1625 149.454 13.2142V16.5021C148.985 16.3763 148.495 16.3346 148.01 16.3791C147.496 16.4098 146.992 16.5306 146.525 16.735C146.1 16.9107 145.72 17.1679 145.408 17.4901C145.096 17.8124 144.86 18.1924 144.715 18.6055C144.552 19.0711 144.473 19.5588 144.481 20.0488V27.194H140.696Z" fill="white"/>
<path d="M156.664 27.5817C154.786 27.5817 153.268 27.1826 152.113 26.3844C150.957 25.5863 150.255 24.458 150.006 22.9994L153.846 22.4558C153.977 23.0732 154.349 23.6227 154.889 23.9962C155.428 24.3673 156.112 24.5528 156.941 24.5528C157.622 24.5528 158.147 24.4298 158.515 24.1838C158.693 24.07 158.836 23.9159 158.933 23.736C159.03 23.556 159.076 23.3561 159.068 23.1548C159.08 22.9151 159.002 22.6791 158.847 22.4882C158.699 22.3199 158.37 22.1538 157.859 21.9898C157.348 21.8259 156.554 21.6101 155.476 21.3426C154.261 21.0493 153.289 20.7214 152.562 20.3588C151.834 19.9964 151.309 19.5628 150.987 19.058C150.664 18.5531 150.503 17.9426 150.503 17.2263C150.503 16.3289 150.747 15.5501 151.235 14.8899C151.754 14.2066 152.471 13.6766 153.301 13.3625C154.189 13.0044 155.237 12.8254 156.443 12.8253C157.613 12.8253 158.649 12.9936 159.551 13.3301C160.398 13.6298 161.151 14.1239 161.741 14.7669C162.301 15.3937 162.658 16.1571 162.77 16.9674L158.93 17.6147C158.907 17.3743 158.832 17.141 158.708 16.9294C158.584 16.7177 158.415 16.5323 158.211 16.3849C157.797 16.083 157.235 15.9061 156.526 15.8542C155.835 15.8111 155.281 15.8974 154.862 16.1131C154.442 16.3289 154.233 16.6396 154.233 17.0451C154.23 17.1585 154.253 17.2712 154.299 17.3759C154.346 17.4807 154.415 17.5752 154.502 17.6535C154.682 17.8175 155.055 17.9857 155.621 18.1583C156.188 18.331 157.051 18.5554 158.211 18.8314C159.344 19.1077 160.254 19.4291 160.94 19.7958C161.626 20.1626 162.125 20.6027 162.439 21.1161C162.751 21.6296 162.908 22.2488 162.908 22.9736C162.908 24.4061 162.356 25.5323 161.251 26.352C160.145 27.172 158.617 27.5819 156.664 27.5817Z" fill="white"/>
<path d="M172.191 27.5817C170.662 27.5817 169.315 27.2732 168.151 26.6562C167.006 26.0583 166.059 25.1759 165.415 24.1062C164.757 23.0233 164.428 21.7828 164.428 20.3847C164.428 18.8573 164.75 17.5284 165.395 16.3979C166.003 15.3034 166.927 14.3908 168.061 13.7637C169.194 13.1382 170.497 12.8254 171.97 12.8253C173.536 12.8253 174.866 13.1705 175.962 13.8608C177.058 14.5513 177.869 15.5222 178.394 16.7733C178.918 18.0246 179.103 19.4959 178.946 21.1873H175.23V19.8928C175.23 18.469 174.988 17.4443 174.505 16.8186C174.021 16.1929 173.232 15.8801 172.136 15.8801C170.856 15.8801 169.914 16.2447 169.311 16.9739C168.708 17.7033 168.406 18.7798 168.406 20.2035C168.406 21.5066 168.708 22.5141 169.311 23.226C169.914 23.9379 170.8 24.2939 171.97 24.2939C172.707 24.2939 173.338 24.1429 173.863 23.8408C174.396 23.5299 174.815 23.0737 175.064 22.5335L178.822 23.5431C178.299 24.7769 177.367 25.8206 176.163 26.5203C174.974 27.2219 173.596 27.5902 172.191 27.5817ZM167.246 21.1873V18.5725H177.136V21.1873H167.246Z" fill="white"/>
</g>
<defs>
<clipPath id="clip0_0_1">
<rect width="1728" height="5615" fill="white" transform="translate(-92 -50)"/>
</clipPath>
</defs>
</svg>
