<svg width="80" height="66" viewBox="0 0 80 66" fill="none" xmlns="http://www.w3.org/2000/svg">
<g clip-path="url(#clip0_12023_4055)">
<path fill-rule="evenodd" clip-rule="evenodd" d="M0.000488281 58.7943C0.000488281 62.2895 2.74238 65.1933 6.19987 65.1933C11.4012 65.1933 48.9741 65.44 50.8196 65.0201C51.5992 64.8431 51.5333 64.747 52.1924 64.5926C51.8968 63.9768 51.9928 63.8601 51.9928 62.9938L49.4035 61.5852C49.0344 61.3498 48.9553 61.2368 48.5937 60.9958C46.7237 61.4308 43.3585 64.2574 39.756 58.2369C38.8408 56.7078 36.7957 53.5968 36.7957 51.998C36.7957 49.4181 37.9218 47.1526 39.9952 46.599V42.1999C35.0048 39.5597 37.2947 35.4035 37.3964 34.2021C36.1968 34.1757 33.9747 33.2021 29.3986 33.2021C19.3764 33.2021 15.7739 34.2002 8.71578 39.716C4.28092 43.181 0.00237145 50.9679 0.00237145 58.7981L0.000488281 58.7943Z" fill="#464DF0"/>
<path fill-rule="evenodd" clip-rule="evenodd" d="M56.1905 28.5978C52.2979 29.5055 50.831 31.4319 48.7915 32.7972C44.2851 29.7804 44.4922 30.3133 42.6618 33.6654C40.9123 36.8705 39.7071 37.4317 42.3285 38.8592C43.0949 39.2753 43.7842 39.8064 44.592 39.9947L44.0195 44.2243C43.948 45.4596 44.5261 47.8042 44.592 48.5932C39.4792 51.2975 40.4585 51.1901 42.1816 54.2032C43.6561 56.7794 44.0572 58.6192 46.1249 57.5364C47.059 57.0468 47.8951 56.4686 48.7915 55.9941C50.7556 57.3104 50.976 58.0448 53.9909 59.3932C54.682 59.702 55.5257 59.8734 56.1905 60.1935V64.393C56.6029 64.6679 56.7102 64.9937 57.1904 64.9937H63.5894C64.0696 64.9937 64.177 64.6698 64.5894 64.393V60.1935C65.821 59.6022 66.239 59.7905 68.6551 58.4591C69.9413 57.7511 70.8434 56.7605 71.9883 55.9941C72.9224 56.4875 73.5909 56.947 74.5231 57.4648C75.7622 58.1541 76.3196 58.0354 77.0785 56.8848C77.4476 56.3236 79.988 52.0037 79.988 51.595C79.988 50.6685 78.9881 50.2071 78.3534 49.8305C77.6322 49.403 76.894 48.968 76.1897 48.5951C76.2857 47.4389 76.7923 45.7045 76.7923 44.3957C76.7923 43.0869 76.2876 41.3525 76.1897 40.1962C81.1989 36.8423 80.9729 39.0268 77.2537 32.1325C76.2556 30.2832 75.7396 30.5412 73.8753 31.6843C73.1691 32.1174 72.6173 32.3773 71.9883 32.7972C71.461 32.4451 71.0618 31.9988 70.446 31.5393C68.6608 30.2098 66.932 29.1439 64.5894 28.5978C64.5894 27.5394 64.6252 26.4321 64.6063 25.3813C64.5611 22.9125 62.3258 23.598 57.7911 23.598C56.7648 23.598 56.2281 24.1422 56.1754 25.1817C56.1227 26.2269 56.1905 27.5206 56.1905 28.5959V28.5978Z" fill="#FFCC00"/>
<path fill-rule="evenodd" clip-rule="evenodd" d="M13.998 13.0014V15.0013C13.998 19.4832 17.1918 23.6413 20.3122 25.6826C21.058 26.1704 21.6907 26.4999 22.5344 26.8596C34.9143 32.1362 47.3187 17.7545 39.2795 5.91503C38.9123 5.37268 38.8388 5.39716 38.4547 4.93955L36.7466 3.24847C29.6264 -2.57805 19.4196 -0.244804 15.4612 7.66826C14.7381 9.11453 13.9961 10.9356 13.9961 13.0014H13.998Z" fill="#464DF0"/>
<path fill-rule="evenodd" clip-rule="evenodd" d="M59.0207 32.1494C57.6121 32.3547 54.7798 31.6767 54.7798 35.3338C54.7798 41.586 54.4672 40.4391 59.2034 45.6705C61.8756 48.6215 62.0187 48.7006 61.804 52.6044L59.0019 52.5912C58.7646 50.9001 59.2015 48.8889 58.7025 47.4275C57.5029 46.9756 56.2449 47.1733 55.0058 47.3277C54.5934 48.7627 54.7798 51.6891 54.7798 53.3143C54.7798 57.0091 57.7948 56.3387 59 56.5251C59.0358 57.5759 59.049 58.5928 60.3427 58.6173C61.6684 58.6437 61.7777 57.6644 61.8342 56.4611C66.64 56.3763 66.0204 55.173 66.0242 49.7589C66.0261 47.452 65.9357 47.356 64.7719 45.9605C63.691 44.663 59.0508 39.8704 58.9379 38.8742C58.8588 38.1718 58.9397 36.9176 58.9322 36.1474L61.8718 36.0607C61.8643 37.6125 61.676 39.6689 62.1242 40.8496C63.3275 41.0511 64.5836 41.262 65.77 40.7574C66.1899 38.8403 66.0261 38.6878 66.028 36.5861C66.0299 32.7219 65.6532 32.2568 61.8078 32.2153C61.8191 31.0741 61.7796 29.9574 60.548 29.884C59.194 29.803 59.0169 30.8707 59.0245 32.1475L59.0207 32.1494Z" fill="#D49900"/>
</g>
<defs>
<clipPath id="clip0_12023_4055">
<rect width="80" height="65.2649" fill="white"/>
</clipPath>
</defs>
</svg>
