<svg width="20" height="24" viewBox="0 0 20 24" fill="none" xmlns="http://www.w3.org/2000/svg">
<path d="M9.59997 3.53687C4.86364 3.53687 1.0105 7.39 1.0105 12.1263C1.0105 16.8627 4.86364 20.7158 9.59997 20.7158C14.3363 20.7158 18.1894 16.8627 18.1894 12.1263C18.1894 7.39 14.3363 3.53687 9.59997 3.53687ZM9.59997 19.7053C5.42094 19.7053 2.02102 16.3054 2.02102 12.1263C2.02102 7.94731 5.42094 4.54739 9.59997 4.54739C13.779 4.54739 17.1789 7.94731 17.1789 12.1263C17.1789 16.3054 13.779 19.7053 9.59997 19.7053Z" fill="white"/>
<path d="M13.2378 11.621H10.1052V8.48842C10.1052 8.20901 9.87885 7.98315 9.59995 7.98315C9.32104 7.98315 9.09468 8.20901 9.09468 8.48842V11.621H5.96205C5.68315 11.621 5.45679 11.8469 5.45679 12.1263C5.45679 12.4057 5.68315 12.6316 5.96205 12.6316H9.09468V15.7642C9.09468 16.0436 9.32104 16.2695 9.59995 16.2695C9.87885 16.2695 10.1052 16.0436 10.1052 15.7642V12.6316H13.2378C13.5167 12.6316 13.7431 12.4057 13.7431 12.1263C13.7431 11.8469 13.5167 11.621 13.2378 11.621Z" fill="white"/>
</svg>
