<svg width="46" height="54" viewBox="0 0 46 54" fill="none" xmlns="http://www.w3.org/2000/svg">
<g clip-path="url(#clip0_12143_9263)">
<path d="M11.2108 13.4622C11.3898 7.35769 16.4626 2.44689 22.6865 2.44689C28.9103 2.44689 33.9832 7.3577 34.1622 13.4622C34.2816 13.4793 34.3924 13.5048 34.5032 13.5304C35.3473 13.7265 36.089 14.1783 36.6432 14.7922V13.8032C36.6432 6.19821 30.3767 0 22.6865 0C14.9962 0 8.73828 6.19821 8.73828 13.8032V14.7837C9.49537 13.9578 10.5232 13.5195 11.2108 13.4622Z" fill="#FDCD00"/>
<path d="M8.07382 20.9566H8.9264C8.94347 22.5765 10.282 23.8895 11.9275 23.8895H12.5243C12.8482 23.8895 13.1296 23.7019 13.2575 23.4291C13.3172 23.3268 13.3428 23.2074 13.3428 23.0795V15.4916C13.3428 15.0734 12.9955 14.6816 12.5243 14.6816H11.9275C10.2861 14.6816 8.94626 15.9977 8.92641 17.6145H8.07383C7.60492 17.6145 7.18717 17.8021 6.8802 18.109C6.57328 18.4074 6.38574 18.8252 6.38574 19.2856C6.38573 20.2063 7.14449 20.9566 8.07382 20.9566Z" fill="#FDCD00"/>
<path d="M31.238 12.4646C31.5876 12.6947 31.8689 13.0102 32.0736 13.3853L32.1418 13.5558C32.3805 13.4535 32.6448 13.4024 32.9177 13.4024C32.713 8.03115 28.2199 3.72565 22.7293 3.72565C17.2387 3.72565 12.7456 8.03115 12.541 13.4024C13.7036 13.4024 14.6213 14.3652 14.6213 15.4912V15.8237C22.7634 17.6482 27.9556 17.5033 31.238 12.4646Z" fill="#F2F2F2"/>
<path d="M32.7135 32.0315H29.8658V28.8615C30.3578 28.2763 30.8196 27.633 31.2442 26.9351H31.9461C33.6001 26.9351 34.9472 25.5881 34.9472 23.9256V23.7018C35.8687 23.2024 36.5043 22.2507 36.5159 21.1441H37.3685C38.2978 21.1441 39.0566 20.3938 39.0566 19.4731C39.0566 19.0127 38.8691 18.5949 38.5621 18.2965C38.2637 17.9896 37.8374 17.802 37.3685 17.802H36.5159C36.4989 16.4208 35.5184 15.2614 34.214 14.9544C33.9923 14.8947 33.7536 14.8691 33.5148 14.8691H32.9266C32.4747 14.8691 32.0996 15.2357 32.0996 15.6791V23.267C32.0996 23.3778 32.1252 23.4802 32.1678 23.5825C32.2957 23.8724 32.5856 24.077 32.9266 24.077H33.5148C33.5627 24.077 33.6072 24.0653 33.6545 24.0631C33.583 24.9528 32.8458 25.6563 31.9461 25.6563C32.0202 25.508 32.0969 25.3629 32.1678 25.2109C31.7501 25.0489 31.3919 24.759 31.1532 24.3839C30.9556 24.8267 30.7406 25.2482 30.5163 25.6563H26.0719C25.6797 25.0765 24.7845 24.6758 23.7358 24.6758C22.3376 24.6758 21.1951 25.4005 21.1951 26.2957C21.1951 27.1909 22.3376 27.9156 23.7358 27.9156C24.7845 27.9156 25.6797 27.5149 26.0719 26.9351H29.7321C28.0993 29.3274 25.6083 31.4006 22.7127 31.4006C18.9032 31.4006 15.8677 27.9379 14.2722 24.4095C14.0335 24.7846 13.6754 25.066 13.2576 25.2195C13.897 26.5873 14.6693 27.7995 15.534 28.8328V32.0315H12.6694C5.68674 32.0315 0 37.5648 0 44.3683V50.1574C0 52.34 1.77338 54.1133 3.96451 54.1133H9.02029V42.2284C9.02029 41.8703 9.31019 41.589 9.65972 41.589C10.0093 41.589 10.2992 41.8703 10.2992 42.2284V54.1133H35.0921V42.2284C35.0921 41.8703 35.3735 41.589 35.7316 41.589C36.0811 41.589 36.371 41.8703 36.371 42.2284V54.1133H41.4268C43.6094 54.1133 45.3913 52.34 45.3913 50.1574V44.3683C45.3913 37.5648 39.7046 32.0315 32.7135 32.0315ZM28.587 32.4067C26.9926 34.001 24.9635 34.8621 22.6957 34.8621C20.7432 34.8621 18.5777 34.1715 16.8129 32.4067V30.1709C18.5872 31.7732 20.6338 32.6795 22.7127 32.6795C24.7818 32.6795 26.8184 31.7808 28.587 30.1911V32.4067Z" fill="#1A1D4A"/>
</g>
<defs>
<clipPath id="clip0_12143_9263">
<rect width="45.3913" height="54" fill="white"/>
</clipPath>
</defs>
</svg>
