<svg width="58" height="55" viewBox="0 0 58 55" fill="none" xmlns="http://www.w3.org/2000/svg">
<g clip-path="url(#clip0_12143_9224)">
<path fill-rule="evenodd" clip-rule="evenodd" d="M52.5625 36.25C49.538 36.25 47.125 38.663 47.125 41.6875V43.5H48.9375C51.9191 43.5 54.375 41.0441 54.375 38.0625V36.25H52.5625Z" fill="#FDCD00"/>
<path fill-rule="evenodd" clip-rule="evenodd" d="M3.625 36.25V38.0625C3.625 41.0441 6.08092 43.5 9.0625 43.5H10.875V41.6875C10.875 38.663 8.46202 36.25 5.4375 36.25H3.625Z" fill="#FDCD00"/>
<path fill-rule="evenodd" clip-rule="evenodd" d="M13.2256 20.9141C11.6423 23.5764 8.74276 25.3745 5.4375 25.3745H3.625V32.6245H5.4375C10.4211 32.6245 14.5 36.7034 14.5 41.687V43.4995H35.811L28.5363 36.2247C24.9227 35.9914 22.0081 33.0768 21.7748 29.4633L13.2256 20.9141Z" fill="#1A1D4A"/>
<path fill-rule="evenodd" clip-rule="evenodd" d="M7.16503 14.8535C5.1078 15.6314 3.625 17.6222 3.625 19.937V21.7495H5.4375C7.78882 21.7495 9.76239 20.2869 10.5281 18.2166L7.16503 14.8535Z" fill="#FDCD00"/>
<path fill-rule="evenodd" clip-rule="evenodd" d="M47.125 14.5V16.3125C47.125 19.337 49.538 21.75 52.5625 21.75H54.375V19.9375C54.375 16.9559 51.9191 14.5 48.9375 14.5H47.125Z" fill="#FDCD00"/>
<path fill-rule="evenodd" clip-rule="evenodd" d="M5.43722 3.625C4.95655 3.62507 4.49559 3.81607 4.15573 4.15601C3.44809 4.86381 3.44809 6.01119 4.15573 6.71899C19.8641 22.4273 35.5724 38.1357 51.2807 53.844C51.9885 54.5516 53.1359 54.5516 53.8437 53.844C54.5514 53.1362 54.5514 51.9888 53.8437 51.281L43.5351 40.9724C43.9036 36.3202 47.8197 32.625 52.5622 32.625H54.3747V25.375H52.5622C47.5786 25.375 43.4997 21.2961 43.4997 16.3125V14.5H17.0627L6.71872 4.15601C6.37885 3.81607 5.9179 3.62507 5.43722 3.625ZM28.9997 21.75C32.9823 21.75 36.2497 25.0174 36.2497 29C36.2497 30.3397 35.8807 31.5954 35.2373 32.6746L25.3252 22.7625C26.4043 22.119 27.66 21.75 28.9997 21.75Z" fill="#1A1D4A"/>
</g>
<defs>
<clipPath id="clip0_12143_9224">
<rect width="58" height="54.375" fill="white"/>
</clipPath>
</defs>
</svg>
