<svg width="47" height="55" viewBox="0 0 47 55" fill="none" xmlns="http://www.w3.org/2000/svg">
<g clip-path="url(#clip0_12143_9244)">
<path d="M43.644 36.5079C42.2542 40.3494 40.02 43.83 37.106 46.6932C33.8223 49.8991 29.5238 52.4465 24.3283 54.2636C23.929 54.4034 23.5096 54.4774 23.0866 54.4828H23.04C22.7841 54.4824 22.5289 54.4572 22.2779 54.4076C22.1004 54.3718 21.9254 54.3243 21.7541 54.2655C16.5523 52.4512 12.248 49.905 8.96149 46.6991C6.04672 43.8375 3.81266 40.3571 2.42461 36.5154C-0.216106 29.3489 -0.0658541 21.4544 0.054973 15.1104L0.0571052 15.013C0.0814128 14.4892 0.0971914 13.9389 0.105862 13.3312C0.132781 11.8868 0.703904 10.5057 1.70505 9.46414C2.70619 8.42257 4.06358 7.79725 5.50584 7.7132C11.7267 7.36607 16.5393 5.33717 20.6513 1.32912L20.6873 1.29614C21.3277 0.704237 22.1678 0.375504 23.0398 0.375504C23.9119 0.375504 24.752 0.704237 25.3924 1.29614L25.4275 1.32912C29.5403 5.33774 34.3528 7.36607 40.5738 7.7132C42.0161 7.79724 43.3734 8.42254 44.3746 9.46409C45.3757 10.5056 45.9469 11.8867 45.9738 13.3311C45.9825 13.9423 45.9981 14.4923 46.0226 15.0129L46.0238 15.0541C46.1447 21.4103 46.2942 29.3205 43.644 36.5079Z" fill="#1A1D4A"/>
<path d="M43.6433 36.5076C42.2536 40.3491 40.0193 43.8297 37.1053 46.6929C33.8216 49.8988 29.5232 52.4462 24.3276 54.2633C23.9283 54.4031 23.509 54.4771 23.0859 54.4825V0.374718C23.942 0.386892 24.7633 0.714941 25.3922 1.29585L25.4273 1.32883C29.5401 5.33744 34.3526 7.36577 40.5736 7.7129C42.0158 7.79695 43.3732 8.42225 44.3743 9.46379C45.3755 10.5053 45.9466 11.8864 45.9736 13.3308C45.9822 13.942 45.9979 14.492 46.0223 15.0126L46.0236 15.0538C46.1441 21.41 46.2936 29.3202 43.6433 36.5076Z" fill="#1A1D4A"/>
<path d="M36.5236 27.4288C36.5193 30.9957 35.1037 34.416 32.586 36.9427C30.0683 39.4694 26.6531 40.8971 23.0862 40.9141H23.0387C19.4623 40.9141 16.0323 39.4933 13.5034 36.9644C10.9744 34.4355 9.55371 31.0055 9.55371 27.4291C9.55371 23.8526 10.9744 20.4227 13.5034 17.8937C16.0323 15.3648 19.4623 13.9441 23.0387 13.9441H23.0862C26.653 13.961 30.0681 15.3887 32.5858 17.9152C35.1035 20.4418 36.5192 23.862 36.5236 27.4288Z" fill="#FFCC00"/>
<path d="M36.5233 27.4286C36.5191 30.9956 35.1035 34.4159 32.5858 36.9425C30.0681 39.4692 26.6528 40.897 23.0859 40.9139V13.9441C26.6527 13.961 30.0679 15.3886 32.5856 17.9152C35.1033 20.4417 36.5189 23.8618 36.5233 27.4286Z" fill="#FDCD00"/>
<path d="M29.1598 25.4872L23.0866 31.5613L21.7743 32.8736C21.4763 33.1712 21.0724 33.3383 20.6513 33.3383C20.2302 33.3383 19.8263 33.1712 19.5283 32.8736L16.7065 30.0509C16.5572 29.904 16.4384 29.7289 16.357 29.5358C16.2756 29.3427 16.2333 29.1354 16.2324 28.9258C16.2316 28.7163 16.2722 28.5086 16.352 28.3149C16.4318 28.1211 16.5492 27.9451 16.6974 27.7969C16.8455 27.6487 17.0216 27.5314 17.2153 27.4516C17.4091 27.3718 17.6167 27.3311 17.8263 27.332C18.0358 27.3328 18.2431 27.3752 18.4362 27.4566C18.6293 27.5379 18.8044 27.6567 18.9514 27.8061L20.6513 29.5059L26.9149 23.2424C27.0618 23.093 27.2369 22.9742 27.43 22.8928C27.6231 22.8115 27.8304 22.7691 28.0399 22.7683C28.2495 22.7674 28.4571 22.8081 28.6509 22.8879C28.8446 22.9677 29.0207 23.085 29.1688 23.2332C29.317 23.3814 29.4344 23.5574 29.5142 23.7512C29.594 23.9449 29.6346 24.1526 29.6338 24.3621C29.6329 24.5717 29.5906 24.779 29.5092 24.9721C29.4278 25.1652 29.309 25.3402 29.1597 25.4872H29.1598Z" fill="white"/>
<path d="M29.1591 25.4872L23.0859 31.5613V27.0703L26.9143 23.2424C27.0613 23.093 27.2364 22.9742 27.4295 22.8928C27.6226 22.8115 27.8299 22.7691 28.0394 22.7683C28.2489 22.7674 28.4566 22.8081 28.6503 22.8879C28.8441 22.9677 29.0201 23.085 29.1683 23.2332C29.3165 23.3814 29.4338 23.5574 29.5136 23.7512C29.5934 23.9449 29.6341 24.1526 29.6332 24.3621C29.6324 24.5717 29.59 24.779 29.5087 24.9721C29.4273 25.1652 29.3085 25.3402 29.1591 25.4872Z" fill="#F6F6F6"/>
</g>
<defs>
<clipPath id="clip0_12143_9244">
<rect width="46.0769" height="54.1076" fill="white" transform="translate(0.000976562 0.374954)"/>
</clipPath>
</defs>
</svg>
