<svg width="188" height="56" viewBox="0 0 188 56" fill="none" xmlns="http://www.w3.org/2000/svg">
<g clip-path="url(#clip0_12143_9625)">
<path d="M180.69 55.5969H6.94962C3.12733 55.5969 0 52.4696 0 48.6473V6.94962C0 3.12733 3.12733 0 6.94962 0H180.69C184.512 0 187.64 3.12733 187.64 6.94962V48.6473C187.64 52.4696 184.512 55.5969 180.69 55.5969Z" fill="black"/>
<path d="M180.69 1.11194C183.915 1.11194 186.528 3.72499 186.528 6.94962V48.6473C186.528 51.8719 183.915 54.485 180.69 54.485H6.94962C3.72499 54.485 1.11194 51.8719 1.11194 48.6473V6.94962C1.11194 3.72499 3.72499 1.11194 6.94962 1.11194H180.69ZM180.69 0H6.94962C3.12733 0 0 3.12733 0 6.94962V48.6473C0 52.4696 3.12733 55.5969 6.94962 55.5969H180.69C184.512 55.5969 187.64 52.4696 187.64 48.6473V6.94962C187.64 3.12733 184.512 0 180.69 0Z" fill="#A6A6A6"/>
<path d="M45.089 28.4241C45.0473 24.6018 48.2163 22.7393 48.3692 22.6559C46.5762 20.0428 43.7964 19.6815 42.8234 19.6537C40.4883 19.4035 38.2228 21.0436 37.0413 21.0436C35.8321 21.0436 33.9974 19.6676 32.0237 19.7092C29.4802 19.7509 27.1034 21.2243 25.8108 23.5037C23.1282 28.16 25.1297 34.9984 27.7011 38.7651C28.9937 40.6137 30.4948 42.6708 32.4685 42.5874C34.4005 42.504 35.1232 41.3643 37.4444 41.3643C39.7517 41.3643 40.4188 42.5874 42.4342 42.5457C44.5052 42.5179 45.8117 40.6971 47.0488 38.8346C48.536 36.7219 49.1337 34.637 49.1615 34.5397C49.092 34.5119 45.1307 32.9969 45.089 28.4241Z" fill="white"/>
<path d="M41.294 17.1797C42.3365 15.8871 43.0454 14.1219 42.8369 12.3289C41.3357 12.3984 39.4594 13.3713 38.3752 14.6361C37.4162 15.7481 36.5683 17.5828 36.7907 19.3063C38.4725 19.4314 40.2099 18.4445 41.294 17.1797Z" fill="white"/>
<path d="M69.4543 37.9178H62.88L61.2955 42.5879H58.5156L64.7425 25.3251H67.6335L73.8604 42.5879H71.0249L69.4543 37.9178ZM63.561 35.7773H68.7733L66.2019 28.2022H66.1324L63.561 35.7773Z" fill="white"/>
<path d="M87.3287 36.2913C87.3287 40.197 85.2299 42.7127 82.0748 42.7127C80.2818 42.7127 78.8641 41.9066 78.1135 40.5166H78.0579V46.7435H75.4727V30.0088H77.9745V32.1076H78.0162C78.739 30.7594 80.2679 29.8837 82.0192 29.8837C85.216 29.8698 87.3287 32.3995 87.3287 36.2913ZM84.6739 36.2913C84.6739 33.7477 83.3535 32.0659 81.352 32.0659C79.3783 32.0659 78.044 33.7755 78.044 36.2913C78.044 38.8209 79.3783 40.5305 81.352 40.5305C83.3535 40.5305 84.6739 38.8626 84.6739 36.2913Z" fill="white"/>
<path d="M101.172 36.291C101.172 40.1967 99.0737 42.7125 95.9185 42.7125C94.1255 42.7125 92.7078 41.9063 91.9573 40.5164H91.9017V46.7432H89.3164V30.0086H91.8183V32.1074H91.86C92.5827 30.7591 94.1116 29.8835 95.8629 29.8835C99.0737 29.8696 101.172 32.3992 101.172 36.291ZM98.5177 36.291C98.5177 33.7475 97.1973 32.0657 95.1958 32.0657C93.2221 32.0657 91.8878 33.7753 91.8878 36.291C91.8878 38.8207 93.2221 40.5303 95.1958 40.5303C97.2112 40.5303 98.5177 38.8624 98.5177 36.291Z" fill="white"/>
<path d="M110.332 37.7787C110.527 39.4883 112.181 40.6141 114.46 40.6141C116.643 40.6141 118.199 39.4883 118.199 37.9455C118.199 36.6111 117.254 35.805 115.016 35.249L112.779 34.7069C109.609 33.9425 108.136 32.4553 108.136 30.0507C108.136 27.0763 110.735 25.0331 114.419 25.0331C118.06 25.0331 120.562 27.0763 120.645 30.0507H118.032C117.88 28.3272 116.448 27.2848 114.377 27.2848C112.306 27.2848 110.874 28.3411 110.874 29.87C110.874 31.0931 111.778 31.802 114.002 32.358L115.906 32.8305C119.45 33.6645 120.923 35.0961 120.923 37.6119C120.923 40.8365 118.352 42.8658 114.266 42.8658C110.443 42.8658 107.858 40.8921 107.691 37.7648L110.332 37.7787Z" fill="white"/>
<path d="M126.497 27.0204V29.9948H128.888V32.038H126.497V38.9737C126.497 40.0579 126.97 40.5582 128.026 40.5582C128.29 40.5582 128.707 40.5165 128.874 40.5026V42.5319C128.582 42.6014 128.012 42.657 127.442 42.657C124.899 42.657 123.898 41.698 123.898 39.2656V32.0519H122.063V30.0087H123.898V27.0343L126.497 27.0204Z" fill="white"/>
<path d="M130.277 36.2909C130.277 32.3296 132.612 29.8417 136.24 29.8417C139.882 29.8417 142.203 32.3296 142.203 36.2909C142.203 40.2661 139.896 42.7402 136.24 42.7402C132.585 42.7402 130.277 40.2661 130.277 36.2909ZM139.59 36.2909C139.59 33.5806 138.339 31.9683 136.254 31.9683C134.169 31.9683 132.918 33.5806 132.918 36.2909C132.918 39.0152 134.155 40.6136 136.254 40.6136C138.353 40.6136 139.59 39.0291 139.59 36.2909Z" fill="white"/>
<path d="M144.344 30.009H146.804V32.1495H146.86C147.249 30.7317 148.402 29.87 149.89 29.87C150.265 29.87 150.571 29.9256 150.779 29.9673V32.3858C150.571 32.3024 150.126 32.2329 149.625 32.2329C147.958 32.2329 146.929 33.3587 146.929 35.1239V42.5878H144.344V30.009Z" fill="white"/>
<path d="M162.69 38.8901C162.342 41.1695 160.118 42.7402 157.269 42.7402C153.613 42.7402 151.334 40.2939 151.334 36.3465C151.334 32.3991 153.613 29.8417 157.158 29.8417C160.633 29.8417 162.829 32.2323 162.829 36.0546V36.9442H153.947V37.0971C153.947 39.2515 155.295 40.6553 157.338 40.6553C158.77 40.6553 159.896 39.9742 160.243 38.8901H162.69ZM153.961 35.1373H160.257C160.202 33.2053 158.965 31.9405 157.172 31.9405C155.379 31.9405 154.086 33.2331 153.961 35.1373Z" fill="white"/>
<path d="M63.2278 12.3428C65.688 12.3428 67.1335 13.8578 67.1335 16.4569C67.1335 19.1117 65.7019 20.6267 63.2278 20.6267H60.2256V12.3428H63.2278ZM61.5321 19.4592H63.0888C64.8262 19.4592 65.827 18.375 65.827 16.4708C65.827 14.5944 64.8123 13.5103 63.0888 13.5103H61.5321V19.4592Z" fill="white"/>
<path d="M68.5928 17.4995C68.5928 15.4841 69.7186 14.2471 71.5394 14.2471C73.3602 14.2471 74.486 15.4702 74.486 17.4995C74.486 19.5288 73.3602 20.7519 71.5394 20.7519C69.7186 20.7519 68.5928 19.5288 68.5928 17.4995ZM73.2212 17.4995C73.2212 16.1374 72.6097 15.3451 71.5394 15.3451C70.4692 15.3451 69.8576 16.1374 69.8576 17.4995C69.8576 18.8616 70.4553 19.6539 71.5394 19.6539C72.6097 19.6539 73.2212 18.8616 73.2212 17.4995Z" fill="white"/>
<path d="M82.3393 20.6267H81.0605L79.7679 16.0122H79.6706L78.378 20.6267H77.1132L75.3896 14.3721H76.6406L77.7664 19.1534H77.8637L79.1563 14.3721H80.3378L81.6304 19.1534H81.7277L82.8396 14.3721H84.0767L82.3393 20.6267Z" fill="white"/>
<path d="M85.5078 14.3719H86.7031V15.3727H86.8004C87.1062 14.6777 87.7317 14.2607 88.6629 14.2607C90.0529 14.2607 90.8312 15.0947 90.8312 16.5819V20.6405H89.5942V16.9016C89.5942 15.9009 89.1633 15.4005 88.246 15.4005C87.3286 15.4005 86.7448 16.012 86.7448 16.985V20.6405H85.5078V14.3719Z" fill="white"/>
<path d="M92.792 11.9258H94.029V20.6267H92.792V11.9258Z" fill="white"/>
<path d="M95.752 17.4995C95.752 15.4841 96.8778 14.2471 98.6986 14.2471C100.519 14.2471 101.645 15.4702 101.645 17.4995C101.645 19.5288 100.519 20.7519 98.6986 20.7519C96.8639 20.7519 95.752 19.5288 95.752 17.4995ZM100.38 17.4995C100.38 16.1374 99.7688 15.3451 98.6986 15.3451C97.6284 15.3451 97.0168 16.1374 97.0168 17.4995C97.0168 18.8616 97.6145 19.6539 98.6986 19.6539C99.7688 19.6539 100.38 18.8616 100.38 17.4995Z" fill="white"/>
<path d="M102.952 18.8614C102.952 17.7355 103.786 17.0823 105.273 16.9989L106.969 16.9016V16.3595C106.969 15.6924 106.538 15.331 105.69 15.331C104.995 15.331 104.523 15.5812 104.384 16.0259H103.188C103.314 14.9557 104.328 14.2607 105.746 14.2607C107.317 14.2607 108.206 15.0391 108.206 16.3595V20.6405H107.011V19.7648H106.913C106.538 20.3903 105.857 20.7517 105.037 20.7517C103.828 20.7378 102.952 20.0011 102.952 18.8614ZM106.969 18.3193V17.7911L105.44 17.8884C104.578 17.944 104.189 18.2359 104.189 18.7919C104.189 19.3618 104.676 19.6814 105.343 19.6814C106.288 19.6953 106.969 19.0977 106.969 18.3193Z" fill="white"/>
<path d="M109.832 17.4994C109.832 15.5257 110.847 14.2748 112.431 14.2748C113.293 14.2748 114.016 14.6778 114.349 15.3728H114.447V11.9258H115.684V20.6267H114.502V19.6399H114.391C114.016 20.3209 113.293 20.7379 112.431 20.7379C110.833 20.7379 109.832 19.487 109.832 17.4994ZM111.097 17.4994C111.097 18.8337 111.722 19.626 112.765 19.626C113.807 19.626 114.447 18.8198 114.447 17.4994C114.447 16.1928 113.793 15.3728 112.765 15.3728C111.736 15.3728 111.097 16.1789 111.097 17.4994Z" fill="white"/>
<path d="M120.784 17.4995C120.784 15.4841 121.91 14.2471 123.731 14.2471C125.552 14.2471 126.677 15.4702 126.677 17.4995C126.677 19.5288 125.552 20.7519 123.731 20.7519C121.896 20.7519 120.784 19.5288 120.784 17.4995ZM125.413 17.4995C125.413 16.1374 124.801 15.3451 123.731 15.3451C122.661 15.3451 122.049 16.1374 122.049 17.4995C122.049 18.8616 122.647 19.6539 123.731 19.6539C124.801 19.6539 125.413 18.8616 125.413 17.4995Z" fill="white"/>
<path d="M128.346 14.3719H129.541V15.3727H129.638C129.944 14.6777 130.57 14.2607 131.501 14.2607C132.891 14.2607 133.669 15.0947 133.669 16.5819V20.6405H132.432V16.9016C132.432 15.9009 132.001 15.4005 131.084 15.4005C130.167 15.4005 129.583 16.012 129.583 16.985V20.6405H128.346V14.3719Z" fill="white"/>
<path d="M140.632 12.8154V14.3999H141.994V15.4424H140.632V18.667C140.632 19.3203 140.896 19.6122 141.521 19.6122C141.716 19.6122 141.813 19.5983 141.994 19.5844V20.6129C141.799 20.6407 141.563 20.6824 141.327 20.6824C139.951 20.6824 139.409 20.1959 139.409 18.9867V15.4563H138.422V14.4138H139.409V12.8154H140.632Z" fill="white"/>
<path d="M143.677 11.9258H144.9V15.3728H144.997C145.303 14.6778 145.956 14.247 146.901 14.247C148.236 14.247 149.056 15.0948 149.056 16.582V20.6267H147.819V16.8878C147.819 15.8871 147.36 15.3867 146.484 15.3867C145.47 15.3867 144.914 16.0261 144.914 16.9712V20.6267H143.677V11.9258Z" fill="white"/>
<path d="M156.269 18.9448C155.991 20.0706 154.991 20.7517 153.559 20.7517C151.766 20.7517 150.668 19.5285 150.668 17.5271C150.668 15.5256 151.794 14.2607 153.559 14.2607C155.296 14.2607 156.353 15.4561 156.353 17.4159V17.8467H151.933V17.9162C151.974 19.0143 152.614 19.7092 153.601 19.7092C154.351 19.7092 154.866 19.4452 155.088 18.9448H156.269ZM151.919 16.9294H155.074C155.046 15.9425 154.449 15.3032 153.531 15.3032C152.628 15.3032 151.988 15.9425 151.919 16.9294Z" fill="white"/>
</g>
<defs>
<clipPath id="clip0_12143_9625">
<rect width="187.64" height="56" fill="white"/>
</clipPath>
</defs>
</svg>
