<svg width="331" height="288" viewBox="0 0 331 288" fill="none" xmlns="http://www.w3.org/2000/svg">
<path d="M99.019 257.795L132.879 268.982L149.201 225.608L310.037 278.75L321.604 248.014L126.908 183.683L99.019 257.795Z" fill="#684DFF"/>
<path d="M314.465 287.423L153.63 234.28L137.307 277.654L89.7627 261.946L122.477 175.012L330.856 243.864L314.465 287.423ZM144.771 216.936L305.606 270.079L312.348 252.164L131.336 192.354L108.272 253.645L128.449 260.312L144.771 216.936Z" fill="#684DFF"/>
<path d="M54.1764 170.805L88.0367 181.993L104.359 138.618L265.194 191.761L276.761 161.024L82.0648 96.6933L54.1764 170.805Z" fill="#684DFF"/>
<path d="M269.625 200.433L108.789 147.29L92.4668 190.665L44.9229 174.956L77.6373 88.0225L286.016 156.874L269.625 200.433ZM99.9307 129.947L260.767 183.09L267.508 165.175L86.4962 105.365L63.4323 166.655L83.6085 173.322L99.9307 129.947Z" fill="#684DFF"/>
<path d="M9.25353 83.5828L43.1139 94.7715L59.436 51.3961L220.272 104.539L231.838 73.802L37.1428 9.47082L9.25353 83.5828Z" fill="#684DFF"/>
<path d="M224.702 113.211L63.8662 60.0681L47.5439 103.443L0 87.7337L32.7144 0.799805L241.093 69.6517L224.702 113.211ZM55.0075 42.7244L215.843 95.8671L222.585 77.9522L41.5733 18.1422L18.5094 79.4326L38.6856 86.099L55.0075 42.7244Z" fill="#684DFF"/>
</svg>
