<svg width="80" height="100" viewBox="0 0 80 100" fill="none" xmlns="http://www.w3.org/2000/svg">
<path d="M61.7769 57.8121C61.0933 57.3058 60.2843 56.9959 59.4374 56.9159C58.5905 56.8359 57.7378 56.9887 56.9714 57.358L46.5266 62.2299C46.4725 62.0316 46.4022 61.8381 46.3166 61.6513C46.0045 61.053 45.5702 60.5271 45.0418 60.1075C44.5134 59.6879 43.9028 59.384 43.2494 59.2155C43.0589 59.1681 42.8614 59.155 42.6663 59.1769C37.2114 59.7775 36.7203 59.5398 33.9912 58.2215C33.1929 57.8357 32.1992 57.356 30.889 56.7994C26.7409 55.0381 22.6772 56.1087 20.1334 57.2141V55C20.1333 54.558 19.9577 54.1341 19.6452 53.8216C19.3326 53.509 18.9087 53.3334 18.4667 53.3334H3.33329C2.89127 53.3334 2.46736 53.509 2.15481 53.8216C1.84225 54.1341 1.66665 54.558 1.66663 55V76.6667C1.66665 77.1087 1.84225 77.5326 2.15481 77.8452C2.46736 78.1577 2.89127 78.3334 3.33329 78.3334H18.4668C18.9088 78.3334 19.3327 78.1577 19.6452 77.8452C19.9578 77.5326 20.1334 77.1087 20.1334 76.6667V75.625H36.9091C39.4277 75.6236 41.906 74.9926 44.1186 73.7895L61.1409 64.5093C61.9253 64.0978 62.5541 63.4419 62.9322 62.6409C63.3102 61.8399 63.4169 60.9375 63.236 60.0704C63.0261 59.1713 62.5103 58.373 61.7769 57.8121Z" fill="#464DF0"/>
<path d="M37.5065 51.447C37.7583 51.5909 38.0433 51.6667 38.3334 51.6667C38.6234 51.6667 38.9084 51.5909 39.1602 51.447L50.8268 44.7803C51.146 44.598 51.3959 44.3153 51.5377 43.9762C51.6795 43.6372 51.7052 43.2607 51.6109 42.9055C51.5166 42.5503 51.3075 42.2362 51.0161 42.0122C50.7248 41.7881 50.3675 41.6667 50 41.6667H26.6667C26.2992 41.6667 25.9419 41.7881 25.6506 42.0122C25.3593 42.2362 25.1502 42.5503 25.0558 42.9055C24.9615 43.2607 24.9872 43.6372 25.129 43.9762C25.2708 44.3153 25.5207 44.598 25.8399 44.7803L37.5065 51.447Z" fill="#FFCC00"/>
<path d="M71.6666 1.66669H8.33329C7.89127 1.66671 7.46736 1.84231 7.15481 2.15487C6.84225 2.46742 6.66665 2.89133 6.66663 3.33335V42.5C6.66665 42.942 6.84225 43.366 7.15481 43.6785C7.46736 43.9911 7.89127 44.1667 8.33329 44.1667H71.6666C72.1086 44.1667 72.5326 43.9911 72.8451 43.6785C73.1577 43.366 73.3333 42.942 73.3333 42.5V3.33335C73.3333 2.89133 73.1577 2.46742 72.8451 2.15487C72.5326 1.84231 72.1086 1.66671 71.6666 1.66669ZM58.4659 14.7811C58.3299 14.7745 58.1943 14.7608 58.0597 14.7402L51.5112 25.8987C51.5752 26.1815 51.6082 26.4704 51.6097 26.7603C51.6059 27.8277 51.1792 28.8501 50.4231 29.6036C49.667 30.357 48.6431 30.7801 47.5756 30.7801C46.5082 30.7801 45.4843 30.357 44.7282 29.6036C43.972 28.8501 43.5454 27.8277 43.5416 26.7603C43.5416 26.6326 43.5677 26.512 43.5795 26.3873L35.5008 20.3943C34.987 20.8494 34.3616 21.1599 33.6885 21.2942C33.0153 21.4284 32.3187 21.3814 31.6696 21.1582L24.9456 30.4495C25.3498 31.0837 25.5656 31.8196 25.568 32.5716C25.5919 33.4255 25.3509 34.2657 24.8782 34.9771C24.4054 35.6885 23.724 36.2361 22.9275 36.5446C22.131 36.8532 21.2586 36.9077 20.4299 36.7005C19.6013 36.4934 18.8571 36.0348 18.2995 35.3877C17.7419 34.7407 17.3983 33.9368 17.3159 33.0867C17.2335 32.2365 17.4163 31.3817 17.8392 30.6396C18.2621 29.8974 18.9043 29.3044 19.6778 28.942C20.4512 28.5795 21.3179 28.4653 22.1588 28.6152L29.1808 18.9121C28.9708 18.4179 28.8629 17.8864 28.8635 17.3495C28.8669 16.2865 29.2899 15.2678 30.0406 14.5152C30.7912 13.7625 31.8088 13.3368 32.8717 13.3305C33.9347 13.3242 34.9572 13.738 35.7166 14.4818C36.4761 15.2255 36.9111 16.2391 36.9271 17.302L45.2571 23.4814C45.8337 23.069 46.5103 22.8187 47.2165 22.7563C47.9227 22.6939 48.6327 22.8218 49.2727 23.1268L55.1742 13.0708C54.6925 12.3972 54.433 11.5899 54.4319 10.7617C54.429 9.96327 54.6631 9.18189 55.1046 8.51656C55.5461 7.85124 56.1752 7.33191 56.912 7.02433C57.6489 6.71675 58.4604 6.63477 59.2439 6.78876C60.0274 6.94276 60.7476 7.3258 61.3132 7.88939C61.8789 8.45297 62.2645 9.17174 62.4214 9.95467C62.5782 10.7376 62.4992 11.5495 62.1943 12.2874C61.8894 13.0254 61.3724 13.6563 60.7087 14.1002C60.0449 14.5441 59.2644 14.7811 58.4659 14.7811Z" fill="#FFCC00"/>
</svg>
