<svg width="396" height="316" viewBox="0 0 396 316" fill="none" xmlns="http://www.w3.org/2000/svg">
<mask id="mask0_12387_1928" style="mask-type:luminance" maskUnits="userSpaceOnUse" x="0" y="0" width="396" height="316">
<path d="M356 0H40C17.9086 0 0 17.9086 0 40V276C0 298.091 17.9086 316 40 316H356C378.091 316 396 298.091 396 276V40C396 17.9086 378.091 0 356 0Z" fill="white"/>
</mask>
<g mask="url(#mask0_12387_1928)">
<path d="M356 0H40C17.9086 0 0 17.9086 0 40V276C0 298.091 17.9086 316 40 316H356C378.091 316 396 298.091 396 276V40C396 17.9086 378.091 0 356 0Z" fill="#6B7CF3"/>
<mask id="mask1_12387_1928" style="mask-type:alpha" maskUnits="userSpaceOnUse" x="-54" y="-41" width="501" height="390">
<path d="M227.188 19.7825L234.262 24.3328L239.249 12.5942L272.848 34.208L276.383 25.8897L235.71 -0.27417L227.188 19.7825Z" fill="#272948" fill-opacity="0.24"/>
<path d="M273.54 36.8626L239.942 15.2489L234.954 26.9874L225.022 20.5984L235.019 -2.92822L278.549 25.0745L273.54 36.8626ZM238.558 9.94026L272.156 31.5539L274.216 26.7057L236.403 2.38046L229.355 18.9672L233.57 21.6786L238.558 9.94026Z" fill="#272948" fill-opacity="0.24"/>
<path d="M216.977 194.584L224.051 199.134L229.038 187.395L262.637 209.009L266.172 200.691L225.5 174.527L216.977 194.584Z" fill="#272948" fill-opacity="0.24"/>
<path d="M263.329 211.664L229.731 190.05L224.743 201.789L214.811 195.4L224.808 171.873L268.338 199.876L263.329 211.664ZM228.347 184.741L261.945 206.355L264.006 201.507L226.192 177.182L219.144 193.768L223.359 196.48L228.347 184.741Z" fill="#272948" fill-opacity="0.24"/>
<path d="M222.939 106.105L230.013 110.655L235 98.9166L268.599 120.53L272.134 112.212L231.461 86.0482L222.939 106.105Z" fill="#272948" fill-opacity="0.24"/>
<path d="M269.291 123.185L235.693 101.571L230.705 113.31L220.773 106.921L230.77 83.394L274.3 111.397L269.291 123.185ZM234.309 96.2626L267.907 117.876L269.967 113.028L232.154 88.7027L225.106 105.29L229.321 108.001L234.309 96.2626Z" fill="#272948" fill-opacity="0.24"/>
<path d="M212.727 280.906L219.801 285.456L224.788 273.718L258.387 295.332L261.922 287.013L221.25 260.849L212.727 280.906Z" fill="#272948" fill-opacity="0.24"/>
<path d="M259.079 297.986L225.481 276.373L220.493 288.111L210.561 281.722L220.558 258.195L264.088 286.198L259.079 297.986ZM224.097 271.064L257.695 292.678L259.756 287.829L221.942 263.504L214.894 280.091L219.109 282.802L224.097 271.064Z" fill="#272948" fill-opacity="0.24"/>
<path d="M54.8721 23.906L61.9455 28.4562L66.9334 16.7176L100.532 38.3315L104.066 30.0131L63.3945 3.84924L54.8721 23.906Z" fill="#272948" fill-opacity="0.24"/>
<path d="M101.225 40.986L67.6261 19.3723L62.6381 31.1108L52.7061 24.7218L62.7032 1.19519L106.234 29.1979L101.225 40.986ZM66.242 14.0636L99.8407 35.6773L101.901 30.8291L64.0873 6.50387L57.0393 23.0906L61.2541 25.802L66.242 14.0636Z" fill="#272948" fill-opacity="0.24"/>
<path d="M44.6611 198.707L51.7346 203.257L56.7225 191.519L90.321 213.133L93.8557 204.814L53.1835 178.651L44.6611 198.707Z" fill="#272948" fill-opacity="0.24"/>
<path d="M91.0138 215.787L57.415 194.174L52.4271 205.912L42.4951 199.523L52.4922 175.996L96.0226 203.999L91.0138 215.787ZM56.0309 188.865L89.6297 210.479L91.6898 205.63L53.8763 181.305L46.8283 197.892L51.0431 200.603L56.0309 188.865Z" fill="#272948" fill-opacity="0.24"/>
<path d="M50.624 110.227L57.6975 114.777L62.6853 103.039L96.2839 124.653L99.8186 116.334L59.1464 90.1704L50.624 110.227Z" fill="#272948" fill-opacity="0.24"/>
<path d="M96.9767 127.307L63.3779 105.693L58.39 117.432L48.458 111.043L58.4551 87.5164L101.986 115.519L96.9767 127.307ZM61.9938 100.385L95.5926 121.998L97.6527 117.15L59.8392 92.8251L52.7912 109.412L57.006 112.123L61.9938 100.385Z" fill="#272948" fill-opacity="0.24"/>
<path d="M40.4121 285.03L47.4856 289.58L52.4734 277.841L86.072 299.455L89.6067 291.137L48.9345 264.973L40.4121 285.03Z" fill="#272948" fill-opacity="0.24"/>
<path d="M86.7647 302.11L53.166 280.496L48.1781 292.235L38.2461 285.845L48.2431 262.319L91.7736 290.322L86.7647 302.11ZM51.7819 275.187L85.3807 296.801L87.4408 291.953L49.6273 267.627L42.5792 284.214L46.7941 286.926L51.7819 275.187Z" fill="#272948" fill-opacity="0.24"/>
<path d="M389.316 191.088L396.389 195.638L401.377 183.899L434.976 205.513L438.511 197.195L397.838 171.031L389.316 191.088Z" fill="#272948" fill-opacity="0.24"/>
<path d="M435.668 208.168L402.07 186.554L397.082 198.292L387.15 191.903L397.147 168.377L440.677 196.38L435.668 208.168ZM400.686 181.245L434.284 202.859L436.344 198.011L398.531 173.685L391.483 190.272L395.698 192.984L400.686 181.245Z" fill="#272948" fill-opacity="0.24"/>
<path d="M395.279 102.606L402.352 107.157L407.34 95.4179L440.939 117.032L444.474 108.713L403.801 82.5496L395.279 102.606Z" fill="#272948" fill-opacity="0.24"/>
<path d="M441.631 119.686L408.032 98.0726L403.045 109.811L393.113 103.422L403.11 79.8955L446.64 107.898L441.631 119.686ZM406.648 92.764L440.247 114.378L442.307 109.529L404.494 85.2042L397.446 101.791L401.661 104.502L406.648 92.764Z" fill="#272948" fill-opacity="0.24"/>
<path d="M385.067 277.409L392.14 281.959L397.128 270.22L430.727 291.834L434.262 283.516L393.589 257.352L385.067 277.409Z" fill="#272948" fill-opacity="0.24"/>
<path d="M431.419 294.489L397.821 272.875L392.833 284.614L382.901 278.225L392.898 254.698L436.428 282.701L431.419 294.489ZM396.436 267.566L430.035 289.18L432.095 284.332L394.282 260.007L387.234 276.593L391.449 279.305L396.436 267.566Z" fill="#272948" fill-opacity="0.24"/>
<path d="M-31.2969 25.6534L-24.2234 30.2036L-19.2356 18.4651L14.363 40.0789L17.8977 31.7606L-22.7745 5.59668L-31.2969 25.6534Z" fill="#272948" fill-opacity="0.24"/>
<path d="M15.0558 42.7334L-18.543 21.1197L-23.5309 32.8583L-33.4629 26.4692L-23.4658 2.94263L20.0646 30.9453L15.0558 42.7334ZM-19.9271 15.8111L13.6717 37.4248L15.7318 32.5765L-22.0817 8.25131L-29.1297 24.8381L-24.9149 27.5494L-19.9271 15.8111Z" fill="#272948" fill-opacity="0.24"/>
<path d="M-41.5098 200.456L-34.4363 205.006L-29.4484 193.268L4.15015 214.881L7.68488 206.563L-32.9874 180.399L-41.5098 200.456Z" fill="#272948" fill-opacity="0.24"/>
<path d="M4.84288 217.536L-28.7559 195.922L-33.7438 207.661L-43.6758 201.272L-33.6787 177.745L9.8517 205.748L4.84288 217.536ZM-30.14 190.614L3.4588 212.227L5.51896 207.379L-32.2946 183.054L-39.3426 199.641L-35.1278 202.352L-30.14 190.614Z" fill="#272948" fill-opacity="0.24"/>
<path d="M-35.5469 111.976L-28.4734 116.526L-23.4856 104.787L10.113 126.401L13.6477 118.083L-27.0245 91.9191L-35.5469 111.976Z" fill="#272948" fill-opacity="0.24"/>
<path d="M10.8058 129.056L-22.793 107.442L-27.7809 119.181L-37.7129 112.792L-27.7158 89.265L15.8146 117.268L10.8058 129.056ZM-24.1771 102.133L9.42168 123.747L11.4818 118.899L-26.3317 94.5737L-33.3797 111.16L-29.1649 113.872L-24.1771 102.133Z" fill="#272948" fill-opacity="0.24"/>
<path d="M-45.7588 286.777L-38.6853 291.327L-33.6975 279.589L-0.0988998 301.203L3.43583 292.884L-37.2364 266.72L-45.7588 286.777Z" fill="#272948" fill-opacity="0.24"/>
<path d="M0.593834 303.857L-33.0049 282.243L-37.9928 293.982L-47.9248 287.593L-37.9278 264.066L5.60265 292.069L0.593834 303.857ZM-34.389 276.935L-0.790245 298.548L1.26991 293.7L-36.5436 269.375L-43.5917 285.962L-39.3768 288.673L-34.389 276.935Z" fill="#272948" fill-opacity="0.24"/>
<path d="M313.358 18.0325L320.431 22.5828L325.419 10.8442L359.018 32.458L362.553 24.1397L321.88 -2.02417L313.358 18.0325Z" fill="#272948" fill-opacity="0.24"/>
<path d="M359.71 35.1126L326.112 13.4989L321.124 25.2374L311.192 18.8484L321.189 -4.67822L364.719 23.3245L359.71 35.1126ZM324.728 8.19026L358.326 29.8039L360.386 24.9557L322.573 0.630457L315.525 17.2172L319.74 19.9286L324.728 8.19026Z" fill="#272948" fill-opacity="0.24"/>
<path d="M303.146 192.835L310.22 197.385L315.207 185.647L348.806 207.261L352.341 198.942L311.668 172.778L303.146 192.835Z" fill="#272948" fill-opacity="0.24"/>
<path d="M349.498 209.915L315.9 188.301L310.912 200.04L300.98 193.651L310.977 170.124L354.507 198.127L349.498 209.915ZM314.516 182.993L348.114 204.606L350.174 199.758L312.361 175.433L305.313 192.02L309.528 194.731L314.516 182.993Z" fill="#272948" fill-opacity="0.24"/>
<path d="M309.108 104.356L316.181 108.907L321.169 97.1679L354.768 118.782L358.303 110.463L317.63 84.2996L309.108 104.356Z" fill="#272948" fill-opacity="0.24"/>
<path d="M355.46 121.436L321.862 99.8226L316.874 111.561L306.942 105.172L316.939 81.6455L360.469 109.648L355.46 121.436ZM320.478 94.514L354.076 116.128L356.136 111.279L318.323 86.9542L311.275 103.541L315.49 106.252L320.478 94.514Z" fill="#272948" fill-opacity="0.24"/>
<path d="M298.897 279.156L305.971 283.706L310.958 271.968L344.557 293.582L348.092 285.263L307.419 259.099L298.897 279.156Z" fill="#272948" fill-opacity="0.24"/>
<path d="M345.249 296.236L311.651 274.623L306.663 286.361L296.731 279.972L306.728 256.445L350.258 284.448L345.249 296.236ZM310.267 269.314L343.865 290.928L345.925 286.079L308.112 261.754L301.064 278.341L305.279 281.052L310.267 269.314Z" fill="#272948" fill-opacity="0.24"/>
<path d="M141.044 22.1585L148.117 26.7088L153.105 14.9702L186.703 36.584L190.238 28.2657L149.566 2.10181L141.044 22.1585Z" fill="#272948" fill-opacity="0.24"/>
<path d="M187.396 39.2386L153.797 17.6249L148.809 29.3634L138.877 22.9744L148.874 -0.552246L192.405 27.4505L187.396 39.2386ZM152.413 12.3162L186.012 33.9299L188.072 29.0817L150.258 4.75644L143.21 21.3432L147.425 24.0545L152.413 12.3162Z" fill="#272948" fill-opacity="0.24"/>
<path d="M130.832 196.96L137.905 201.51L142.893 189.771L176.492 211.385L180.026 203.067L139.354 176.903L130.832 196.96Z" fill="#272948" fill-opacity="0.24"/>
<path d="M177.184 214.04L143.585 192.426L138.597 204.165L128.665 197.776L138.662 174.249L182.193 202.252L177.184 214.04ZM142.201 187.117L175.8 208.731L177.86 203.883L140.047 179.558L132.998 196.144L137.213 198.856L142.201 187.117Z" fill="#272948" fill-opacity="0.24"/>
<path d="M136.795 108.48L143.868 113.03L148.856 101.291L182.454 122.905L185.989 114.587L145.317 88.4231L136.795 108.48Z" fill="#272948" fill-opacity="0.24"/>
<path d="M183.147 125.56L149.548 103.946L144.56 115.685L134.628 109.296L144.625 85.769L188.156 113.772L183.147 125.56ZM148.164 98.6375L181.763 120.251L183.823 115.403L146.009 91.0777L138.961 107.664L143.176 110.376L148.164 98.6375Z" fill="#272948" fill-opacity="0.24"/>
<path d="M126.583 283.281L133.656 287.831L138.644 276.092L172.243 297.706L175.777 289.388L135.105 263.224L126.583 283.281Z" fill="#272948" fill-opacity="0.24"/>
<path d="M172.935 300.361L139.336 278.747L134.348 290.486L124.416 284.097L134.413 260.57L177.944 288.573L172.935 300.361ZM137.952 273.438L171.551 295.052L173.611 290.204L135.798 265.879L128.749 282.465L132.964 285.177L137.952 273.438Z" fill="#272948" fill-opacity="0.24"/>
<path d="M270.273 18.9075L277.347 23.4578L282.334 11.7192L315.933 33.333L319.468 25.0147L278.795 -1.14917L270.273 18.9075Z" fill="#272948" fill-opacity="0.24"/>
<path d="M316.625 35.9876L283.027 14.3739L278.039 26.1124L268.107 19.7234L278.104 -3.80322L321.634 24.1995L316.625 35.9876ZM281.643 9.06526L315.241 30.6789L317.301 25.8307L279.488 1.50546L272.44 18.0922L276.655 20.8036L281.643 9.06526Z" fill="#272948" fill-opacity="0.24"/>
<path d="M260.062 193.71L267.135 198.26L272.122 186.522L305.721 208.136L309.257 199.817L268.585 173.653L260.062 193.71Z" fill="#272948" fill-opacity="0.24"/>
<path d="M306.414 210.79L272.816 189.176L267.828 200.915L257.896 194.526L267.893 170.999L311.423 199.002L306.414 210.79ZM271.432 183.868L305.03 205.481L307.091 200.633L269.277 176.308L262.229 192.895L266.444 195.606L271.432 183.868Z" fill="#272948" fill-opacity="0.24"/>
<path d="M266.024 105.23L273.097 109.78L278.085 98.0417L311.684 119.656L315.219 111.337L274.546 85.1733L266.024 105.23Z" fill="#272948" fill-opacity="0.24"/>
<path d="M312.376 122.31L278.778 100.696L273.79 112.435L263.858 106.046L273.855 82.5192L317.385 110.522L312.376 122.31ZM277.394 95.3877L310.992 117.001L313.052 112.153L275.239 87.8279L268.191 104.415L272.406 107.126L277.394 95.3877Z" fill="#272948" fill-opacity="0.24"/>
<path d="M255.812 280.031L262.886 284.581L267.873 272.843L301.472 294.457L305.007 286.138L264.334 259.974L255.812 280.031Z" fill="#272948" fill-opacity="0.24"/>
<path d="M302.164 297.111L268.566 275.498L263.578 287.236L253.646 280.847L263.643 257.32L307.173 285.323L302.164 297.111ZM267.182 270.189L300.78 291.803L302.841 286.954L265.027 262.629L257.979 279.216L262.194 281.927L267.182 270.189Z" fill="#272948" fill-opacity="0.24"/>
<path d="M97.958 23.031L105.031 27.5812L110.019 15.8426L143.617 37.4565L147.152 29.1381L106.48 2.97424L97.958 23.031Z" fill="#272948" fill-opacity="0.24"/>
<path d="M144.311 40.111L110.712 18.4973L105.724 30.2358L95.792 23.8468L105.789 0.32019L149.32 28.3229L144.311 40.111ZM109.328 13.1886L142.927 34.8023L144.987 29.9541L107.173 5.62887L100.125 22.2156L104.34 24.927L109.328 13.1886Z" fill="#272948" fill-opacity="0.24"/>
<path d="M87.7461 197.834L94.8196 202.384L99.8074 190.645L133.406 212.259L136.94 203.941L96.2685 177.777L87.7461 197.834Z" fill="#272948" fill-opacity="0.24"/>
<path d="M134.099 214.914L100.5 193.3L95.512 205.038L85.5801 198.649L95.5771 175.123L139.108 203.126L134.099 214.914ZM99.1159 187.991L132.715 209.605L134.775 204.757L96.9613 180.431L89.9132 197.018L94.128 199.73L99.1159 187.991Z" fill="#272948" fill-opacity="0.24"/>
<path d="M93.708 109.353L100.781 113.904L105.769 102.165L139.367 123.779L142.902 115.461L102.23 89.2969L93.708 109.353Z" fill="#272948" fill-opacity="0.24"/>
<path d="M140.061 126.434L106.462 104.82L101.474 116.558L91.542 110.169L101.539 86.6427L145.07 114.645L140.061 126.434ZM105.078 99.5111L138.677 121.125L140.737 116.277L102.923 91.9513L95.8751 108.538L100.09 111.249L105.078 99.5111Z" fill="#272948" fill-opacity="0.24"/>
<path d="M83.4971 284.155L90.5705 288.705L95.5584 276.966L129.157 298.58L132.691 290.262L92.0195 264.098L83.4971 284.155Z" fill="#272948" fill-opacity="0.24"/>
<path d="M129.85 301.235L96.2511 279.621L91.2631 291.36L81.3311 284.97L91.3282 261.444L134.859 289.447L129.85 301.235ZM94.867 274.312L128.466 295.926L130.526 291.078L92.7123 266.752L85.6643 283.339L89.8791 286.051L94.867 274.312Z" fill="#272948" fill-opacity="0.24"/>
<path d="M11.7871 24.781L18.8606 29.3312L23.8484 17.5926L57.447 39.2065L60.9817 30.8881L20.3095 4.72424L11.7871 24.781Z" fill="#272948" fill-opacity="0.24"/>
<path d="M58.1397 41.861L24.541 20.2473L19.5531 31.9858L9.62109 25.5968L19.6181 2.07019L63.1486 30.0729L58.1397 41.861ZM23.1569 14.9386L56.7557 36.5523L58.8158 31.7041L21.0023 7.37887L13.9542 23.9656L18.1691 26.677L23.1569 14.9386Z" fill="#272948" fill-opacity="0.24"/>
<path d="M1.57617 199.582L8.64963 204.132L13.6375 192.394L47.236 214.008L50.7708 205.689L10.0986 179.526L1.57617 199.582Z" fill="#272948" fill-opacity="0.24"/>
<path d="M47.9288 216.662L14.3301 195.049L9.34214 206.787L-0.589844 200.398L9.40723 176.871L52.9376 204.874L47.9288 216.662ZM12.946 189.74L46.5447 211.354L48.6049 206.505L10.7913 182.18L3.74332 198.767L7.95814 201.478L12.946 189.74Z" fill="#272948" fill-opacity="0.24"/>
<path d="M7.53906 111.102L14.6125 115.652L19.6004 103.914L53.1989 125.528L56.7337 117.209L16.0615 91.0454L7.53906 111.102Z" fill="#272948" fill-opacity="0.24"/>
<path d="M53.8917 128.182L20.2929 106.568L15.305 118.307L5.37305 111.918L15.3701 88.3914L58.9005 116.394L53.8917 128.182ZM18.9089 101.26L52.5076 122.873L54.5678 118.025L16.7542 93.7001L9.70621 110.287L13.921 112.998L18.9089 101.26Z" fill="#272948" fill-opacity="0.24"/>
<path d="M-2.67285 285.903L4.40061 290.454L9.38846 278.715L42.987 300.329L46.5218 292.011L5.84953 265.847L-2.67285 285.903Z" fill="#272948" fill-opacity="0.24"/>
<path d="M43.6798 302.983L10.081 281.37L5.09312 293.108L-4.83887 286.719L5.1582 263.193L48.6886 291.195L43.6798 302.983ZM8.69698 276.061L42.2957 297.675L44.3559 292.827L6.54234 268.501L-0.505699 285.088L3.70912 287.799L8.69698 276.061Z" fill="#272948" fill-opacity="0.24"/>
<path d="M356.443 17.1599L363.516 21.7101L368.504 9.97152L402.103 31.5854L405.638 23.267L364.965 -2.89685L356.443 17.1599Z" fill="#272948" fill-opacity="0.24"/>
<path d="M402.795 34.2399L369.197 12.6262L364.209 24.3648L354.277 17.9757L364.274 -5.5509L407.804 22.4518L402.795 34.2399ZM367.812 7.31758L401.411 28.9312L403.471 24.083L365.658 -0.242224L358.61 16.3445L362.825 19.0559L367.812 7.31758Z" fill="#272948" fill-opacity="0.24"/>
<path d="M346.231 191.961L353.305 196.512L358.292 184.773L391.891 206.387L395.426 198.068L354.753 171.905L346.231 191.961Z" fill="#272948" fill-opacity="0.24"/>
<path d="M392.583 209.041L358.985 187.428L353.997 199.166L344.065 192.777L354.062 169.25L397.592 197.253L392.583 209.041ZM357.601 182.119L391.199 203.733L393.259 198.884L355.446 174.559L348.398 191.146L352.613 193.857L357.601 182.119Z" fill="#272948" fill-opacity="0.24"/>
<path d="M352.194 103.482L359.267 108.032L364.255 96.2932L397.854 117.907L401.389 109.589L360.716 83.4248L352.194 103.482Z" fill="#272948" fill-opacity="0.24"/>
<path d="M398.546 120.562L364.948 98.948L359.96 110.686L350.028 104.297L360.025 80.7708L403.555 108.773L398.546 120.562ZM363.563 93.6393L397.162 115.253L399.222 110.405L361.409 86.0795L354.361 102.666L358.576 105.378L363.563 93.6393Z" fill="#272948" fill-opacity="0.24"/>
<path d="M341.982 278.284L349.055 282.834L354.043 271.095L387.642 292.709L391.177 284.391L350.504 258.227L341.982 278.284Z" fill="#272948" fill-opacity="0.24"/>
<path d="M388.334 295.364L354.736 273.75L349.748 285.488L339.816 279.099L349.813 255.573L393.343 283.575L388.334 295.364ZM353.352 268.441L386.95 290.055L389.01 285.207L351.197 260.881L344.149 277.468L348.364 280.18L353.352 268.441Z" fill="#272948" fill-opacity="0.24"/>
<path d="M184.129 21.2833L191.202 25.8335L196.19 14.0949L229.788 35.7088L233.323 27.3904L192.651 1.22656L184.129 21.2833Z" fill="#272948" fill-opacity="0.24"/>
<path d="M230.481 38.3633L196.882 16.7496L191.894 28.4882L181.962 22.0991L191.959 -1.42749L235.49 26.5752L230.481 38.3633ZM195.498 11.441L229.097 33.0546L231.157 28.2064L193.343 3.88119L186.295 20.468L190.51 23.1793L195.498 11.441Z" fill="#272948" fill-opacity="0.24"/>
<path d="M173.917 196.085L180.99 200.635L185.978 188.896L219.576 210.51L223.111 202.192L182.439 176.028L173.917 196.085Z" fill="#272948" fill-opacity="0.24"/>
<path d="M220.269 213.165L186.67 191.551L181.682 203.29L171.75 196.901L181.747 173.374L225.278 201.377L220.269 213.165ZM185.286 186.242L218.885 207.856L220.945 203.008L183.131 178.683L176.083 195.269L180.298 197.981L185.286 186.242Z" fill="#272948" fill-opacity="0.24"/>
<path d="M179.88 107.605L186.953 112.155L191.941 100.416L225.539 122.03L229.074 113.712L188.402 87.5481L179.88 107.605Z" fill="#272948" fill-opacity="0.24"/>
<path d="M226.232 124.685L192.633 103.071L187.645 114.81L177.713 108.421L187.71 84.894L231.241 112.897L226.232 124.685ZM191.249 97.7625L224.848 119.376L226.908 114.528L189.094 90.2027L182.046 106.789L186.261 109.501L191.249 97.7625Z" fill="#272948" fill-opacity="0.24"/>
<path d="M169.668 282.406L176.741 286.956L181.729 275.218L215.327 296.831L218.862 288.513L178.19 262.349L169.668 282.406Z" fill="#272948" fill-opacity="0.24"/>
<path d="M216.02 299.486L182.421 277.872L177.433 289.611L167.501 283.222L177.498 259.695L221.029 287.698L216.02 299.486ZM181.037 272.564L214.636 294.177L216.696 289.329L178.882 265.004L171.834 281.591L176.049 284.302L181.037 272.564Z" fill="#272948" fill-opacity="0.24"/>
<path d="M222.106 64.6417L229.18 69.1919L234.167 57.4533L267.766 79.0672L271.301 70.7488L230.628 44.585L222.106 64.6417Z" fill="#272948" fill-opacity="0.24"/>
<path d="M268.458 81.7217L234.86 60.108L229.872 71.8466L219.94 65.4575L229.937 41.9309L273.467 69.9336L268.458 81.7217ZM233.476 54.7994L267.074 76.413L269.134 71.5648L231.321 47.2396L224.273 63.8264L228.488 66.5377L233.476 54.7994Z" fill="#272948" fill-opacity="0.24"/>
<path d="M211.895 239.443L218.969 243.993L223.956 232.254L257.555 253.868L261.09 245.55L220.418 219.386L211.895 239.443Z" fill="#272948" fill-opacity="0.24"/>
<path d="M258.247 256.523L224.649 234.909L219.661 246.648L209.729 240.259L219.726 216.732L263.256 244.735L258.247 256.523ZM223.265 229.6L256.863 251.214L258.924 246.366L221.11 222.041L214.062 238.628L218.277 241.339L223.265 229.6Z" fill="#272948" fill-opacity="0.24"/>
<path d="M217.857 150.963L224.93 155.513L229.918 143.774L263.517 165.388L267.052 157.07L226.379 130.906L217.857 150.963Z" fill="#272948" fill-opacity="0.24"/>
<path d="M264.209 168.043L230.611 146.429L225.623 158.167L215.691 151.778L225.688 128.252L269.218 156.255L264.209 168.043ZM229.227 141.12L262.825 162.734L264.885 157.886L227.072 133.56L220.024 150.147L224.239 152.859L229.227 141.12Z" fill="#272948" fill-opacity="0.24"/>
<path d="M207.646 325.764L214.72 330.314L219.707 318.576L253.306 340.189L256.841 331.871L216.168 305.707L207.646 325.764Z" fill="#272948" fill-opacity="0.24"/>
<path d="M253.997 342.844L220.399 321.23L215.411 332.969L205.479 326.58L215.477 303.053L259.006 331.056L253.997 342.844ZM219.016 315.922L252.613 337.535L254.674 332.687L216.86 308.362L209.812 324.949L214.027 327.66L219.016 315.922Z" fill="#272948" fill-opacity="0.24"/>
<path d="M49.791 68.764L56.8645 73.3142L61.8523 61.5756L95.4509 83.1895L98.9856 74.8711L58.3134 48.7073L49.791 68.764Z" fill="#272948" fill-opacity="0.24"/>
<path d="M96.1436 85.8439L62.5449 64.2302L57.557 75.9688L47.625 69.5797L57.6221 46.0531L101.153 74.0558L96.1436 85.8439ZM61.1608 58.9215L94.7596 80.5352L96.8197 75.687L59.0062 51.3617L51.9581 67.9485L56.173 70.6599L61.1608 58.9215Z" fill="#272948" fill-opacity="0.24"/>
<path d="M39.5791 243.566L46.6526 248.117L51.6404 236.378L85.239 257.992L88.7737 249.674L48.1015 223.51L39.5791 243.566Z" fill="#272948" fill-opacity="0.24"/>
<path d="M85.9317 260.646L52.333 239.033L47.345 250.771L37.4131 244.382L47.4101 220.856L90.9405 248.858L85.9317 260.646ZM50.9489 233.724L84.5476 255.338L86.6078 250.49L48.7943 226.164L41.7462 242.751L45.9611 245.462L50.9489 233.724Z" fill="#272948" fill-opacity="0.24"/>
<path d="M45.542 155.086L52.6155 159.637L57.6033 147.898L91.2019 169.512L94.7366 161.193L54.0644 135.03L45.542 155.086Z" fill="#272948" fill-opacity="0.24"/>
<path d="M91.8946 172.166L58.2959 150.553L53.3079 162.291L43.376 155.902L53.373 132.375L96.9034 160.378L91.8946 172.166ZM56.9118 145.244L90.5105 166.858L92.5707 162.009L54.7572 137.684L47.7091 154.271L51.9239 156.982L56.9118 145.244Z" fill="#272948" fill-opacity="0.24"/>
<path d="M35.3301 329.888L42.4035 334.438L47.3914 322.699L80.99 344.313L84.5247 335.995L43.8525 309.831L35.3301 329.888Z" fill="#272948" fill-opacity="0.24"/>
<path d="M81.6828 346.968L48.0841 325.354L43.0961 337.092L33.1641 330.703L43.1612 307.177L86.6916 335.179L81.6828 346.968ZM46.7 320.045L80.2987 341.659L82.3589 336.811L44.5453 312.485L37.4973 329.072L41.7121 331.784L46.7 320.045Z" fill="#272948" fill-opacity="0.24"/>
<path d="M394.447 61.143L401.52 65.6933L406.508 53.9547L440.107 75.5685L443.641 67.2502L402.969 41.0863L394.447 61.143Z" fill="#272948" fill-opacity="0.24"/>
<path d="M440.799 78.2231L407.2 56.6095L402.213 68.3479L392.281 61.9589L402.278 38.4323L445.808 66.435L440.799 78.2231ZM405.816 51.3008L439.415 72.9144L441.475 68.0662L403.662 43.7409L396.614 60.3278L400.829 63.0391L405.816 51.3008Z" fill="#272948" fill-opacity="0.24"/>
<path d="M384.235 235.945L391.308 240.496L396.296 228.757L429.895 250.371L433.43 242.053L392.757 215.889L384.235 235.945Z" fill="#272948" fill-opacity="0.24"/>
<path d="M430.587 253.025L396.989 231.412L392.001 243.15L382.069 236.761L392.066 213.235L435.596 241.237L430.587 253.025ZM395.604 226.103L429.203 247.717L431.263 242.869L393.45 218.543L386.402 235.13L390.617 237.841L395.604 226.103Z" fill="#272948" fill-opacity="0.24"/>
<path d="M390.197 147.465L397.27 152.016L402.258 140.277L435.857 161.891L439.391 153.573L398.719 127.409L390.197 147.465Z" fill="#272948" fill-opacity="0.24"/>
<path d="M436.549 164.545L402.95 142.932L397.963 154.67L388.031 148.281L398.028 124.755L441.558 152.757L436.549 164.545ZM401.566 137.623L435.165 159.237L437.225 154.389L399.412 130.063L392.364 146.65L396.579 149.361L401.566 137.623Z" fill="#272948" fill-opacity="0.24"/>
<path d="M379.985 322.267L387.058 326.817L392.046 315.078L425.645 336.692L429.18 328.374L388.507 302.21L379.985 322.267Z" fill="#272948" fill-opacity="0.24"/>
<path d="M426.337 339.347L392.739 317.733L387.751 329.472L377.819 323.083L387.816 299.556L431.346 327.559L426.337 339.347ZM391.354 312.424L424.953 334.038L427.013 329.19L389.2 304.865L382.152 321.451L386.367 324.163L391.354 312.424Z" fill="#272948" fill-opacity="0.24"/>
<path d="M-36.3789 70.5125L-29.3054 75.0628L-24.3176 63.3242L9.28096 84.938L12.8157 76.6197L-27.8565 50.4558L-36.3789 70.5125Z" fill="#272948" fill-opacity="0.24"/>
<path d="M9.9737 87.5927L-23.625 65.979L-28.613 77.7175L-38.5449 71.3285L-28.5479 47.8018L14.9825 75.8046L9.9737 87.5927ZM-25.0091 60.6703L8.58962 82.284L10.6498 77.4358L-27.1637 53.1105L-34.2118 69.6973L-29.997 72.4087L-25.0091 60.6703Z" fill="#272948" fill-opacity="0.24"/>
<path d="M-46.5908 245.314L-39.5174 249.864L-34.5295 238.126L-0.930965 259.739L2.60377 251.421L-38.0684 225.257L-46.5908 245.314Z" fill="#272948" fill-opacity="0.24"/>
<path d="M-0.238129 262.394L-33.8368 240.78L-38.8248 252.519L-48.7568 246.13L-38.7597 222.603L4.77069 250.606L-0.238129 262.394ZM-35.2209 235.472L-1.62221 257.085L0.437946 252.237L-37.3755 227.912L-44.4236 244.499L-40.2088 247.21L-35.2209 235.472Z" fill="#272948" fill-opacity="0.24"/>
<path d="M14.2345 1.27045L-19.3643 -20.3433L-24.3522 -8.60471L-34.2842 -14.9938L-24.2871 -38.5204L19.2433 -10.5177L14.2345 1.27045ZM-20.7484 -25.6519L12.8504 -4.03823L14.9105 -8.88646L-22.903 -33.2117L-29.951 -16.6249L-25.7362 -13.9136L-20.7484 -25.6519Z" fill="#272948" fill-opacity="0.24"/>
<path d="M-40.6279 156.835L-33.5545 161.385L-28.5666 149.647L5.03192 171.261L8.56665 162.942L-32.1055 136.778L-40.6279 156.835Z" fill="#272948" fill-opacity="0.24"/>
<path d="M5.72475 173.915L-27.8739 152.301L-32.8619 164.04L-42.7939 157.651L-32.7968 134.124L10.7336 162.127L5.72475 173.915ZM-29.258 146.993L4.34068 168.606L6.40083 163.758L-31.4127 139.433L-38.4607 156.02L-34.2459 158.731L-29.258 146.993Z" fill="#272948" fill-opacity="0.24"/>
<path d="M-4.48718 348.715L-38.086 327.101L-43.0739 338.84L-53.0059 332.451L-43.0088 308.924L0.521641 336.927L-4.48718 348.715ZM-39.47 321.793L-5.87126 343.406L-3.8111 338.558L-41.6247 314.233L-48.6727 330.82L-44.4579 333.531L-39.47 321.793Z" fill="#272948" fill-opacity="0.24"/>
<path d="M308.276 62.8917L315.349 67.4419L320.337 55.7033L353.936 77.3172L357.471 68.9988L316.798 42.835L308.276 62.8917Z" fill="#272948" fill-opacity="0.24"/>
<path d="M354.628 79.9717L321.03 58.358L316.042 70.0966L306.11 63.7075L316.107 40.1809L359.637 68.1836L354.628 79.9717ZM319.645 53.0494L353.244 74.663L355.304 69.8148L317.491 45.4896L310.443 62.0764L314.658 64.7877L319.645 53.0494Z" fill="#272948" fill-opacity="0.24"/>
<path d="M298.064 237.693L305.138 242.243L310.125 230.505L343.724 252.118L347.259 243.8L306.586 217.636L298.064 237.693Z" fill="#272948" fill-opacity="0.24"/>
<path d="M344.416 254.773L310.818 233.159L305.83 244.898L295.898 238.509L305.895 214.982L349.425 242.985L344.416 254.773ZM309.434 227.851L343.032 249.464L345.092 244.616L307.279 220.291L300.231 236.878L304.446 239.589L309.434 227.851Z" fill="#272948" fill-opacity="0.24"/>
<path d="M304.027 149.214L311.1 153.764L316.088 142.026L349.687 163.64L353.222 155.321L312.549 129.157L304.027 149.214Z" fill="#272948" fill-opacity="0.24"/>
<path d="M350.379 166.294L316.781 144.681L311.793 156.419L301.861 150.03L311.858 126.503L355.388 154.506L350.379 166.294ZM315.396 139.372L348.995 160.986L351.055 156.137L313.242 131.812L306.194 148.399L310.409 151.11L315.396 139.372Z" fill="#272948" fill-opacity="0.24"/>
<path d="M293.815 324.014L300.888 328.564L305.876 316.826L339.475 338.439L343.01 330.121L302.337 303.957L293.815 324.014Z" fill="#272948" fill-opacity="0.24"/>
<path d="M340.167 341.094L306.569 319.48L301.581 331.219L291.649 324.83L301.646 301.303L345.176 329.306L340.167 341.094ZM305.185 314.172L338.783 335.785L340.843 330.937L303.03 306.612L295.982 323.199L300.197 325.91L305.185 314.172Z" fill="#272948" fill-opacity="0.24"/>
<path d="M135.962 67.0164L143.035 71.5667L148.023 59.8281L181.621 81.4419L185.156 73.1236L144.484 46.9597L135.962 67.0164Z" fill="#272948" fill-opacity="0.24"/>
<path d="M182.314 84.0966L148.715 62.4829L143.727 74.2214L133.795 67.8324L143.792 44.3057L187.323 72.3085L182.314 84.0966ZM147.331 57.1742L180.93 78.7879L182.99 73.9397L145.176 49.6144L138.128 66.2012L142.343 68.9126L147.331 57.1742Z" fill="#272948" fill-opacity="0.24"/>
<path d="M125.75 241.818L132.823 246.368L137.811 234.629L171.41 256.243L174.944 247.925L134.272 221.761L125.75 241.818Z" fill="#272948" fill-opacity="0.24"/>
<path d="M172.102 258.898L138.503 237.284L133.515 249.023L123.583 242.634L133.58 219.107L177.111 247.11L172.102 258.898ZM137.119 231.975L170.718 253.589L172.778 248.741L134.964 224.416L127.916 241.002L132.131 243.714L137.119 231.975Z" fill="#272948" fill-opacity="0.24"/>
<path d="M131.713 153.338L138.786 157.888L143.774 146.149L177.372 167.763L180.907 159.445L140.235 133.281L131.713 153.338Z" fill="#272948" fill-opacity="0.24"/>
<path d="M178.065 170.418L144.466 148.804L139.478 160.542L129.546 154.153L139.543 130.627L183.074 158.63L178.065 170.418ZM143.082 143.495L176.681 165.109L178.741 160.261L140.927 135.935L133.879 152.522L138.094 155.234L143.082 143.495Z" fill="#272948" fill-opacity="0.24"/>
<path d="M121.501 328.14L128.574 332.69L133.562 320.951L167.16 342.565L170.695 334.247L130.023 308.083L121.501 328.14Z" fill="#272948" fill-opacity="0.24"/>
<path d="M167.853 345.22L134.254 323.606L129.266 335.345L119.334 328.956L129.331 305.429L172.862 333.432L167.853 345.22ZM132.87 318.297L166.469 339.911L168.529 335.063L130.715 310.738L123.667 327.324L127.882 330.036L132.87 318.297Z" fill="#272948" fill-opacity="0.24"/>
<path d="M265.191 63.7667L272.264 68.3169L277.252 56.5783L310.851 78.1922L314.386 69.8738L273.713 43.71L265.191 63.7667Z" fill="#272948" fill-opacity="0.24"/>
<path d="M311.543 80.8467L277.945 59.233L272.957 70.9716L263.025 64.5825L273.022 41.0559L316.552 69.0586L311.543 80.8467ZM276.561 53.9244L310.159 75.538L312.219 70.6898L274.406 46.3646L267.358 62.9514L271.573 65.6627L276.561 53.9244Z" fill="#272948" fill-opacity="0.24"/>
<path d="M254.98 238.568L262.054 243.118L267.041 231.38L300.64 252.993L304.175 244.675L263.502 218.511L254.98 238.568Z" fill="#272948" fill-opacity="0.24"/>
<path d="M301.332 255.648L267.734 234.034L262.746 245.773L252.814 239.384L262.811 215.857L306.341 243.86L301.332 255.648ZM266.35 228.726L299.948 250.339L302.008 245.491L264.195 221.166L257.147 237.753L261.362 240.464L266.35 228.726Z" fill="#272948" fill-opacity="0.24"/>
<path d="M260.942 150.088L268.015 154.638L273.003 142.9L306.602 164.513L310.137 156.195L269.464 130.031L260.942 150.088Z" fill="#272948" fill-opacity="0.24"/>
<path d="M307.294 167.168L273.696 145.554L268.708 157.293L258.776 150.904L268.773 127.377L312.303 155.38L307.294 167.168ZM272.311 140.246L305.91 161.859L307.97 157.011L270.157 132.686L263.109 149.273L267.324 151.984L272.311 140.246Z" fill="#272948" fill-opacity="0.24"/>
<path d="M250.731 324.889L257.805 329.439L262.792 317.701L296.391 339.314L299.926 330.996L259.253 304.832L250.731 324.889Z" fill="#272948" fill-opacity="0.24"/>
<path d="M297.083 341.969L263.485 320.355L258.497 332.094L248.565 325.705L258.562 302.178L302.092 330.181L297.083 341.969ZM262.101 315.047L295.699 336.66L297.759 331.812L259.946 307.487L252.898 324.074L257.113 326.785L262.101 315.047Z" fill="#272948" fill-opacity="0.24"/>
<path d="M92.876 67.8901L99.9494 72.4403L104.937 60.7018L138.535 82.3156L142.07 73.9973L101.398 47.8334L92.876 67.8901Z" fill="#272948" fill-opacity="0.24"/>
<path d="M139.229 84.9701L105.63 63.3564L100.642 75.095L90.71 68.7059L100.707 45.1793L144.238 73.182L139.229 84.9701ZM104.246 58.0478L137.845 79.6615L139.905 74.8132L102.091 50.488L95.0432 67.0748L99.258 69.7861L104.246 58.0478Z" fill="#272948" fill-opacity="0.24"/>
<path d="M82.6641 242.691L89.7375 247.241L94.7254 235.503L128.324 257.117L131.858 248.798L91.1865 222.635L82.6641 242.691Z" fill="#272948" fill-opacity="0.24"/>
<path d="M129.017 259.771L95.4179 238.158L90.43 249.896L80.498 243.507L90.4951 219.98L134.026 247.983L129.017 259.771ZM94.034 232.849L127.633 254.463L129.693 249.614L91.8792 225.289L84.8312 241.876L89.0461 244.587L94.034 232.849Z" fill="#272948" fill-opacity="0.24"/>
<path d="M88.627 154.211L95.7003 158.762L100.688 147.023L134.286 168.637L137.821 160.318L97.1493 134.155L88.627 154.211Z" fill="#272948" fill-opacity="0.24"/>
<path d="M134.98 171.291L101.381 149.678L96.3929 161.416L86.4609 155.027L96.458 131.5L139.989 159.503L134.98 171.291ZM99.9968 144.369L133.596 165.983L135.656 161.134L97.8421 136.809L90.7941 153.396L95.0089 156.107L99.9968 144.369Z" fill="#272948" fill-opacity="0.24"/>
<path d="M78.415 329.013L85.4885 333.563L90.4764 321.824L124.075 343.438L127.609 335.12L86.9374 308.956L78.415 329.013Z" fill="#272948" fill-opacity="0.24"/>
<path d="M124.768 346.093L91.1689 324.479L86.181 336.217L76.249 329.828L86.2461 306.302L129.777 334.304L124.768 346.093ZM89.7849 319.17L123.384 340.784L125.444 335.936L87.6302 311.61L80.5822 328.197L84.797 330.909L89.7849 319.17Z" fill="#272948" fill-opacity="0.24"/>
<path d="M6.70605 69.639L13.7795 74.1892L18.7674 62.4506L52.3659 84.0645L55.9007 75.7461L15.2284 49.5823L6.70605 69.639Z" fill="#272948" fill-opacity="0.24"/>
<path d="M53.0587 86.7189L19.4599 65.1052L14.472 76.8438L4.54004 70.4547L14.5371 46.9281L58.0675 74.9308L53.0587 86.7189ZM18.0759 59.7965L51.6746 81.4102L53.7348 76.562L15.9212 52.2367L8.8732 68.8235L13.088 71.5349L18.0759 59.7965Z" fill="#272948" fill-opacity="0.24"/>
<path d="M-3.50586 244.441L3.5676 248.991L8.55545 237.253L42.154 258.867L45.6887 250.548L5.01652 224.385L-3.50586 244.441Z" fill="#272948" fill-opacity="0.24"/>
<path d="M42.8468 261.521L9.24804 239.908L4.26011 251.646L-5.67188 245.257L4.3252 221.73L47.8556 249.733L42.8468 261.521ZM7.86398 234.599L41.4627 256.213L43.5228 251.364L5.70934 227.039L-1.33871 243.626L2.87611 246.337L7.86398 234.599Z" fill="#272948" fill-opacity="0.24"/>
<path d="M57.3194 0.397778L23.7207 -21.216L18.7327 -9.47738L8.80078 -15.8665L18.7978 -39.3931L62.3282 -11.3903L57.3194 0.397778ZM22.3366 -26.5246L55.9353 -4.9109L57.9955 -9.75912L20.182 -34.0844L13.1339 -17.4976L17.3487 -14.7863L22.3366 -26.5246Z" fill="#272948" fill-opacity="0.24"/>
<path d="M2.45703 155.96L9.53049 160.51L14.5184 148.772L48.1169 170.386L51.6516 162.067L10.9794 135.903L2.45703 155.96Z" fill="#272948" fill-opacity="0.24"/>
<path d="M48.8097 173.04L15.2109 151.426L10.223 163.165L0.291016 156.776L10.2881 133.249L53.8185 161.252L48.8097 173.04ZM13.8268 146.118L47.4256 167.731L49.4857 162.883L11.6722 138.558L4.62418 155.145L8.839 157.856L13.8268 146.118Z" fill="#272948" fill-opacity="0.24"/>
<path d="M-7.75488 330.763L-0.681427 335.313L4.30643 323.574L37.905 345.188L41.4397 336.87L0.767495 310.706L-7.75488 330.763Z" fill="#272948" fill-opacity="0.24"/>
<path d="M38.5977 347.843L4.99902 326.229L0.0110865 337.967L-9.9209 331.578L0.0761728 308.052L43.6066 336.054L38.5977 347.843ZM3.61495 320.92L37.2137 342.534L39.2738 337.686L1.46031 313.36L-5.58773 329.947L-1.37291 332.659L3.61495 320.92Z" fill="#272948" fill-opacity="0.24"/>
<path d="M351.361 62.0179L358.434 66.5681L363.422 54.8296L397.021 76.4434L400.556 68.1251L359.883 41.9612L351.361 62.0179Z" fill="#272948" fill-opacity="0.24"/>
<path d="M397.713 79.0979L364.115 57.4842L359.127 69.2228L349.195 62.8337L359.192 39.3071L402.722 67.3098L397.713 79.0979ZM362.73 52.1756L396.329 73.7893L398.389 68.941L360.576 44.6158L353.528 61.2026L357.743 63.9139L362.73 52.1756Z" fill="#272948" fill-opacity="0.24"/>
<path d="M341.15 236.82L348.223 241.371L353.211 229.632L386.81 251.246L390.345 242.928L349.672 216.764L341.15 236.82Z" fill="#272948" fill-opacity="0.24"/>
<path d="M387.502 253.9L353.904 232.287L348.916 244.025L338.984 237.636L348.981 214.11L392.511 242.112L387.502 253.9ZM352.52 226.978L386.118 248.592L388.178 243.744L350.365 219.418L343.317 236.005L347.532 238.716L352.52 226.978Z" fill="#272948" fill-opacity="0.24"/>
<path d="M347.113 148.34L354.186 152.891L359.174 141.152L392.773 162.766L396.307 154.448L355.635 128.284L347.113 148.34Z" fill="#272948" fill-opacity="0.24"/>
<path d="M393.465 165.42L359.866 143.807L354.879 155.545L344.947 149.156L354.944 125.63L398.474 153.632L393.465 165.42ZM358.482 138.498L392.081 160.112L394.141 155.264L356.328 130.938L349.28 147.525L353.495 150.236L358.482 138.498Z" fill="#272948" fill-opacity="0.24"/>
<path d="M336.901 323.142L343.974 327.692L348.962 315.953L382.561 337.567L386.096 329.249L345.423 303.085L336.901 323.142Z" fill="#272948" fill-opacity="0.24"/>
<path d="M383.253 340.222L349.655 318.608L344.667 330.347L334.735 323.958L344.732 300.431L388.262 328.434L383.253 340.222ZM348.27 313.299L381.869 334.913L383.929 330.065L346.116 305.74L339.068 322.326L343.283 325.038L348.27 313.299Z" fill="#272948" fill-opacity="0.24"/>
<path d="M179.047 66.1414L186.12 70.6917L191.108 58.9531L224.706 80.5669L228.241 72.2486L187.569 46.0847L179.047 66.1414Z" fill="#272948" fill-opacity="0.24"/>
<path d="M225.399 83.2216L191.8 61.6079L186.812 73.3464L176.88 66.9574L186.877 43.4307L230.408 71.4335L225.399 83.2216ZM190.416 56.2992L224.015 77.9129L226.075 73.0647L188.261 48.7394L181.213 65.3262L185.428 68.0376L190.416 56.2992Z" fill="#272948" fill-opacity="0.24"/>
<path d="M168.835 240.943L175.908 245.493L180.896 233.754L214.494 255.368L218.029 247.05L177.357 220.886L168.835 240.943Z" fill="#272948" fill-opacity="0.24"/>
<path d="M215.187 258.023L181.588 236.409L176.6 248.148L166.668 241.759L176.665 218.232L220.196 246.235L215.187 258.023ZM180.204 231.1L213.803 252.714L215.863 247.866L178.049 223.541L171.001 240.127L175.216 242.839L180.204 231.1Z" fill="#272948" fill-opacity="0.24"/>
<path d="M174.797 152.463L181.871 157.013L186.859 145.274L220.457 166.888L223.992 158.57L183.32 132.406L174.797 152.463Z" fill="#272948" fill-opacity="0.24"/>
<path d="M221.15 169.543L187.551 147.929L182.563 159.667L172.631 153.278L182.628 129.752L226.159 157.755L221.15 169.543ZM186.167 142.62L219.766 164.234L221.826 159.386L184.012 135.06L176.964 151.647L181.179 154.359L186.167 142.62Z" fill="#272948" fill-opacity="0.24"/>
<path d="M164.587 327.265L171.66 331.815L176.648 320.077L210.246 341.691L213.781 333.372L173.109 307.208L164.587 327.265Z" fill="#272948" fill-opacity="0.24"/>
<path d="M210.939 344.345L177.34 322.731L172.352 334.47L162.42 328.081L172.417 304.554L215.948 332.557L210.939 344.345ZM175.956 317.423L209.555 339.036L211.615 334.188L173.801 309.863L166.753 326.45L170.968 329.161L175.956 317.423Z" fill="#272948" fill-opacity="0.24"/>
</mask>
<g mask="url(#mask1_12387_1928)">
<path d="M735.955 -0.776001H-70.5107C-86.527 -0.776001 -99.5107 12.2077 -99.5107 28.224V280.658C-99.5107 296.674 -86.527 309.658 -70.5107 309.658H735.955C751.971 309.658 764.955 296.674 764.955 280.658V28.224C764.955 12.2077 751.971 -0.776001 735.955 -0.776001Z" fill="#272948" fill-opacity="0.24"/>
</g>
</g>
</svg>
