<svg width="834" height="238" viewBox="0 0 834 238" fill="none" xmlns="http://www.w3.org/2000/svg">
<g clip-path="url(#clip0_12500_2599)">
<mask id="mask0_12500_2599" style="mask-type:luminance" maskUnits="userSpaceOnUse" x="0" y="0" width="834" height="238">
<path d="M794 0H40C17.9086 0 0 17.9086 0 40V198C0 220.091 17.9086 238 40 238H794C816.091 238 834 220.091 834 198V40C834 17.9086 816.091 0 794 0Z" fill="white"/>
</mask>
<g mask="url(#mask0_12500_2599)">
<path d="M794 0H40C17.9086 0 0 17.9086 0 40V198C0 220.091 17.9086 238 40 238H794C816.091 238 834 220.091 834 198V40C834 17.9086 816.091 0 794 0Z" fill="#6B7CF3"/>
<mask id="mask1_12500_2599" style="mask-type:alpha" maskUnits="userSpaceOnUse" x="-69" y="-42" width="947" height="309">
<path d="M-58.6108 160.853L-49.2021 165.506L-42.5675 153.504L2.12334 175.603L6.82504 167.098L-47.2748 140.346L-58.6108 160.853Z" fill="#272948" fill-opacity="0.24"/>
<path d="M3.04456 178.317L-41.6466 156.218L-48.2813 168.22L-61.4922 161.688L-48.1947 137.633L9.707 166.264L3.04456 178.317ZM-43.4876 150.79L1.20353 172.889L3.94383 167.932L-46.3536 143.061L-55.7285 160.02L-50.1222 162.792L-43.4876 150.79Z" fill="#272948" fill-opacity="0.24"/>
<path d="M-50.6797 70.3875L-41.271 75.0399L-34.6365 63.0378L10.0544 85.1369L14.7561 76.6318L-39.3438 49.8805L-50.6797 70.3875Z" fill="#272948" fill-opacity="0.24"/>
<path d="M10.9758 87.8509L-33.7154 65.752L-40.35 77.7542L-53.561 71.2216L-40.2635 47.1667L17.6382 75.7982L10.9758 87.8509ZM-35.5564 60.3241L9.13474 82.4231L11.8751 77.466L-38.4224 52.5946L-47.7973 69.5538L-42.1909 72.326L-35.5564 60.3241Z" fill="#272948" fill-opacity="0.24"/>
<path d="M-64.2627 249.113L-54.854 253.766L-48.2195 241.763L-3.52856 263.862L1.17314 255.357L-52.9268 228.606L-64.2627 249.113Z" fill="#272948" fill-opacity="0.24"/>
<path d="M-2.60725 266.577L-47.2984 244.478L-53.933 256.48L-67.144 249.947L-53.8465 225.892L4.05519 254.524L-2.60725 266.577ZM-49.1394 239.05L-4.44828 261.149L-1.70798 256.192L-52.0054 231.32L-61.3803 248.279L-55.774 251.052L-49.1394 239.05Z" fill="#272948" fill-opacity="0.24"/>
<path d="M399.831 153.061L409.239 157.714L415.874 145.712L460.565 167.811L465.266 159.306L411.167 132.554L399.831 153.061Z" fill="#272948" fill-opacity="0.24"/>
<path d="M461.486 170.525L416.795 148.426L410.16 160.428L396.949 153.895L410.247 129.841L468.148 158.472L461.486 170.525ZM414.954 142.998L459.645 165.097L462.385 160.14L412.088 135.268L402.713 152.228L408.319 155L414.954 142.998Z" fill="#272948" fill-opacity="0.24"/>
<path d="M407.762 62.5954L417.17 67.2479L423.805 55.2457L468.496 77.3448L473.198 68.8397L419.098 42.0884L407.762 62.5954Z" fill="#272948" fill-opacity="0.24"/>
<path d="M469.417 80.0591L424.726 57.9601L418.091 69.9622L404.88 63.4297L418.178 39.3748L476.079 68.0063L469.417 80.0591ZM422.885 52.5322L467.576 74.6312L470.316 69.6741L420.019 44.8027L410.644 61.7619L416.25 64.5342L422.885 52.5322Z" fill="#272948" fill-opacity="0.24"/>
<path d="M394.179 241.322L403.587 245.974L410.222 233.972L454.913 256.071L459.615 247.566L405.515 220.815L394.179 241.322Z" fill="#272948" fill-opacity="0.24"/>
<path d="M455.834 258.786L411.143 236.687L404.508 248.689L391.297 242.156L404.595 218.101L462.496 246.733L455.834 258.786ZM409.302 231.259L453.993 253.358L456.733 248.401L406.436 223.529L397.061 240.488L402.667 243.261L409.302 231.259Z" fill="#272948" fill-opacity="0.24"/>
<path d="M170.626 157.277L180.035 161.93L186.669 149.927L231.36 172.027L236.062 163.521L181.962 136.77L170.626 157.277Z" fill="#272948" fill-opacity="0.24"/>
<path d="M232.281 174.741L187.59 152.642L180.955 164.644L167.744 158.111L181.042 134.056L238.944 162.688L232.281 174.741ZM185.749 147.214L230.44 169.313L233.18 164.356L182.883 139.484L173.508 156.444L179.114 159.216L185.749 147.214Z" fill="#272948" fill-opacity="0.24"/>
<path d="M178.557 66.8113L187.966 71.4637L194.6 59.4616L239.291 81.5607L243.993 73.0556L189.893 46.3043L178.557 66.8113Z" fill="#272948" fill-opacity="0.24"/>
<path d="M240.212 84.2749L195.521 62.1759L188.886 74.178L175.676 67.6455L188.973 43.5906L246.875 72.2221L240.212 84.2749ZM193.68 56.748L238.371 78.847L241.112 73.8899L190.814 49.0185L181.439 65.9777L187.046 68.7499L193.68 56.748Z" fill="#272948" fill-opacity="0.24"/>
<path d="M164.974 245.538L174.382 250.19L181.017 238.188L225.708 260.287L230.409 251.782L176.31 225.031L164.974 245.538Z" fill="#272948" fill-opacity="0.24"/>
<path d="M226.629 263.001L181.938 240.902L175.303 252.905L162.092 246.372L175.39 222.317L233.291 250.949L226.629 263.001ZM180.097 235.475L224.788 257.574L227.528 252.616L177.231 227.745L167.856 244.704L173.462 247.476L180.097 235.475Z" fill="#272948" fill-opacity="0.24"/>
<path d="M629.067 149.486L638.476 154.139L645.111 142.136L689.802 164.236L694.503 155.73L640.403 128.979L629.067 149.486Z" fill="#272948" fill-opacity="0.24"/>
<path d="M690.723 166.95L646.031 144.851L639.397 156.853L626.186 150.32L639.483 126.265L697.385 154.897L690.723 166.95ZM644.19 139.423L688.882 161.522L691.622 156.565L641.324 131.693L631.95 148.653L637.556 151.425L644.19 139.423Z" fill="#272948" fill-opacity="0.24"/>
<path d="M636.998 59.0193L646.407 63.6718L653.042 51.6696L697.733 73.7687L702.434 65.2636L648.334 38.5123L636.998 59.0193Z" fill="#272948" fill-opacity="0.24"/>
<path d="M698.654 76.4829L653.963 54.3839L647.328 66.386L634.117 59.8535L647.414 35.7986L705.316 64.4301L698.654 76.4829ZM652.122 48.956L696.813 71.055L699.553 66.0979L649.256 41.2265L639.881 58.1857L645.487 60.9579L652.122 48.956Z" fill="#272948" fill-opacity="0.24"/>
<path d="M623.415 237.746L632.824 242.398L639.458 230.396L684.149 252.495L688.851 243.99L634.751 217.239L623.415 237.746Z" fill="#272948" fill-opacity="0.24"/>
<path d="M685.07 255.209L640.379 233.11L633.744 245.113L620.533 238.58L633.831 214.525L691.733 243.157L685.07 255.209ZM638.538 227.683L683.229 249.782L685.969 244.824L635.672 219.953L626.297 236.912L631.903 239.685L638.538 227.683Z" fill="#272948" fill-opacity="0.24"/>
<path d="M56.0073 159.065L65.416 163.718L72.0505 151.716L116.741 173.815L121.443 165.31L67.3433 138.558L56.0073 159.065Z" fill="#272948" fill-opacity="0.24"/>
<path d="M117.663 176.529L72.9717 154.43L66.337 166.432L53.126 159.899L66.4236 135.845L124.325 164.476L117.663 176.529ZM71.1306 149.002L115.821 171.101L118.562 166.144L68.2647 141.272L58.8898 158.232L64.4961 161.004L71.1306 149.002Z" fill="#272948" fill-opacity="0.24"/>
<path d="M63.9385 68.5987L73.3472 73.2511L79.9818 61.249L124.673 83.3481L129.374 74.843L75.2745 48.0917L63.9385 68.5987Z" fill="#272948" fill-opacity="0.24"/>
<path d="M125.594 86.0623L80.9027 63.9633L74.268 75.9654L61.0571 69.4329L74.3546 45.3781L132.256 74.0096L125.594 86.0623ZM79.0617 58.5355L123.753 80.6345L126.493 75.6774L76.1957 50.8059L66.8208 67.7652L72.4271 70.5374L79.0617 58.5355Z" fill="#272948" fill-opacity="0.24"/>
<path d="M50.3555 247.325L59.7642 251.977L66.3988 239.975L111.09 262.074L115.791 253.569L61.6915 226.818L50.3555 247.325Z" fill="#272948" fill-opacity="0.24"/>
<path d="M112.011 264.789L67.3197 242.69L60.685 254.692L47.4741 248.159L60.7716 224.104L118.673 252.736L112.011 264.789ZM65.4787 237.262L110.17 259.361L112.91 254.404L62.6127 229.532L53.2378 246.491L58.8441 249.264L65.4787 237.262Z" fill="#272948" fill-opacity="0.24"/>
<path d="M514.449 151.273L523.857 155.926L530.492 143.924L575.183 166.023L579.885 157.518L525.785 130.766L514.449 151.273Z" fill="#272948" fill-opacity="0.24"/>
<path d="M576.104 168.737L531.413 146.638L524.778 158.64L511.567 152.107L524.865 128.053L582.766 156.684L576.104 168.737ZM529.572 141.21L574.263 163.309L577.003 158.352L526.706 133.48L517.331 150.44L522.937 153.212L529.572 141.21Z" fill="#272948" fill-opacity="0.24"/>
<path d="M522.38 60.8074L531.789 65.4598L538.423 53.4577L583.114 75.5568L587.816 67.0517L533.716 40.3004L522.38 60.8074Z" fill="#272948" fill-opacity="0.24"/>
<path d="M584.035 78.271L539.344 56.172L532.709 68.1741L519.498 61.6416L532.796 37.5867L590.698 66.2182L584.035 78.271ZM537.503 50.7441L582.194 72.8431L584.934 67.886L534.637 43.0146L525.262 59.9738L530.868 62.746L537.503 50.7441Z" fill="#272948" fill-opacity="0.24"/>
<path d="M508.797 239.533L518.206 244.185L524.84 232.183L569.531 254.282L574.233 245.777L520.133 219.026L508.797 239.533Z" fill="#272948" fill-opacity="0.24"/>
<path d="M570.452 256.997L525.761 234.898L519.126 246.9L505.915 240.367L519.213 216.312L577.115 244.944L570.452 256.997ZM523.92 229.47L568.611 251.569L571.351 246.612L521.054 221.74L511.679 238.699L517.285 241.472L523.92 229.47Z" fill="#272948" fill-opacity="0.24"/>
<path d="M285.245 155.49L294.653 160.142L301.288 148.14L345.979 170.239L350.68 161.734L296.581 134.983L285.245 155.49Z" fill="#272948" fill-opacity="0.24"/>
<path d="M346.9 172.954L302.209 150.855L295.574 162.857L282.363 156.324L295.661 132.269L353.562 160.901L346.9 172.954ZM300.368 145.427L345.059 167.526L347.799 162.569L297.502 137.697L288.127 154.656L293.733 157.429L300.368 145.427Z" fill="#272948" fill-opacity="0.24"/>
<path d="M293.176 65.0242L302.584 69.6766L309.219 57.6745L353.91 79.7736L358.612 71.2685L304.512 44.5172L293.176 65.0242Z" fill="#272948" fill-opacity="0.24"/>
<path d="M354.831 82.4878L310.14 60.3888L303.505 72.3909L290.294 65.8584L303.592 41.8035L361.493 70.435L354.831 82.4878ZM308.299 54.9609L352.99 77.0599L355.73 72.1028L305.433 47.2314L296.058 64.1906L301.664 66.9628L308.299 54.9609Z" fill="#272948" fill-opacity="0.24"/>
<path d="M279.593 243.75L289.001 248.402L295.636 236.4L340.327 258.499L345.029 249.994L290.929 223.243L279.593 243.75Z" fill="#272948" fill-opacity="0.24"/>
<path d="M341.248 261.213L296.557 239.114L289.922 251.116L276.711 244.584L290.009 220.529L347.91 249.161L341.248 261.213ZM294.716 233.687L339.407 255.785L342.147 250.828L291.85 225.957L282.475 242.916L288.081 245.688L294.716 233.687Z" fill="#272948" fill-opacity="0.24"/>
<path d="M743.685 147.698L753.094 152.35L759.729 140.348L804.42 162.447L809.121 153.942L755.021 127.191L743.685 147.698Z" fill="#272948" fill-opacity="0.24"/>
<path d="M805.341 165.162L760.65 143.063L754.015 155.065L740.804 148.532L754.101 124.477L812.003 153.109L805.341 165.162ZM758.809 137.635L803.5 159.734L806.24 154.777L755.943 129.905L746.568 146.864L752.174 149.637L758.809 137.635Z" fill="#272948" fill-opacity="0.24"/>
<path d="M751.617 57.2322L761.026 61.8846L767.66 49.8825L812.351 71.9816L817.053 63.4765L762.953 36.7252L751.617 57.2322Z" fill="#272948" fill-opacity="0.24"/>
<path d="M813.272 74.6958L768.581 52.5968L761.947 64.5989L748.736 58.0664L762.033 34.0115L819.935 62.643L813.272 74.6958ZM766.74 47.1689L811.431 69.2679L814.172 64.3108L763.874 39.4394L754.499 56.3986L760.106 59.1708L766.74 47.1689Z" fill="#272948" fill-opacity="0.24"/>
<path d="M738.034 235.958L747.443 240.61L754.077 228.608L798.768 250.707L803.47 242.202L749.37 215.451L738.034 235.958Z" fill="#272948" fill-opacity="0.24"/>
<path d="M799.689 253.421L754.998 231.322L748.364 243.324L735.153 236.792L748.45 212.737L806.352 241.369L799.689 253.421ZM753.157 225.895L797.848 247.993L800.589 243.036L750.291 218.165L740.916 235.124L746.523 237.896L753.157 225.895Z" fill="#272948" fill-opacity="0.24"/>
<path d="M-1.30176 159.959L8.10695 164.611L14.7416 152.609L59.4325 174.708L64.1342 166.203L10.0343 139.452L-1.30176 159.959Z" fill="#272948" fill-opacity="0.24"/>
<path d="M60.3537 177.422L15.6626 155.323L9.02785 167.325L-4.18311 160.793L9.11443 136.738L67.0162 165.37L60.3537 177.422ZM13.8216 149.895L58.5127 171.994L61.253 167.037L10.9556 142.166L1.58062 159.125L7.18693 161.897L13.8216 149.895Z" fill="#272948" fill-opacity="0.24"/>
<path d="M6.62939 69.4928L16.0382 74.1453L22.6727 62.1431L67.3636 84.2422L72.0653 75.7371L17.9654 48.9858L6.62939 69.4928Z" fill="#272948" fill-opacity="0.24"/>
<path d="M68.2849 86.9564L23.5937 64.8574L16.9591 76.8595L3.74805 70.327L17.0456 46.2721L74.9473 74.9036L68.2849 86.9564ZM21.7527 59.4295L66.4439 81.5285L69.1842 76.5714L18.8867 51.7L9.51178 68.6592L15.1181 71.4315L21.7527 59.4295Z" fill="#272948" fill-opacity="0.24"/>
<path d="M-6.9541 248.219L2.45462 252.871L9.08918 240.869L53.7801 262.968L58.4818 254.463L4.38189 227.712L-6.9541 248.219Z" fill="#272948" fill-opacity="0.24"/>
<path d="M54.7014 265.682L10.0102 243.583L3.37552 255.585L-9.83545 249.053L3.46209 224.998L61.3638 253.629L54.7014 265.682ZM8.16918 238.155L52.8604 260.254L55.6007 255.297L5.30319 230.426L-4.07171 247.385L1.5346 250.157L8.16918 238.155Z" fill="#272948" fill-opacity="0.24"/>
<path d="M457.14 152.168L466.548 156.82L473.183 144.818L517.874 166.917L522.575 158.412L468.476 131.661L457.14 152.168Z" fill="#272948" fill-opacity="0.24"/>
<path d="M518.795 169.631L474.104 147.532L467.469 159.534L454.258 153.002L467.556 128.947L525.457 157.578L518.795 169.631ZM472.263 142.104L516.954 164.203L519.694 159.246L469.397 134.375L460.022 151.334L465.628 154.106L472.263 142.104Z" fill="#272948" fill-opacity="0.24"/>
<path d="M465.071 61.701L474.479 66.3535L481.114 54.3513L525.805 76.4504L530.507 67.9453L476.407 41.194L465.071 61.701Z" fill="#272948" fill-opacity="0.24"/>
<path d="M526.726 79.1646L482.035 57.0656L475.4 69.0677L462.189 62.5352L475.487 38.4803L533.388 67.1118L526.726 79.1646ZM480.194 51.6377L524.885 73.7367L527.625 68.7796L477.328 43.9082L467.953 60.8674L473.559 63.6396L480.194 51.6377Z" fill="#272948" fill-opacity="0.24"/>
<path d="M451.488 240.427L460.896 245.08L467.531 233.078L512.222 255.177L516.924 246.672L462.824 219.92L451.488 240.427Z" fill="#272948" fill-opacity="0.24"/>
<path d="M513.143 257.891L468.452 235.792L461.817 247.794L448.606 241.262L461.904 217.207L519.805 245.838L513.143 257.891ZM466.611 230.364L511.302 252.463L514.042 247.506L463.745 222.635L454.37 239.594L459.976 242.366L466.611 230.364Z" fill="#272948" fill-opacity="0.24"/>
<path d="M227.935 156.383L237.344 161.036L243.979 149.034L288.67 171.133L293.371 162.628L239.271 135.876L227.935 156.383Z" fill="#272948" fill-opacity="0.24"/>
<path d="M289.591 173.847L244.9 151.748L238.265 163.75L225.054 157.218L238.351 133.163L296.253 161.794L289.591 173.847ZM243.059 146.32L287.75 168.419L290.49 163.462L240.193 138.591L230.818 155.55L236.424 158.322L243.059 146.32Z" fill="#272948" fill-opacity="0.24"/>
<path d="M235.866 65.9169L245.275 70.5693L251.909 58.5672L296.6 80.6663L301.302 72.1612L247.202 45.4099L235.866 65.9169Z" fill="#272948" fill-opacity="0.24"/>
<path d="M297.521 83.3805L252.83 61.2815L246.196 73.2836L232.985 66.7511L246.282 42.6962L304.184 71.3277L297.521 83.3805ZM250.989 55.8536L295.68 77.9526L298.421 72.9955L248.123 48.1241L238.748 65.0833L244.355 67.8555L250.989 55.8536Z" fill="#272948" fill-opacity="0.24"/>
<path d="M222.283 244.643L231.692 249.296L238.326 237.294L283.017 259.393L287.719 250.888L233.619 224.136L222.283 244.643Z" fill="#272948" fill-opacity="0.24"/>
<path d="M283.938 262.107L239.247 240.008L232.613 252.01L219.402 245.477L232.699 221.423L290.601 250.054L283.938 262.107ZM237.406 234.58L282.097 256.679L284.838 251.722L234.54 226.85L225.165 243.81L230.772 246.582L237.406 234.58Z" fill="#272948" fill-opacity="0.24"/>
<path d="M686.376 148.592L695.785 153.244L702.42 141.242L747.111 163.341L751.812 154.836L697.712 128.085L686.376 148.592Z" fill="#272948" fill-opacity="0.24"/>
<path d="M748.032 166.055L703.34 143.956L696.706 155.959L683.495 149.426L696.792 125.371L754.694 154.003L748.032 166.055ZM701.499 138.529L746.191 160.628L748.931 155.67L698.634 130.799L689.259 147.758L694.865 150.53L701.499 138.529Z" fill="#272948" fill-opacity="0.24"/>
<path d="M694.308 58.1248L703.716 62.7772L710.351 50.7751L755.042 72.8742L759.743 64.3691L705.644 37.6178L694.308 58.1248Z" fill="#272948" fill-opacity="0.24"/>
<path d="M755.963 75.5883L711.272 53.4894L704.637 65.4915L691.426 58.959L704.724 34.9041L762.625 63.5356L755.963 75.5883ZM709.431 48.0615L754.122 70.1605L756.862 65.2034L706.565 40.332L697.19 57.2912L702.796 60.0634L709.431 48.0615Z" fill="#272948" fill-opacity="0.24"/>
<path d="M680.725 236.852L690.133 241.504L696.768 229.502L741.459 251.601L746.16 243.096L692.061 216.345L680.725 236.852Z" fill="#272948" fill-opacity="0.24"/>
<path d="M742.38 254.315L697.689 232.216L691.054 244.218L677.843 237.686L691.141 213.631L749.042 242.262L742.38 254.315ZM695.848 226.788L740.539 248.887L743.279 243.93L692.982 219.059L683.607 236.018L689.213 238.79L695.848 226.788Z" fill="#272948" fill-opacity="0.24"/>
<path d="M113.316 158.172L122.725 162.824L129.36 150.822L174.051 172.921L178.752 164.416L124.652 137.665L113.316 158.172Z" fill="#272948" fill-opacity="0.24"/>
<path d="M174.972 175.635L130.28 153.536L123.646 165.538L110.435 159.006L123.732 134.951L181.634 163.582L174.972 175.635ZM128.439 148.108L173.131 170.207L175.871 165.25L125.573 140.379L116.199 157.338L121.805 160.11L128.439 148.108Z" fill="#272948" fill-opacity="0.24"/>
<path d="M121.248 67.7049L130.657 72.3573L137.292 60.3552L181.983 82.4543L186.684 73.9492L132.584 47.1979L121.248 67.7049Z" fill="#272948" fill-opacity="0.24"/>
<path d="M182.904 85.1685L138.213 63.0695L131.578 75.0716L118.367 68.5391L131.664 44.4843L189.566 73.1158L182.904 85.1685ZM136.372 57.6417L181.063 79.7407L183.803 74.7836L133.506 49.9121L124.131 66.8714L129.737 69.6436L136.372 57.6417Z" fill="#272948" fill-opacity="0.24"/>
<path d="M107.665 246.432L117.074 251.084L123.708 239.082L168.399 261.181L173.101 252.676L119.001 225.925L107.665 246.432Z" fill="#272948" fill-opacity="0.24"/>
<path d="M169.32 263.895L124.629 241.796L117.994 253.798L104.783 247.266L118.081 223.211L175.983 251.842L169.32 263.895ZM122.788 236.368L167.479 258.467L170.219 253.51L119.922 228.639L110.547 245.598L116.153 248.37L122.788 236.368Z" fill="#272948" fill-opacity="0.24"/>
<path d="M571.758 150.381L581.167 155.033L587.802 143.031L632.492 165.13L637.194 156.625L583.094 129.874L571.758 150.381Z" fill="#272948" fill-opacity="0.24"/>
<path d="M633.413 167.844L588.722 145.745L582.088 157.747L568.877 151.215L582.174 127.16L640.076 155.791L633.413 167.844ZM586.881 140.317L631.572 162.416L634.313 157.459L584.015 132.588L574.64 149.547L580.247 152.319L586.881 140.317Z" fill="#272948" fill-opacity="0.24"/>
<path d="M579.689 59.9137L589.098 64.5661L595.733 52.564L640.424 74.6631L645.125 66.158L591.025 39.4067L579.689 59.9137Z" fill="#272948" fill-opacity="0.24"/>
<path d="M641.345 77.3772L596.653 55.2782L590.019 67.2803L576.808 60.7478L590.105 36.693L648.007 65.3245L641.345 77.3772ZM594.812 49.8504L639.504 71.9494L642.244 66.9923L591.946 42.1208L582.572 59.0801L588.178 61.8523L594.812 49.8504Z" fill="#272948" fill-opacity="0.24"/>
<path d="M566.106 238.64L575.515 243.293L582.15 231.291L626.841 253.39L631.542 244.885L577.442 218.133L566.106 238.64Z" fill="#272948" fill-opacity="0.24"/>
<path d="M627.762 256.104L583.07 234.005L576.436 246.007L563.225 239.475L576.522 215.42L634.424 244.051L627.762 256.104ZM581.229 228.577L625.921 250.676L628.661 245.719L578.363 220.848L568.989 237.807L574.595 240.579L581.229 228.577Z" fill="#272948" fill-opacity="0.24"/>
<path d="M342.554 154.596L351.963 159.248L358.597 147.246L403.288 169.345L407.99 160.84L353.89 134.088L342.554 154.596Z" fill="#272948" fill-opacity="0.24"/>
<path d="M404.209 172.059L359.518 149.96L352.884 161.962L339.673 155.43L352.97 131.375L410.872 160.006L404.209 172.059ZM357.677 144.532L402.368 166.631L405.109 161.674L354.811 136.803L345.436 153.762L351.043 156.534L357.677 144.532Z" fill="#272948" fill-opacity="0.24"/>
<path d="M350.485 64.1296L359.894 68.782L366.528 56.7799L411.219 78.879L415.921 70.3739L361.821 43.6226L350.485 64.1296Z" fill="#272948" fill-opacity="0.24"/>
<path d="M412.14 81.593L367.449 59.4941L360.814 71.4962L347.603 64.9637L360.901 40.9088L418.802 69.5403L412.14 81.593ZM365.608 54.0662L410.299 76.1652L413.039 71.2081L362.742 46.3367L353.367 63.2959L358.973 66.0681L365.608 54.0662Z" fill="#272948" fill-opacity="0.24"/>
<path d="M336.902 242.855L346.311 247.508L352.945 235.506L397.636 257.605L402.338 249.1L348.238 222.348L336.902 242.855Z" fill="#272948" fill-opacity="0.24"/>
<path d="M398.557 260.319L353.866 238.22L347.231 250.222L334.02 243.689L347.318 219.635L405.219 248.266L398.557 260.319ZM352.025 232.792L396.716 254.891L399.456 249.934L349.159 225.062L339.784 242.022L345.39 244.794L352.025 232.792Z" fill="#272948" fill-opacity="0.24"/>
<path d="M800.995 146.804L810.404 151.457L817.038 139.455L861.729 161.554L866.431 153.049L812.331 126.297L800.995 146.804Z" fill="#272948" fill-opacity="0.24"/>
<path d="M862.65 164.268L817.959 142.169L811.324 154.171L798.114 147.638L811.411 123.584L869.313 152.215L862.65 164.268ZM816.118 136.741L860.809 158.84L863.55 153.883L813.252 129.011L803.877 145.971L809.484 148.743L816.118 136.741Z" fill="#272948" fill-opacity="0.24"/>
<path d="M808.926 56.3378L818.335 60.9902L824.969 48.9881L869.66 71.0872L874.362 62.5821L820.262 35.8308L808.926 56.3378Z" fill="#272948" fill-opacity="0.24"/>
<path d="M870.581 73.8014L825.89 51.7024L819.256 63.7045L806.045 57.172L819.342 33.1171L877.244 61.7486L870.581 73.8014ZM824.049 46.2745L868.74 68.3735L871.481 63.4164L821.183 38.545L811.808 55.5042L817.415 58.2764L824.049 46.2745Z" fill="#272948" fill-opacity="0.24"/>
<path d="M795.343 235.064L804.751 239.717L811.386 227.715L856.077 249.814L860.779 241.309L806.679 214.557L795.343 235.064Z" fill="#272948" fill-opacity="0.24"/>
<path d="M856.998 252.528L812.307 230.429L805.672 242.431L792.461 235.898L805.759 211.844L863.66 240.475L856.998 252.528ZM810.466 225.001L855.157 247.1L857.897 242.143L807.6 217.271L798.225 234.231L803.831 237.003L810.466 225.001Z" fill="#272948" fill-opacity="0.24"/>
<path d="M-51.7871 27.993L-42.3783 32.6454L-35.7438 20.6432L8.9471 42.7424L13.6488 34.2373L-40.4511 7.48596L-51.7871 27.993Z" fill="#272948" fill-opacity="0.24"/>
<path d="M9.86832 45.4565L-34.8229 23.3575L-41.4576 35.3596L-54.6685 28.8271L-41.371 4.77222L16.5307 33.4037L9.86832 45.4565ZM-36.6639 17.9297L8.02729 40.0286L10.7675 35.0716L-39.5299 10.2001L-48.9048 27.1594L-43.2985 29.9316L-36.6639 17.9297Z" fill="#272948" fill-opacity="0.24"/>
<path d="M-65.3701 206.719L-55.9614 211.371L-49.3268 199.369L-4.63591 221.468L0.0657883 212.963L-54.0341 186.212L-65.3701 206.719Z" fill="#272948" fill-opacity="0.24"/>
<path d="M-3.71471 224.182L-48.4059 202.083L-55.0406 214.085L-68.2515 207.553L-54.954 183.498L2.94775 212.129L-3.71471 224.182ZM-50.2469 196.655L-5.55573 218.754L-2.81542 213.797L-53.1129 188.926L-62.4878 205.885L-56.8815 208.657L-50.2469 196.655Z" fill="#272948" fill-opacity="0.24"/>
<path d="M-57.4385 116.253L-48.0298 120.905L-41.3953 108.903L3.29567 131.002L7.99736 122.497L-46.1025 95.7457L-57.4385 116.253Z" fill="#272948" fill-opacity="0.24"/>
<path d="M4.21699 133.716L-40.4741 111.617L-47.1088 123.619L-60.3198 117.087L-47.0222 93.032L10.8795 121.664L4.21699 133.716ZM-42.3152 106.189L2.37595 128.288L5.11626 123.331L-45.1811 98.4599L-54.556 115.419L-48.9497 118.191L-42.3152 106.189Z" fill="#272948" fill-opacity="0.24"/>
<path d="M406.655 20.2011L416.063 24.8535L422.698 12.8514L467.389 34.9505L472.091 26.4454L417.991 -0.305908L406.655 20.2011Z" fill="#272948" fill-opacity="0.24"/>
<path d="M468.31 37.6646L423.619 15.5657L416.984 27.5678L403.773 21.0353L417.071 -3.01965L474.972 25.6119L468.31 37.6646ZM421.778 10.1378L466.469 32.2368L469.209 27.2797L418.912 2.40823L409.537 19.3675L415.143 22.1397L421.778 10.1378Z" fill="#272948" fill-opacity="0.24"/>
<path d="M393.071 198.928L402.48 203.58L409.115 191.578L453.805 213.677L458.507 205.172L404.407 178.421L393.071 198.928Z" fill="#272948" fill-opacity="0.24"/>
<path d="M454.726 216.391L410.035 194.292L403.401 206.294L390.19 199.762L403.487 175.707L461.389 204.338L454.726 216.391ZM408.194 188.864L452.885 210.963L455.626 206.006L405.328 181.135L395.953 198.094L401.56 200.866L408.194 188.864Z" fill="#272948" fill-opacity="0.24"/>
<path d="M401.002 108.461L410.411 113.113L417.046 101.111L461.737 123.21L466.438 114.705L412.338 87.9537L401.002 108.461Z" fill="#272948" fill-opacity="0.24"/>
<path d="M462.658 125.924L417.966 103.825L411.332 115.827L398.121 109.295L411.418 85.24L469.32 113.872L462.658 125.924ZM416.125 98.3974L460.817 120.496L463.557 115.539L413.259 90.6679L403.885 107.627L409.491 110.399L416.125 98.3974Z" fill="#272948" fill-opacity="0.24"/>
<path d="M177.45 24.4169L186.859 29.0693L193.493 17.0671L238.184 39.1663L242.886 30.6611L188.786 3.90979L177.45 24.4169Z" fill="#272948" fill-opacity="0.24"/>
<path d="M239.105 41.8804L194.414 19.7814L187.78 31.7835L174.569 25.251L187.866 1.19617L245.768 29.8276L239.105 41.8804ZM192.573 14.3536L237.264 36.4525L240.005 31.4955L189.707 6.62405L180.332 23.5832L185.939 26.3555L192.573 14.3536Z" fill="#272948" fill-opacity="0.24"/>
<path d="M163.867 203.143L173.276 207.796L179.91 195.794L224.601 217.893L229.303 209.388L175.203 182.636L163.867 203.143Z" fill="#272948" fill-opacity="0.24"/>
<path d="M225.522 220.607L180.831 198.508L174.197 210.51L160.986 203.978L174.283 179.923L232.185 208.554L225.522 220.607ZM178.99 193.08L223.681 215.179L226.422 210.222L176.124 185.351L166.749 202.31L172.356 205.082L178.99 193.08Z" fill="#272948" fill-opacity="0.24"/>
<path d="M171.798 112.677L181.207 117.329L187.842 105.327L232.532 127.426L237.234 118.921L183.134 92.1696L171.798 112.677Z" fill="#272948" fill-opacity="0.24"/>
<path d="M233.454 130.14L188.762 108.041L182.128 120.043L168.917 113.511L182.214 89.4558L240.116 118.087L233.454 130.14ZM186.921 102.613L231.612 124.712L234.353 119.755L184.055 94.8837L174.68 111.843L180.287 114.615L186.921 102.613Z" fill="#272948" fill-opacity="0.24"/>
<path d="M635.892 16.6248L645.3 21.2772L651.935 9.2751L696.626 31.3742L701.327 22.8691L647.228 -3.8822L635.892 16.6248Z" fill="#272948" fill-opacity="0.24"/>
<path d="M697.547 34.0883L652.856 11.9894L646.221 23.9915L633.01 17.459L646.308 -6.59595L704.209 22.0356L697.547 34.0883ZM651.015 6.56146L695.706 28.6605L698.446 23.7034L648.149 -1.16807L638.774 15.7912L644.38 18.5634L651.015 6.56146Z" fill="#272948" fill-opacity="0.24"/>
<path d="M622.309 195.351L631.717 200.004L638.352 188.002L683.043 210.101L687.744 201.596L633.645 174.844L622.309 195.351Z" fill="#272948" fill-opacity="0.24"/>
<path d="M683.964 212.815L639.273 190.716L632.638 202.718L619.427 196.186L632.725 172.131L690.626 200.762L683.964 212.815ZM637.432 185.288L682.123 207.387L684.863 202.43L634.566 177.559L625.191 194.518L630.797 197.29L637.432 185.288Z" fill="#272948" fill-opacity="0.24"/>
<path d="M630.24 104.886L639.648 109.538L646.283 97.5358L690.974 119.635L695.676 111.13L641.576 84.3785L630.24 104.886Z" fill="#272948" fill-opacity="0.24"/>
<path d="M691.895 122.349L647.204 100.25L640.569 112.252L627.358 105.72L640.656 81.6648L698.557 110.296L691.895 122.349ZM645.363 94.8222L690.054 116.921L692.794 111.964L642.497 87.0927L633.122 104.052L638.728 106.824L645.363 94.8222Z" fill="#272948" fill-opacity="0.24"/>
<path d="M62.832 26.2039L72.2407 30.8563L78.8753 18.8542L123.566 40.9533L128.268 32.4482L74.168 5.6969L62.832 26.2039Z" fill="#272948" fill-opacity="0.24"/>
<path d="M124.487 43.6674L79.7964 21.5685L73.1617 33.5706L59.9507 27.0381L73.2483 2.98315L131.15 31.6147L124.487 43.6674ZM77.9554 16.1406L122.646 38.2396L125.386 33.2825L75.0894 8.41103L65.7145 25.3703L71.3208 28.1425L77.9554 16.1406Z" fill="#272948" fill-opacity="0.24"/>
<path d="M49.2485 204.93L58.6572 209.583L65.2918 197.581L109.983 219.68L114.684 211.175L60.5845 184.423L49.2485 204.93Z" fill="#272948" fill-opacity="0.24"/>
<path d="M110.904 222.394L66.2129 200.295L59.5782 212.297L46.3672 205.765L59.6648 181.71L117.566 210.341L110.904 222.394ZM64.3719 194.867L109.063 216.966L111.803 212.009L61.5059 187.138L52.131 204.097L57.7373 206.869L64.3719 194.867Z" fill="#272948" fill-opacity="0.24"/>
<path d="M57.1797 114.465L66.5884 119.117L73.223 107.115L117.914 129.214L122.616 120.709L68.5157 93.9576L57.1797 114.465Z" fill="#272948" fill-opacity="0.24"/>
<path d="M118.835 131.928L74.1439 109.829L67.5092 121.831L54.2983 115.299L67.5958 91.2439L125.497 119.875L118.835 131.928ZM72.3029 104.401L116.994 126.5L119.734 121.543L69.4369 96.6718L60.062 113.631L65.6683 116.403L72.3029 104.401Z" fill="#272948" fill-opacity="0.24"/>
<path d="M521.273 18.4129L530.682 23.0653L537.316 11.0632L582.007 33.1623L586.709 24.6572L532.609 -2.09412L521.273 18.4129Z" fill="#272948" fill-opacity="0.24"/>
<path d="M582.928 35.8764L538.237 13.7775L531.602 25.7796L518.391 19.247L531.689 -4.80786L589.591 23.8237L582.928 35.8764ZM536.396 8.34955L581.087 30.4486L583.827 25.4915L533.53 0.62001L524.155 17.5793L529.761 20.3515L536.396 8.34955Z" fill="#272948" fill-opacity="0.24"/>
<path d="M507.689 197.138L517.098 201.791L523.733 189.789L568.424 211.888L573.125 203.383L519.025 176.631L507.689 197.138Z" fill="#272948" fill-opacity="0.24"/>
<path d="M569.345 214.602L524.653 192.503L518.019 204.505L504.808 197.973L518.105 173.918L576.007 202.549L569.345 214.602ZM522.812 187.075L567.504 209.174L570.244 204.217L519.946 179.346L510.572 196.305L516.178 199.077L522.812 187.075Z" fill="#272948" fill-opacity="0.24"/>
<path d="M515.621 106.673L525.03 111.325L531.664 99.3229L576.355 121.422L581.057 112.917L526.957 86.1656L515.621 106.673Z" fill="#272948" fill-opacity="0.24"/>
<path d="M577.276 124.136L532.585 102.037L525.95 114.039L512.739 107.507L526.037 83.4519L583.939 112.083L577.276 124.136ZM530.744 96.6094L575.435 118.708L578.176 113.751L527.878 88.8798L518.503 105.839L524.11 108.611L530.744 96.6094Z" fill="#272948" fill-opacity="0.24"/>
<path d="M292.069 22.6295L301.478 27.2819L308.112 15.2798L352.803 37.3789L357.505 28.8738L303.405 2.12244L292.069 22.6295Z" fill="#272948" fill-opacity="0.24"/>
<path d="M353.724 40.093L309.033 17.9941L302.398 29.9962L289.188 23.4637L302.485 -0.591187L360.386 28.0403L353.724 40.093ZM307.192 12.5662L351.883 34.6652L354.623 29.7081L304.326 4.83669L294.951 21.7959L300.557 24.5681L307.192 12.5662Z" fill="#272948" fill-opacity="0.24"/>
<path d="M278.485 201.355L287.894 206.008L294.529 194.006L339.219 216.105L343.921 207.6L289.821 180.848L278.485 201.355Z" fill="#272948" fill-opacity="0.24"/>
<path d="M340.141 218.819L295.449 196.72L288.815 208.722L275.604 202.189L288.901 178.135L346.803 206.766L340.141 218.819ZM293.608 191.292L338.3 213.391L341.04 208.434L290.742 183.562L281.367 200.522L286.974 203.294L293.608 191.292Z" fill="#272948" fill-opacity="0.24"/>
<path d="M286.417 110.889L295.826 115.542L302.46 103.54L347.151 125.639L351.853 117.134L297.753 90.3824L286.417 110.889Z" fill="#272948" fill-opacity="0.24"/>
<path d="M348.072 128.353L303.381 106.254L296.746 118.256L283.535 111.724L296.833 87.6687L354.735 116.3L348.072 128.353ZM301.54 100.826L346.231 122.925L348.971 117.968L298.674 93.0966L289.299 110.056L294.905 112.828L301.54 100.826Z" fill="#272948" fill-opacity="0.24"/>
<path d="M750.51 14.8378L759.918 19.4902L766.553 7.4881L811.244 29.5872L815.946 21.0821L761.846 -5.66919L750.51 14.8378Z" fill="#272948" fill-opacity="0.24"/>
<path d="M812.165 32.3014L767.474 10.2024L760.839 22.2045L747.628 15.672L760.926 -8.38287L818.827 20.2486L812.165 32.3014ZM765.633 4.77455L810.324 26.8735L813.064 21.9164L762.767 -2.95499L753.392 14.0042L758.998 16.7764L765.633 4.77455Z" fill="#272948" fill-opacity="0.24"/>
<path d="M736.927 193.564L746.335 198.216L752.97 186.214L797.661 208.313L802.363 199.808L748.263 173.057L736.927 193.564Z" fill="#272948" fill-opacity="0.24"/>
<path d="M798.582 211.028L753.891 188.929L747.256 200.931L734.045 194.398L747.343 170.343L805.244 198.975L798.582 211.028ZM752.05 183.501L796.741 205.6L799.481 200.643L749.184 175.771L739.809 192.73L745.415 195.503L752.05 183.501Z" fill="#272948" fill-opacity="0.24"/>
<path d="M744.858 103.097L754.267 107.75L760.901 95.7478L805.592 117.847L810.294 109.342L756.194 82.5905L744.858 103.097Z" fill="#272948" fill-opacity="0.24"/>
<path d="M806.513 120.561L761.822 98.462L755.187 110.464L741.976 103.932L755.274 79.8767L813.176 108.508L806.513 120.561ZM759.981 93.0342L804.672 115.133L807.412 110.176L757.115 85.3046L747.74 102.264L753.346 105.036L759.981 93.0342Z" fill="#272948" fill-opacity="0.24"/>
<path d="M5.52246 27.0986L14.9312 31.751L21.5658 19.7489L66.2566 41.848L70.9584 33.3429L16.8585 6.59155L5.52246 27.0986Z" fill="#272948" fill-opacity="0.24"/>
<path d="M67.1778 44.5622L22.4868 22.4632L15.8521 34.4653L2.64111 27.9328L15.9387 3.87793L73.8404 32.5094L67.1778 44.5622ZM20.6458 17.0353L65.3369 39.1343L68.0771 34.1772L17.7798 9.3058L8.40484 26.265L14.0112 29.0372L20.6458 17.0353Z" fill="#272948" fill-opacity="0.24"/>
<path d="M-8.06055 205.825L1.34817 210.477L7.98273 198.475L52.6737 220.574L57.3754 212.069L3.27544 185.318L-8.06055 205.825Z" fill="#272948" fill-opacity="0.24"/>
<path d="M53.5949 223.288L8.90379 201.189L2.26912 213.192L-10.9419 206.659L2.3557 182.604L60.2574 211.236L53.5949 223.288ZM7.06277 195.762L51.7539 217.861L54.4942 212.903L4.19679 188.032L-5.17811 204.991L0.428201 207.763L7.06277 195.762Z" fill="#272948" fill-opacity="0.24"/>
<path d="M-0.129395 115.358L9.27932 120.011L15.9139 108.009L60.6048 130.108L65.3064 121.603L11.2066 94.8514L-0.129395 115.358Z" fill="#272948" fill-opacity="0.24"/>
<path d="M61.5261 132.822L16.8349 110.723L10.2003 122.725L-3.01074 116.193L10.2868 92.1377L68.1885 120.769L61.5261 132.822ZM14.9939 105.295L59.6851 127.394L62.4254 122.437L12.1279 97.5656L2.75299 114.525L8.35931 117.297L14.9939 105.295Z" fill="#272948" fill-opacity="0.24"/>
<path d="M463.964 19.3074L473.373 23.9598L480.007 11.9577L524.698 34.0568L529.4 25.5517L475.3 -1.19958L463.964 19.3074Z" fill="#272948" fill-opacity="0.24"/>
<path d="M525.619 36.771L480.928 14.672L474.293 26.6741L461.082 20.1416L474.38 -3.91333L532.281 24.7182L525.619 36.771ZM479.087 9.24408L523.778 31.3431L526.518 26.386L476.221 1.51454L466.846 18.4738L472.452 21.246L479.087 9.24408Z" fill="#272948" fill-opacity="0.24"/>
<path d="M450.381 198.033L459.79 202.685L466.424 190.683L511.115 212.782L515.817 204.277L461.717 177.526L450.381 198.033Z" fill="#272948" fill-opacity="0.24"/>
<path d="M512.036 215.497L467.345 193.398L460.71 205.4L447.499 198.867L460.797 174.812L518.698 203.444L512.036 215.497ZM465.504 187.97L510.195 210.069L512.935 205.112L462.638 180.24L453.263 197.199L458.869 199.972L465.504 187.97Z" fill="#272948" fill-opacity="0.24"/>
<path d="M458.312 107.566L467.721 112.219L474.355 100.216L519.047 122.316L523.748 113.811L469.648 87.0592L458.312 107.566Z" fill="#272948" fill-opacity="0.24"/>
<path d="M519.967 125.03L475.276 102.931L468.641 114.933L455.43 108.4L468.728 84.3455L526.63 112.977L519.967 125.03ZM473.435 97.5029L518.126 119.602L520.866 114.645L470.569 89.7734L461.194 106.733L466.8 109.505L473.435 97.5029Z" fill="#272948" fill-opacity="0.24"/>
<path d="M234.76 23.5232L244.168 28.1757L250.803 16.1735L295.494 38.2726L300.196 29.7675L246.096 3.01624L234.76 23.5232Z" fill="#272948" fill-opacity="0.24"/>
<path d="M296.415 40.9868L251.724 18.8878L245.089 30.8899L231.878 24.3574L245.176 0.30249L303.077 28.934L296.415 40.9868ZM249.883 13.4599L294.574 35.5589L297.314 30.6018L247.017 5.73036L237.642 22.6896L243.248 25.4618L249.883 13.4599Z" fill="#272948" fill-opacity="0.24"/>
<path d="M221.176 202.249L230.585 206.901L237.219 194.899L281.91 216.998L286.612 208.493L232.512 181.742L221.176 202.249Z" fill="#272948" fill-opacity="0.24"/>
<path d="M282.831 219.713L238.14 197.614L231.506 209.616L218.295 203.083L231.592 179.028L289.494 207.66L282.831 219.713ZM236.299 192.186L280.99 214.285L283.731 209.328L233.433 184.456L224.058 201.415L229.665 204.188L236.299 192.186Z" fill="#272948" fill-opacity="0.24"/>
<path d="M229.107 111.782L238.516 116.434L245.151 104.432L289.842 126.531L294.543 118.026L240.443 91.275L229.107 111.782Z" fill="#272948" fill-opacity="0.24"/>
<path d="M290.763 129.246L246.071 107.147L239.437 119.149L226.226 112.616L239.523 88.5613L297.425 117.193L290.763 129.246ZM244.23 101.719L288.922 123.818L291.662 118.861L241.364 93.9892L231.99 110.948L237.596 113.721L244.23 101.719Z" fill="#272948" fill-opacity="0.24"/>
<path d="M693.201 15.7311L702.609 20.3835L709.244 8.3813L753.935 30.4805L758.637 21.9754L704.537 -4.776L693.201 15.7311Z" fill="#272948" fill-opacity="0.24"/>
<path d="M754.856 33.1946L710.165 11.0956L703.53 23.0977L690.319 16.5652L703.617 -7.48962L761.518 21.1418L754.856 33.1946ZM708.324 5.66779L753.015 27.7667L755.755 22.8097L705.458 -2.06174L696.083 14.8974L701.689 17.6697L708.324 5.66779Z" fill="#272948" fill-opacity="0.24"/>
<path d="M679.618 194.457L689.026 199.109L695.661 187.107L740.352 209.206L745.053 200.701L690.954 173.95L679.618 194.457Z" fill="#272948" fill-opacity="0.24"/>
<path d="M741.273 211.92L696.582 189.821L689.947 201.824L676.736 195.291L690.034 171.236L747.935 199.868L741.273 211.92ZM694.741 184.394L739.432 206.493L742.172 201.535L691.875 176.664L682.5 193.623L688.106 196.395L694.741 184.394Z" fill="#272948" fill-opacity="0.24"/>
<path d="M687.549 103.991L696.957 108.643L703.592 96.6411L748.283 118.74L752.985 110.235L698.885 83.4838L687.549 103.991Z" fill="#272948" fill-opacity="0.24"/>
<path d="M749.204 121.454L704.513 99.3553L697.878 111.357L684.667 104.825L697.965 80.7701L755.866 109.402L749.204 121.454ZM702.672 93.9275L747.363 116.026L750.103 111.069L699.806 86.1979L690.431 103.157L696.037 105.929L702.672 93.9275Z" fill="#272948" fill-opacity="0.24"/>
<path d="M120.141 25.3112L129.55 29.9636L136.184 17.9614L180.875 40.0606L185.577 31.5555L131.477 4.8042L120.141 25.3112Z" fill="#272948" fill-opacity="0.24"/>
<path d="M181.796 42.7748L137.105 20.6758L130.47 32.6779L117.26 26.1454L130.557 2.09058L188.459 30.722L181.796 42.7748ZM135.264 15.248L179.955 37.3469L182.696 32.3899L132.398 7.51846L123.023 24.4776L128.63 27.2499L135.264 15.248Z" fill="#272948" fill-opacity="0.24"/>
<path d="M106.558 204.038L115.966 208.69L122.601 196.688L167.292 218.787L171.993 210.282L117.894 183.531L106.558 204.038Z" fill="#272948" fill-opacity="0.24"/>
<path d="M168.213 221.501L123.522 199.402L116.887 211.405L103.676 204.872L116.974 180.817L174.875 209.449L168.213 221.501ZM121.681 193.975L166.372 216.074L169.112 211.116L118.815 186.245L109.44 203.204L115.046 205.976L121.681 193.975Z" fill="#272948" fill-opacity="0.24"/>
<path d="M114.489 113.571L123.898 118.223L130.532 106.221L175.223 128.32L179.925 119.815L125.825 93.0638L114.489 113.571Z" fill="#272948" fill-opacity="0.24"/>
<path d="M176.144 131.034L131.453 108.935L124.819 120.938L111.608 114.405L124.905 90.3501L182.807 118.982L176.144 131.034ZM129.612 103.508L174.303 125.607L177.044 120.649L126.746 95.778L117.371 112.737L122.978 115.509L129.612 103.508Z" fill="#272948" fill-opacity="0.24"/>
<path d="M578.582 17.5196L587.991 22.172L594.626 10.1699L639.317 32.269L644.018 23.7639L589.918 -2.98743L578.582 17.5196Z" fill="#272948" fill-opacity="0.24"/>
<path d="M640.238 34.9831L595.547 12.8841L588.912 24.8862L575.701 18.3537L588.998 -5.70117L646.9 22.9304L640.238 34.9831ZM593.706 7.45625L638.397 29.5553L641.137 24.5982L590.84 -0.273291L581.465 16.686L587.071 19.4582L593.706 7.45625Z" fill="#272948" fill-opacity="0.24"/>
<path d="M564.999 196.246L574.408 200.898L581.043 188.896L625.734 210.995L630.435 202.49L576.335 175.739L564.999 196.246Z" fill="#272948" fill-opacity="0.24"/>
<path d="M626.655 213.709L581.964 191.61L575.329 203.613L562.118 197.08L575.415 173.025L633.317 201.657L626.655 213.709ZM580.123 186.183L624.814 208.282L627.554 203.324L577.257 178.453L567.882 195.412L573.488 198.185L580.123 186.183Z" fill="#272948" fill-opacity="0.24"/>
<path d="M572.931 105.779L582.339 110.432L588.974 98.4296L633.665 120.529L638.366 112.024L584.267 85.2723L572.931 105.779Z" fill="#272948" fill-opacity="0.24"/>
<path d="M634.586 123.243L589.895 101.144L583.26 113.146L570.049 106.613L583.347 82.5586L641.248 111.19L634.586 123.243ZM588.054 95.716L632.745 117.815L635.485 112.858L585.188 87.9865L575.813 104.946L581.419 107.718L588.054 95.716Z" fill="#272948" fill-opacity="0.24"/>
<path d="M349.378 21.7352L358.787 26.3876L365.421 14.3854L410.112 36.4846L414.814 27.9795L360.714 1.22815L349.378 21.7352Z" fill="#272948" fill-opacity="0.24"/>
<path d="M411.033 39.1987L366.342 17.0997L359.707 29.1018L346.496 22.5693L359.794 -1.4856L417.696 27.1459L411.033 39.1987ZM364.501 11.6719L409.192 33.7708L411.932 28.8137L361.635 3.94228L352.26 20.9015L357.866 23.6738L364.501 11.6719Z" fill="#272948" fill-opacity="0.24"/>
<path d="M335.795 200.462L345.204 205.114L351.838 193.112L396.529 215.211L401.231 206.706L347.131 179.955L335.795 200.462Z" fill="#272948" fill-opacity="0.24"/>
<path d="M397.45 217.925L352.759 195.826L346.124 207.828L332.913 201.296L346.211 177.241L404.113 205.872L397.45 217.925ZM350.918 190.398L395.609 212.497L398.349 207.54L348.052 182.669L338.677 199.628L344.283 202.4L350.918 190.398Z" fill="#272948" fill-opacity="0.24"/>
<path d="M343.726 109.995L353.135 114.647L359.769 102.645L404.46 124.744L409.162 116.239L355.062 89.488L343.726 109.995Z" fill="#272948" fill-opacity="0.24"/>
<path d="M405.381 127.459L360.69 105.36L354.055 117.362L340.844 110.829L354.142 86.7743L412.044 115.406L405.381 127.459ZM358.849 99.9317L403.54 122.031L406.281 117.074L355.983 92.2022L346.608 109.161L352.215 111.934L358.849 99.9317Z" fill="#272948" fill-opacity="0.24"/>
<path d="M807.819 13.9432L817.228 18.5956L823.863 6.59346L868.553 28.6926L873.255 20.1875L819.155 -6.56384L807.819 13.9432Z" fill="#272948" fill-opacity="0.24"/>
<path d="M869.475 31.4067L824.784 9.30774L818.149 21.3098L804.938 14.7773L818.235 -9.27753L876.138 19.3539L869.475 31.4067ZM822.943 3.87988L867.633 25.9788L870.375 21.0218L820.076 -3.84965L810.701 13.1095L816.308 15.8818L822.943 3.87988Z" fill="#272948" fill-opacity="0.24"/>
<path d="M794.236 192.67L803.645 197.322L810.28 185.32L854.97 207.419L859.672 198.914L805.572 172.163L794.236 192.67Z" fill="#272948" fill-opacity="0.24"/>
<path d="M855.893 210.133L811.201 188.034L804.566 200.036L791.355 193.504L804.652 169.449L862.555 198.081L855.893 210.133ZM809.359 182.606L854.05 204.705L856.792 199.748L806.493 174.877L797.118 191.836L802.725 194.608L809.359 182.606Z" fill="#272948" fill-opacity="0.24"/>
<path d="M802.167 102.204L811.576 106.856L818.211 94.8542L862.902 116.953L867.603 108.448L813.503 81.6969L802.167 102.204Z" fill="#272948" fill-opacity="0.24"/>
<path d="M863.823 119.667L819.132 97.5685L812.497 109.571L799.286 103.038L812.583 78.9832L870.485 107.615L863.823 119.667ZM817.29 92.1406L861.982 114.24L864.722 109.282L814.425 84.4111L805.05 101.37L810.656 104.143L817.29 92.1406Z" fill="#272948" fill-opacity="0.24"/>
</mask>
<g mask="url(#mask1_12500_2599)">
<path d="M819.57 -45.6591H13.104C-2.91225 -45.6591 -15.896 -32.6754 -15.896 -16.6591V235.775C-15.896 251.791 -2.91225 264.775 13.104 264.775H819.57C835.586 264.775 848.57 251.791 848.57 235.775V-16.6591C848.57 -32.6754 835.586 -45.6591 819.57 -45.6591Z" fill="#272948" fill-opacity="0.24"/>
</g>
</g>
</g>
<defs>
<clipPath id="clip0_12500_2599">
<rect width="834" height="238" fill="white"/>
</clipPath>
</defs>
</svg>
