<svg width="189" height="56" viewBox="0 0 189 56" fill="none" xmlns="http://www.w3.org/2000/svg">
<g clip-path="url(#clip0_12143_9664)">
<path d="M182 0H7C3.13401 0 0 3.13401 0 7V49C0 52.866 3.13401 56 7 56H182C185.866 56 189 52.866 189 49V7C189 3.13401 185.866 0 182 0Z" fill="black"/>
<path d="M182 1.12C185.248 1.12 187.88 3.752 187.88 7V49C187.88 52.248 185.248 54.88 182 54.88H7C3.752 54.88 1.12 52.248 1.12 49V7C1.12 3.752 3.752 1.12 7 1.12H182ZM182 0H7C3.15 0 0 3.15 0 7V49C0 52.85 3.15 56 7 56H182C185.85 56 189 52.85 189 49V7C189 3.15 185.85 0 182 0Z" fill="#A6A6A6"/>
<path d="M64.3717 17.8501C63.9097 18.0181 63.0137 18.2841 61.9497 18.2841C60.7597 18.2841 59.7656 17.9761 58.9956 17.2341C58.3096 16.5761 57.8896 15.5261 57.8896 14.2941C57.8896 11.9421 59.5137 10.2061 62.1737 10.2061C63.0837 10.2061 63.7977 10.4021 64.1477 10.5701L63.8956 11.3961C63.4757 11.2141 62.9437 11.0601 62.1456 11.0601C60.2276 11.0601 58.9676 12.2501 58.9676 14.2381C58.9676 16.2261 60.1716 17.4301 62.0196 17.4301C62.6916 17.4301 63.1397 17.3321 63.3777 17.2201V14.8681H61.7676V14.0421H64.3717V17.8361V17.8501Z" fill="white" stroke="white" stroke-width="0.282927" stroke-miterlimit="10"/>
<path d="M70.2521 14.4898H67.1721V17.3458H70.6021V18.1998H66.1641V10.2898H70.4341V11.1438H67.1861V13.6358H70.2661V14.4758L70.2521 14.4898Z" fill="white" stroke="white" stroke-width="0.282927" stroke-miterlimit="10"/>
<path d="M73.8641 11.158H71.4561V10.29H77.3081V11.158H74.8861V18.2H73.8501V11.158H73.8641Z" fill="white" stroke="white" stroke-width="0.282927" stroke-miterlimit="10"/>
<path d="M82.1656 10.2898V18.1998H81.1436V10.2898H82.1656Z" fill="white" stroke="white" stroke-width="0.282927" stroke-miterlimit="10"/>
<path d="M85.6795 11.1578H83.2715V10.2898H89.1235V11.1578H86.7015V18.1998H85.6655V11.1578H85.6795Z" fill="white" stroke="white" stroke-width="0.282927" stroke-miterlimit="10"/>
<path d="M99.7221 14.1681C99.7221 16.8841 98.07 18.3261 96.054 18.3261C94.038 18.3261 92.498 16.7021 92.498 14.3221C92.498 11.8161 94.0521 10.1641 96.1661 10.1641C98.2801 10.1641 99.7221 11.8161 99.7221 14.1681ZM93.59 14.2941C93.59 15.9881 94.5 17.5001 96.11 17.5001C97.72 17.5001 98.644 16.0161 98.644 14.2101C98.644 12.6421 97.8181 10.9901 96.1241 10.9901C94.4301 10.9901 93.59 12.5441 93.59 14.2801V14.2941Z" fill="white" stroke="white" stroke-width="0.282927" stroke-miterlimit="10"/>
<path d="M101.29 18.2V10.29H102.41L104.944 14.294C105.532 15.218 105.994 16.058 106.358 16.856H106.386C106.288 15.792 106.274 14.826 106.274 13.594V10.29H107.24V18.2H106.204L103.698 14.182C103.152 13.3 102.62 12.404 102.214 11.55H102.172C102.228 12.558 102.256 13.51 102.256 14.826V18.2H101.29Z" fill="white" stroke="white" stroke-width="0.282927" stroke-miterlimit="10"/>
<path d="M95.3957 30.4504C92.1057 30.4504 89.4177 32.9564 89.4177 36.4004C89.4177 39.8444 92.1057 42.3504 95.3957 42.3504C98.6857 42.3504 101.374 39.8304 101.374 36.4004C101.374 32.9704 98.6857 30.4504 95.3957 30.4504ZM95.3957 40.0124C93.5897 40.0124 92.0357 38.5284 92.0357 36.4004C92.0357 34.2724 93.5897 32.7884 95.3957 32.7884C97.2017 32.7884 98.7557 34.2584 98.7557 36.4004C98.7557 38.5424 97.2017 40.0124 95.3957 40.0124ZM82.3617 30.4504C79.0717 30.4504 76.3837 32.9564 76.3837 36.4004C76.3837 39.8444 79.0717 42.3504 82.3617 42.3504C85.6517 42.3504 88.3397 39.8304 88.3397 36.4004C88.3397 32.9704 85.6517 30.4504 82.3617 30.4504ZM82.3617 40.0124C80.5557 40.0124 79.0017 38.5284 79.0017 36.4004C79.0017 34.2724 80.5557 32.7884 82.3617 32.7884C84.1677 32.7884 85.7217 34.2584 85.7217 36.4004C85.7217 38.5424 84.1677 40.0124 82.3617 40.0124ZM66.8497 32.2704V34.7904H72.8977C72.7157 36.2044 72.2397 37.2544 71.5257 37.9684C70.6437 38.8504 69.2717 39.8164 66.8637 39.8164C63.1397 39.8164 60.2277 36.8204 60.2277 33.0964C60.2277 29.3724 63.1397 26.3764 66.8637 26.3764C68.8657 26.3764 70.3357 27.1604 71.4137 28.1824L73.1917 26.4044C71.6797 24.9624 69.6777 23.8564 66.8497 23.8564C61.7537 23.8564 57.4697 28.0004 57.4697 33.1104C57.4697 38.2204 61.7537 42.3644 66.8497 42.3644C69.6077 42.3644 71.6797 41.4684 73.3037 39.7744C74.9697 38.1084 75.4877 35.7564 75.4877 33.8664C75.4877 33.2784 75.4457 32.7324 75.3477 32.2844H66.8497V32.2704ZM130.284 34.2304C129.794 32.9004 128.282 30.4364 125.188 30.4364C122.094 30.4364 119.574 32.8444 119.574 36.3864C119.574 39.7184 122.094 42.3364 125.482 42.3364C128.212 42.3364 129.794 40.6704 130.438 39.7044L128.408 38.3464C127.736 39.3404 126.812 39.9984 125.482 39.9984C124.152 39.9984 123.2 39.3964 122.598 38.1924L130.564 34.9024L130.298 34.2304H130.284ZM122.164 36.2184C122.094 33.9224 123.942 32.7464 125.272 32.7464C126.308 32.7464 127.19 33.2644 127.484 34.0064L122.164 36.2184ZM115.696 41.9864H118.314V24.4864H115.696V41.9864ZM111.412 31.7664H111.328C110.74 31.0664 109.62 30.4364 108.192 30.4364C105.21 30.4364 102.48 33.0544 102.48 36.4144C102.48 39.7744 105.21 42.3504 108.192 42.3504C109.606 42.3504 110.74 41.7204 111.328 40.9924H111.412V41.8464C111.412 44.1284 110.194 45.3464 108.234 45.3464C106.638 45.3464 105.644 44.1984 105.238 43.2324L102.956 44.1844C103.614 45.7664 105.35 47.6984 108.234 47.6984C111.3 47.6984 113.89 45.8924 113.89 41.4964V30.8004H111.412V31.7664ZM108.416 39.9984C106.61 39.9984 105.098 38.4864 105.098 36.4144C105.098 34.3424 106.61 32.7884 108.416 32.7884C110.222 32.7884 111.594 34.3284 111.594 36.4144C111.594 38.5004 110.194 39.9984 108.416 39.9984ZM142.548 24.4864H136.29V41.9864H138.908V35.3504H142.562C145.46 35.3504 148.302 33.2504 148.302 29.9184C148.302 26.5864 145.46 24.4864 142.562 24.4864H142.548ZM142.618 32.9284H138.908V26.9224H142.618C144.578 26.9224 145.684 28.5464 145.684 29.9184C145.684 31.2904 144.578 32.9144 142.618 32.9144V32.9284ZM158.76 30.4084C156.87 30.4084 154.91 31.2484 154.098 33.0824L156.422 34.0484C156.912 33.0824 157.836 32.7604 158.802 32.7604C160.146 32.7604 161.532 33.5724 161.546 35.0144V35.1964C161.07 34.9304 160.062 34.5244 158.816 34.5244C156.31 34.5244 153.776 35.8964 153.776 38.4584C153.776 40.7964 155.82 42.3084 158.116 42.3084C159.866 42.3084 160.846 41.5244 161.448 40.6004H161.532V41.9444H164.052V35.2384C164.052 32.1304 161.728 30.3944 158.732 30.3944L158.76 30.4084ZM158.438 39.9984C157.584 39.9984 156.394 39.5644 156.394 38.5144C156.394 37.1704 157.878 36.6524 159.166 36.6524C160.314 36.6524 160.86 36.9044 161.546 37.2404C161.35 38.8644 159.95 40.0124 158.438 40.0124V39.9984ZM173.25 30.7864L170.254 38.3744H170.17L167.062 30.7864H164.248L168.91 41.3984L166.25 47.2924H168.98L176.162 30.7864H173.264H173.25ZM149.716 41.9864H152.334V24.4864H149.716V41.9864Z" fill="white"/>
<path d="M29.0086 27.188L14.0986 43.0079C14.5606 44.7299 16.1286 45.9899 17.9906 45.9899C18.7326 45.9899 19.4326 45.794 20.0346 45.43L20.0766 45.402L36.8486 35.728L28.9946 27.174L29.0086 27.188Z" fill="#EA4335"/>
<path d="M44.0859 24.5003H44.0719L36.8339 20.2863L28.6719 27.5523L36.8619 35.7423L44.0719 31.5843C45.3319 30.8983 46.1859 29.5683 46.1859 28.0423C46.1859 26.5163 45.3459 25.1863 44.0859 24.5143V24.5003Z" fill="#FBBC04"/>
<path d="M14.098 12.9923C14.014 13.3283 13.958 13.6643 13.958 14.0283V41.9863C13.958 42.3503 14 42.6863 14.098 43.0223L29.512 27.6083L14.098 12.9923Z" fill="#4285F4"/>
<path d="M29.1206 28.0002L36.8346 20.2862L20.0766 10.5702C19.4746 10.2062 18.7606 9.99622 17.9906 9.99622C16.1286 9.99622 14.5606 11.2702 14.0986 12.9782L29.1206 27.9862V28.0002Z" fill="#34A853"/>
</g>
<defs>
<clipPath id="clip0_12143_9664">
<rect width="189" height="56" fill="white"/>
</clipPath>
</defs>
</svg>
