<svg width="80" height="88" viewBox="0 0 80 88" fill="none" xmlns="http://www.w3.org/2000/svg">
<g clip-path="url(#clip0_12023_4031)">
<path fill-rule="evenodd" clip-rule="evenodd" d="M40.1168 48.043C49.4833 46.9717 56.8859 53.8662 57.8335 61.9966C58.9185 71.322 52.0378 78.7657 43.9073 79.7134C34.5546 80.8121 27.1382 73.9177 26.1494 65.8421C25.0095 56.4756 31.9314 48.9769 40.1168 48.0293V48.043ZM16.055 72.9563C16.0412 68.5752 19.049 69.77 19.7219 70.8001C20.1065 71.3906 20.0515 72.0499 20.0515 72.8052V87.8164C37.37 87.8164 54.6885 87.8026 72.0069 87.8164C74.2455 87.8164 75.976 87.8164 77.4593 86.6353C80.7142 84.0121 79.8902 80.7846 79.8902 76.2524C79.8902 74.1099 79.8902 71.9675 79.8902 69.825C79.8902 61.2413 80 52.5752 79.8902 43.9503H20.0653C20.0103 46.6284 20.0515 49.3477 20.0515 52.0258C20.0515 54.1683 20.7382 57.9589 18.0052 57.8902C15.3683 57.8215 16.055 54.0996 16.055 51.8748C16.055 49.2378 16.0962 46.5872 16.0412 43.9503L0.0961788 44.0052C-0.0411603 56.3108 0.068711 68.9872 0.0961788 81.3614C0.0961788 84.0396 0.975149 85.3443 2.36227 86.5117C4.06528 87.9537 6.00176 87.8301 8.57 87.8301C11.0558 87.8301 13.5691 87.8576 16.055 87.8301V72.97V72.9563Z" fill="#6B7CF3"/>
<path fill-rule="evenodd" clip-rule="evenodd" d="M74.3829 24.0499L59.976 24.0636L60.0035 32.0018C60.8275 31.9331 63.6155 31.8782 64.3296 32.0293C65.4421 32.249 66.3211 33.4988 65.7305 34.831C65.1949 36.0121 63.8764 35.9709 62.4344 35.9709H17.703C16.2747 35.9709 14.9151 36.0808 14.297 34.9409C13.6103 33.6636 14.4618 32.3314 15.5193 32.0705C16.1648 31.9057 19.2 31.9606 19.9691 32.0293L19.9966 24.0911L5.58973 24.0773C2.77428 24.0911 0.439517 26.6318 0.137371 29.2825C-0.192243 32.1941 0.109903 36.8499 0.0961694 39.9675H79.8764C79.849 36.8636 80.1648 32.1941 79.8215 29.2825C79.5193 26.6456 77.1708 24.0911 74.3691 24.0773L74.3829 24.0499Z" fill="#464DF0"/>
<path fill-rule="evenodd" clip-rule="evenodd" d="M39.0593 14.0791C43.7013 13.5297 47.4644 16.9494 47.9176 21.0559C48.4395 25.643 44.9374 29.4198 40.9408 29.9142C36.2438 30.4911 32.5906 27.0027 32.0824 22.9924C31.4781 18.2816 34.9803 14.5597 39.0593 14.0791ZM24.0893 11.8679L24.0481 31.9194L55.952 31.9743V11.964C53.7133 12.0602 52.9992 12.5134 50.5957 11.7992C45.679 10.3434 43.1932 5.5915 44.3331 0.0704661L35.8593 0.0567322C36.2575 2.26789 36.4086 3.54514 35.7357 5.7151C35.2412 7.3357 34.2524 8.80523 33.346 9.6018C30.709 11.8954 28.4017 12.5683 24.0893 11.8679Z" fill="#FFCC00"/>
<path fill-rule="evenodd" clip-rule="evenodd" d="M40.9958 55.5692C40.9958 54.6627 41.1194 53.8936 42.0807 53.9486C42.9597 54.0035 42.9872 54.8001 42.9872 55.6104C45.734 55.6378 46.0086 55.9674 46.0086 58.7417C46.0086 60.2387 46.1185 60.3486 45.8301 61.7219C44.9786 62.079 44.0859 61.928 43.2207 61.7906C42.9048 60.9529 43.0421 59.4696 43.0421 58.3709L40.9408 58.4258C40.9408 58.9752 40.8859 59.8679 40.9408 60.376C41.0232 61.0902 44.3468 64.5237 45.1159 65.4438C45.9537 66.4464 46.0086 66.5151 46.0086 68.1632C46.0086 72.0361 46.4481 72.9013 43.0146 72.9563C42.9734 73.8215 42.891 74.5219 41.9434 74.4945C41.0232 74.4807 41.0095 73.7529 40.982 72.9975C40.1168 72.8601 37.9606 73.3408 37.9606 70.7039C37.9606 69.5365 37.8232 67.449 38.1254 66.4189C39.0043 66.3091 39.9108 66.1717 40.776 66.4876C41.1331 67.5314 40.8172 68.9734 40.9958 70.182L43.0009 70.1958C43.152 67.4078 43.0558 67.3391 41.1468 65.2378C37.7546 61.5022 37.988 62.3125 37.988 57.849C37.988 55.2395 40.0207 55.7202 41.0232 55.5692H40.9958ZM30.0773 64.8807C30.5717 71.0885 36.0928 76.3898 43.0009 75.7992C49.2498 75.2636 54.5649 69.7563 53.9056 62.7795C53.3288 56.5717 47.8627 51.3803 40.9683 51.9571C34.7194 52.479 29.528 57.9863 30.0636 64.8807H30.0773Z" fill="#464DF0"/>
<path fill-rule="evenodd" clip-rule="evenodd" d="M40.9957 55.5692C39.9932 55.7202 37.9605 55.2258 37.9605 57.849C37.9605 62.3262 37.7408 61.5022 41.1193 65.2378C43.0283 67.3529 43.1382 67.4078 42.9734 70.1958L40.9683 70.182C40.8035 68.9735 41.1056 67.5314 40.7485 66.4876C39.8833 66.158 38.9906 66.3091 38.0979 66.4189C37.8095 67.449 37.9331 69.5365 37.9331 70.7039C37.9331 73.3408 40.0893 72.8739 40.9545 72.9975C40.982 73.7529 40.9957 74.4808 41.9159 74.4945C42.8635 74.5082 42.9459 73.8078 42.9871 72.9563C46.4206 72.9013 45.9811 72.0361 45.9811 68.1632C45.9811 66.5151 45.9125 66.4464 45.0884 65.4438C44.3193 64.5099 40.9957 61.0902 40.9133 60.376C40.8584 59.8679 40.9133 58.9752 40.9133 58.4258L43.0146 58.3709C43.0146 59.4833 42.8773 60.9529 43.1932 61.7906C44.0584 61.928 44.9511 62.0928 45.8026 61.7219C46.1047 60.3486 45.9811 60.2387 45.9811 58.7417C45.9811 55.9812 45.7065 55.6516 42.9597 55.6104C42.9734 54.8001 42.9459 53.9898 42.0532 53.9486C41.0781 53.8936 40.9545 54.649 40.9683 55.5692H40.9957Z" fill="white"/>
<path fill-rule="evenodd" clip-rule="evenodd" d="M24.0756 7.73397C26.8911 8.53054 28.9099 8.3932 30.6404 6.60779C32.2747 4.91852 32.4808 3.10565 31.9039 0.880754C31.7529 0.290196 31.7391 0.125389 31.4644 0.0567193C28.7177 0.0567193 26.8636 -0.355298 25.1881 1.3065C23.7597 2.7211 23.8971 5.34427 24.0756 7.73397Z" fill="#FFA50A"/>
<path fill-rule="evenodd" clip-rule="evenodd" d="M55.9245 7.73398C56.1168 5.50909 56.2129 2.72111 54.8945 1.37518C53.1915 -0.355288 51.5297 0.0567288 48.6868 0.0567288C48.1511 0.221536 47.2447 4.08076 49.4147 6.5666C50.7331 8.07733 53.425 8.55802 55.9245 7.74772V7.73398Z" fill="#FFA50A"/>
<path fill-rule="evenodd" clip-rule="evenodd" d="M39.073 18.1305C34.0327 19.449 35.6945 27.0576 41.0095 25.7941C42.8636 25.3546 44.4979 23.4456 43.8387 20.946C43.3855 19.2155 41.4078 17.5262 39.073 18.1305Z" fill="#FFA50A"/>
</g>
<defs>
<clipPath id="clip0_12023_4031">
<rect width="80" height="87.8182" fill="white"/>
</clipPath>
</defs>
</svg>
