<svg width="70" height="88" viewBox="0 0 70 88" fill="none" xmlns="http://www.w3.org/2000/svg">
<g clip-path="url(#clip0_12887_145)">
<path fill-rule="evenodd" clip-rule="evenodd" d="M18.4722 52.1505C19.695 51.5696 20.9532 49.5921 21.5646 47.9783C22.1759 46.3644 22.3423 44.3001 22.3417 41.0667H11.6658C10.0554 41.0667 8.75 39.7822 8.75 38.1247V23.4753C8.75 21.8505 10.0714 20.5333 11.658 20.5333H29.1753C30.7814 20.5333 32.0833 21.8591 32.0833 23.4459V38.1716C32.0833 43.0778 30.7222 47.1093 28.0984 50.3107C25.4746 53.5122 21.8959 54.9587 18.4722 55.7333V52.1505Z" fill="#E0E0E0"/>
<path fill-rule="evenodd" clip-rule="evenodd" d="M47.6389 52.1505C48.8616 51.5696 50.1199 49.5921 50.7312 47.9783C51.3426 46.3644 51.509 44.3001 51.5083 41.0667H40.8324C39.2221 41.0667 37.9167 39.7822 37.9167 38.1247V23.4753C37.9167 21.8505 39.238 20.5333 40.8247 20.5333H58.342C59.948 20.5333 61.25 21.8591 61.25 23.4459V38.1716C61.25 43.0778 59.8889 47.1093 57.2651 50.3107C54.6413 53.5122 51.0626 54.9587 47.6389 55.7333V52.1505Z" fill="#E0E0E0"/>
</g>
<defs>
<clipPath id="clip0_12887_145">
<rect width="70" height="88" fill="white"/>
</clipPath>
</defs>
</svg>
